<mxfile host="app.diagrams.net" modified="2021-03-24T21:50:59.025Z" agent="5.0 (Macintosh; Intel Mac OS X 11_1_0) AppleWebKit/537.36 (KHTML, like Gecko) Chrome/89.0.4389.90 Safari/537.36" etag="ZioIUbdiqdGYZKdhr3SK" version="14.5.1" type="github">
  <diagram id="hgG7Qdo2X7Ybv8ByNUfq" name="Page-1">
    <mxGraphModel dx="946" dy="621" grid="1" gridSize="10" guides="1" tooltips="1" connect="1" arrows="1" fold="1" page="1" pageScale="1" pageWidth="850" pageHeight="1100" math="0" shadow="0">
      <root>
        <mxCell id="0" />
        <mxCell id="1" parent="0" />
        <mxCell id="-Eoq_LRY8Kr08JRgcB4u-18" value="" style="rounded=1;whiteSpace=wrap;html=1;fontSize=18;fillColor=#f8cecc;strokeColor=#b85450;" vertex="1" parent="1">
          <mxGeometry x="620" width="140" height="210" as="geometry" />
        </mxCell>
        <mxCell id="-Eoq_LRY8Kr08JRgcB4u-7" value="" style="rounded=1;whiteSpace=wrap;html=1;fillColor=#b0e3e6;strokeColor=#0e8088;" vertex="1" parent="1">
          <mxGeometry x="280" width="300" height="210" as="geometry" />
        </mxCell>
        <mxCell id="-Eoq_LRY8Kr08JRgcB4u-1" value="&lt;b&gt;Python Client&lt;br&gt;(Rooki)&lt;/b&gt;" style="rounded=1;whiteSpace=wrap;html=1;fillColor=#d5e8d4;strokeColor=#82b366;" vertex="1" parent="1">
          <mxGeometry x="645" y="115" width="90" height="70" as="geometry" />
        </mxCell>
        <mxCell id="-Eoq_LRY8Kr08JRgcB4u-2" value="&lt;b&gt;WPS&lt;br&gt;(Rook)&lt;/b&gt;" style="rounded=1;whiteSpace=wrap;html=1;fillColor=#d5e8d4;strokeColor=#82b366;" vertex="1" parent="1">
          <mxGeometry x="510" y="120" width="70" height="60" as="geometry" />
        </mxCell>
        <mxCell id="-Eoq_LRY8Kr08JRgcB4u-3" value="&lt;b&gt;Climate Data Operators&lt;br&gt;Python Library&lt;br&gt;(Clisops)&lt;/b&gt;" style="rounded=1;whiteSpace=wrap;html=1;fillColor=#dae8fc;strokeColor=#6c8ebf;" vertex="1" parent="1">
          <mxGeometry x="390" y="120" width="90" height="60" as="geometry" />
        </mxCell>
        <mxCell id="-Eoq_LRY8Kr08JRgcB4u-4" value="&lt;b&gt;xarray&lt;/b&gt;" style="rounded=1;whiteSpace=wrap;html=1;fillColor=#1ba1e2;strokeColor=#006EAF;fontColor=#ffffff;" vertex="1" parent="1">
          <mxGeometry x="310" y="120" width="80" height="60" as="geometry" />
        </mxCell>
        <mxCell id="-Eoq_LRY8Kr08JRgcB4u-5" value="&lt;b&gt;Climate Data Pool&lt;br&gt;CMIP6&lt;br&gt;(netCDF)&lt;/b&gt;" style="shape=cylinder3;whiteSpace=wrap;html=1;boundedLbl=1;backgroundOutline=1;size=15;fillColor=#ffe6cc;strokeColor=#d79b00;" vertex="1" parent="1">
          <mxGeometry x="160" y="100" width="90" height="100" as="geometry" />
        </mxCell>
        <mxCell id="-Eoq_LRY8Kr08JRgcB4u-6" value="&lt;b&gt;Outputs&lt;br&gt;(netCDF)&lt;/b&gt;" style="shape=cylinder3;whiteSpace=wrap;html=1;boundedLbl=1;backgroundOutline=1;size=15;fillColor=#ffe6cc;strokeColor=#d79b00;" vertex="1" parent="1">
          <mxGeometry x="320" y="20" width="60" height="80" as="geometry" />
        </mxCell>
        <mxCell id="-Eoq_LRY8Kr08JRgcB4u-8" value="&lt;font style=&quot;font-size: 14px&quot;&gt;Climate Data&lt;br&gt;Subsetting&lt;br&gt;Service&lt;/font&gt;" style="text;html=1;strokeColor=none;fillColor=none;align=center;verticalAlign=middle;whiteSpace=wrap;rounded=0;fontStyle=1;fontSize=18;" vertex="1" parent="1">
          <mxGeometry x="400" y="50" width="160" height="20" as="geometry" />
        </mxCell>
        <mxCell id="-Eoq_LRY8Kr08JRgcB4u-9" value="" style="endArrow=classic;html=1;fontSize=18;exitX=0;exitY=0.5;exitDx=0;exitDy=0;" edge="1" parent="1" source="-Eoq_LRY8Kr08JRgcB4u-4" target="-Eoq_LRY8Kr08JRgcB4u-5">
          <mxGeometry width="50" height="50" relative="1" as="geometry">
            <mxPoint x="400" y="280" as="sourcePoint" />
            <mxPoint x="450" y="230" as="targetPoint" />
          </mxGeometry>
        </mxCell>
        <mxCell id="-Eoq_LRY8Kr08JRgcB4u-10" value="" style="endArrow=classic;html=1;fontSize=18;exitX=0.5;exitY=0;exitDx=0;exitDy=0;entryX=0.5;entryY=1;entryDx=0;entryDy=0;entryPerimeter=0;" edge="1" parent="1" source="-Eoq_LRY8Kr08JRgcB4u-4" target="-Eoq_LRY8Kr08JRgcB4u-6">
          <mxGeometry width="50" height="50" relative="1" as="geometry">
            <mxPoint x="400" y="280" as="sourcePoint" />
            <mxPoint x="450" y="230" as="targetPoint" />
          </mxGeometry>
        </mxCell>
        <mxCell id="-Eoq_LRY8Kr08JRgcB4u-11" value="" style="endArrow=classic;html=1;fontSize=18;exitX=0;exitY=0.5;exitDx=0;exitDy=0;entryX=1;entryY=0.5;entryDx=0;entryDy=0;" edge="1" parent="1" source="-Eoq_LRY8Kr08JRgcB4u-2" target="-Eoq_LRY8Kr08JRgcB4u-3">
          <mxGeometry width="50" height="50" relative="1" as="geometry">
            <mxPoint x="400" y="280" as="sourcePoint" />
            <mxPoint x="450" y="230" as="targetPoint" />
          </mxGeometry>
        </mxCell>
        <mxCell id="-Eoq_LRY8Kr08JRgcB4u-13" style="edgeStyle=orthogonalEdgeStyle;rounded=0;orthogonalLoop=1;jettySize=auto;html=1;exitX=0.5;exitY=1;exitDx=0;exitDy=0;fontSize=18;" edge="1" parent="1" source="-Eoq_LRY8Kr08JRgcB4u-7" target="-Eoq_LRY8Kr08JRgcB4u-7">
          <mxGeometry relative="1" as="geometry" />
        </mxCell>
        <mxCell id="-Eoq_LRY8Kr08JRgcB4u-15" style="edgeStyle=orthogonalEdgeStyle;rounded=0;orthogonalLoop=1;jettySize=auto;html=1;exitX=0.5;exitY=1;exitDx=0;exitDy=0;exitPerimeter=0;fontSize=18;" edge="1" parent="1" source="-Eoq_LRY8Kr08JRgcB4u-5" target="-Eoq_LRY8Kr08JRgcB4u-5">
          <mxGeometry relative="1" as="geometry" />
        </mxCell>
        <mxCell id="-Eoq_LRY8Kr08JRgcB4u-17" style="edgeStyle=orthogonalEdgeStyle;rounded=0;orthogonalLoop=1;jettySize=auto;html=1;exitX=0.5;exitY=1;exitDx=0;exitDy=0;fontSize=18;" edge="1" parent="1" source="-Eoq_LRY8Kr08JRgcB4u-1" target="-Eoq_LRY8Kr08JRgcB4u-1">
          <mxGeometry relative="1" as="geometry" />
        </mxCell>
        <mxCell id="-Eoq_LRY8Kr08JRgcB4u-19" value="" style="endArrow=classic;html=1;fontSize=18;exitX=0;exitY=0.5;exitDx=0;exitDy=0;entryX=1;entryY=0.5;entryDx=0;entryDy=0;" edge="1" parent="1" source="-Eoq_LRY8Kr08JRgcB4u-1" target="-Eoq_LRY8Kr08JRgcB4u-2">
          <mxGeometry width="50" height="50" relative="1" as="geometry">
            <mxPoint x="400" y="280" as="sourcePoint" />
            <mxPoint x="450" y="230" as="targetPoint" />
          </mxGeometry>
        </mxCell>
        <mxCell id="-Eoq_LRY8Kr08JRgcB4u-20" value="" style="shape=image;imageAspect=0;aspect=fixed;verticalLabelPosition=bottom;verticalAlign=top;gradientColor=none;fontSize=18;image=data:image/png,iVBORw0KGgoAAAANSUhEUgAAAggAAAFZCAYAAAD9xtesAAAgAElEQVR4XuxdB3xVRfb+Xst76b2SnhBS6B2kiggWwLKiiKJrWRV1XXd17XX72tayf1fRVbEgNqQqSpfeA6GH9JDe26t5/9+Zl3nc3LxyXwrE9d4f+YW8N3fKNzPnfHPmzBlFfn6+FS4ehULh6muH33n6jpT0UtKIKyN8x2p12UyP29ifXxBj5Qo71rsS+9hlPgoFegtjT/vaWbm9VZ8L2deett3TurnLX/i9eP5IxbM/zzupbXCFa2/k4Wm/SUnfX+slpe69laanGPT0fU/bcaHLk1o/rVbLkioKCwtdak6lUik1T3s6d0LIppPOEw9n6dnnHekotct0DmrJ00vtBGE6V6AoJShUqWV6DK6TF1yRAld9SG1RSOxjKsNRvwlx7mm7xWVIwae9vd2erFMfOiGFruooZexKqZOzNOKypcwDV8TX07o4Gwu8HkL8KS3VV/gjpbzeIgiusPJknAnHp3CsOGqLlHx7K40ULD1J465tnuT1c03Lx2p36y+lb8V5d+cdnkd7Ly5crQI52J320zxRqdTQar3g5eUFs9ksEwQhkMKOdtZxRFSkkKaeDJrudq7wPaGQ7i2CQPkIFYmjidLTdntKEMQCQSYIrkdPdwgCKR6P+pV4PWwLAI/eE1W9LwiCOwUipb69laY789wV8ZRSr94ssz/m5a5/3dW5Oxh2553+SBDUajX8/f3t85bJYncWBCGgUhSj1NWOFGuA0ILgrmP591JW987yksrmnJUhfF9KGqFVhA1sJxWT0qa+siCI8+UkQUgWxKtMUiierMSlkAJXk9BTC4LUseQsnbO2dUdQ9AcLghB//n/6zYkBG5n0T+JqR0rfO1P+UsvojqLk8ovK6MlqW0odpaTp6TjsqTLsafn98f3exERqH0pN11ukwFNLAc1Hjoszq7pKrWLkQKPWwGKx2OY+rDJBEA7yXxpBYMRDoXBrERFbI4RKhOMnJAl85Sh14kghCK4EujOrgdTyPRV0vySC0G5tt5MDwlOK8peSRiYIno66rul7Uxn2vDb9I4fexESq/JCa7kISBPFcpS0D8itQqmwuA9Z2G0m2WMwwGk3Q6XTw9vZmn5nMJpiMRrS3/w8ShE4WDwm+Ar9ogqBUSiIH4v1pZ9sMXJmQdbnd0s4GmxRlIZUgSJmIzshCb4qvXxpB4MKEMJRiRZTS5zJB6PmI7E1l2PPa9I8cehMTKfKGL4Y8ab3UhahTK5kEXwNS+EQK6KH5SNsHRqOR/dAc5j/URm4N1nppGTkgC4JKpWK/FQUFBcyyLWVSd5QGpUaHNqsG+fUmWKyAVqlAjJ8SvkoTlFZzJ1Ok5K0ETxB2kdbucNfhXMWTCgWbUwdE0TvOihE69QnPeDjMl0yzZjOazxZBX1YFS0sbVFovaGMi4JcSB7VO2+UUARvkgsKlbjGIV/pO69/hbMgHhiMF7WjLwtUYEZpvLe0WRhCE46o7E9fVBHX2ndRJ3UvDrVvZSJkTUjOWPG8dZMj7zNEWAzfDi/0PhP0sxNoVcXBURyn9JB4zzspwZl1yRkLEUEipi/Cdvk7vqu+7M4+kjqWfa7q+wkRqP0tNx/H1mCCI9JIrp3LSFT4+PtBoNMzJkNeNfptMpi6LNuHcJwsCn2NKhRIGk8EDgqBQosKgxr5yMypa22FkJgpbkxkLUSjgpVIgxleB0TFaROvMoL0SKcKwJ0JOPKidEYROZTizLHSDIEC4LyvI12qxoOHwSZR+thZNx3Jhbm5Bu94I+lzt6wOFSgmFRg2/9CTE3HAFQi8ZDqVGY8ezJwTB3Yqcfy8kCO5Whu7ydEcQqGGe7vvKBMG9yO7J3HFGEPicpv4S95lMEKT7YvDe81SByATB/bgXE7bexNjTfvO07L4iCKSD/Xz9oPE6Tw6IJBAxcGZZFcoP2oIgSwPXC9IsCAoFGk1qbCo2oaTJAku7FV5qJYZGeCE2QA1/dTt8vJSgBWOz0Yo6owKna4ywtLdjVpIW/iqzw94WVqwnQk4qQRCmc8rAukEQhA4jPN+2knLkv/EJanccRLvBBE1QAMIvn4CgMUOhi42Exs+H7QGZG5vQkluM2p2HYGkzIGnxTfBLS7SRhB5YENwpc5kgeCaAeju1FNIstcyezB1XBIG2i8gKJBZ+MkGQCYLUsXmh0skWBBvS3t46eOu82aLcaDLCYrYwckCKnh5HskL4mXC7gZwWmRM932Jw3JkKlOi9sPp0M4wWKzQqJUZH6zAiUg0vq1Gkxmw5sAKVKlQZVNhZbMCYGC8M8LHQrJJkTejpoBI32F1+PRGwjvKu25eD3L++A31pJVT+Phhw45WIuWEWvIIDAaXt8Je4TLIqtBSUouybDQgcmYnw6eOgUEoLUOWIaEkhCHwPiqd1i5vg6Jq93R2f0budLAgWi0OPd6mmYHd9xle4jtJ5yuallNXbaTwdc56mdyYMxO0QEwReDvcl8fh4oxug3I1L8es9Ffy9ucXQk3Hl6l1nc0IKVj3Fp7fHtaf5OcPF0/HeHRyEZTsrT2qfS0nnidXAVfvZwpFZrenHFsNGpVRCo1HbyIFSybYWDEYDTCYz2kkWM98hx/qEaSQHp5M4pk4JAr1YrPfCtycbYbJYEeStwpyBvojQdvYxEA8K4cBWqNTYW2ZBtI8VsX6eBzrydMAJBaOUTpMqSKXWo+HIKZx45GWY6hvgkxSHgU/cjcARGZ18DFwFfGo3m1Hx/XZ4RYQidMxgtxEOnVlh3AkXrtCFRxaFbXSGnXhSCcmFTBCkjhIP/H06svRUYEod150IAiOvNiHizHogvYVOlhuiQFvu8uuO4Hc1jnuiCKTKE09J6y+ZILhquxBHd+O/O+OkPxIEq6Ud5e8sR/3G3Uz5u39sdmaFQnk+NS3QmQ9bx9FkLkOcZaZSIuTKyYi+4/pOKQhzclR0ShBa2jV472A9zO1WBHtrcH26D4K8zkesc1aeWDnR3zm1CiQGKOCnlva+e2Ccp+CDSTxonA0yd4NPal1Mjc04vOhx6M9VwTs+Gpmv/BG+SbFdXucEgciAsb4J7W0GaIL8oPHztROCml2H4JsUB11UmMvie5MgCCeMlJU+Jxmsv5UKqJQqVlfKh0xajgSqlHyl4i2FxEjN60Kn83TMeZq+pwSBnEyFJxe6U74jTN0RV/E73RH8MkG40KO5e+XZFJDjKL2WDgdnLk/cldCdcdIfCYKhpAKnF/7R7cLQHR6efk++cMO3fgSr2bYVQQ9ZPNTOCYICn5/Qo6jeCIXCittHhCBc69iXwJ0wsq1SFChtUyHaux1KuCYJvSWMpAoKqeW5TGe14tTz/0bl9z9BpdUi682nEDhskL0K59+lUMUA+SgUfrACptpGqP18YKyuQ/CEYRgwfzbU3jr2XtOZAvilxLsMg+wJQeBp+d0LfIvBUf85cmgRT8JOWxQdBIG/x08xSD3m6Kg8ZwqGf95fCIKQ9EhVgFLHHG+rp+ldzUnxmGF/066gQsksB7TwsAdIcmB67E5dPCEL3RH2rua6p8KyJ5YCZ2W5ytPVd+6w7ilWnmLTW+lJdtAxPPuxaDZgz0ff7DQeAagUKpgtZuj1bexsvqunp/0nxFxqXlLSOZVXgsboC8/hzG1P9hbM0vNRKjF8xyewGIxsYcC3I8hh0aEFocqgxn8P1MBitWJWWhBGhZNacd4xrgYyN2NaqJOtamhhcFlxd5NCaqulTjyp5blKp6+oxv7rHoLVZEbcHdch8Z75dhZo0RvQfDIfDdmnofbzRtDwdOS9thSpT9wNn7go5o9A+0Tla7eibudhZP39YTZbmIMYnUf1sp1sED+ulJGj7xw5pJEJyd3DhZBLgiAKtmQLwGGLxiVlwkmZYGKl11OCILXfqVxX9fu5EQThaRU7aeww/fNTC64Imye4uRpbzsZvT5We1LHUHWXubq5cyDz5uOxpe7vbpu6+R2fzKVgPbWdxSyO1gcalrS1WqDUaRlh5G2msUFr6oXP8zLveyXZVT/GQIq96k6AIfRMuKkHYTgTBwPqAY8u2oB05KX5+vBVnavTQqpR4eGIoNDhvenCmrJyB1un4nEIFWLufl7tBKRZswr8dCUax0nEn0Bx+b7Wi4L2vUbzkSyi9NBi94g1ow0NYUop5kPvKhwi+ZDiCxwyBuaEZ+a9/guSHb4VvfAw7BtputkCpUbP0xUtXInjsUPhnJLtrqtMJwtskFuTCI408jbujjUIh5IogCPMTTmYxQZC6xeBMCUmZvFIFhCeK7pdAENiuZUd0NS4kHJEjT3BzN58c5SUTBLdT356gp1hJL6l3UnLLAdWbW6m4TGin2Ckd44/GBaUVyw9+BI9/LlyI8BpKnf/OWiRFxvyvEgSzXs8s1vxkHiMKYoLQrlDhhc0VUFqtuGxQKC6JoVWmZ1cl90SIiJWWMyHiqJP44HA0SJwpQ2H+UustTGcxmrB/zv0w1jUgfNYkDHp+MRQdK/OKddugi49G0JA0u0XB2m5h+/UUPImIRbvJzGIhRF5+CVoLzqFq2z4kLJrndAwKy3al4DulE4RU5p9LIQdiBWHHlQZOx2kM8SrUTipECsfVdoO4v6T0iacWBKl961DQkECTeA8Bf9+dhcedQJNSXylpHJFgXjd+UoZ605H1wBO14EqwSq2nJ+U5S9tTBdHT913Jpe62z1ksCqfzs7sF9cF7fN6TtZIC8dBYIC97HsSH/qY0/G+Ov1Cu8GqR6VujsYUMpocsCTz4D/1N/xcTi8ZT+dAE+UMXESqpdeJxTKvqxtOFCB6ShsptexEyMgtq8hcTPM7GTPHKDYibd5k9ZXNhKfxT4lH49feInzeTfS58lywIpy/SFsPQn5ZC2RH9lh+LZLJDTBBMGj88vy4X5vZ2PDwlFlHe7h0Lxcj3RCD0hCCQc8u76wswNDkUEwcFdAJfCkFwJEwdjSph+4y1Ddg7dzGsRjPSXnwAkbMns3INlTUoXf49kh9YaIt/Lbq22lTfhLK1W0Ceq5bmNiTddyMMFTXIf3sZ26LwiYnq4shKWxnnvlwPQ3U9ouZMQ92eIwgZPRj1h44jbPJoBBIRET0k/JlJj5ffYZpjE7WpBWp/X/adU4VraUfN/qMoWbkRushQJCyYg6PPv4FRLz8Ota+3vTRuIhQqRsqTJr6jPW2pY8RZOk8FuZSVgdM8u0EQCBgpY85ZmVLwkZLGFUEQ1k8mCLah7Om4kqJ1epqnK4IgLN/TQGRS6t7TNGyMUrRdndYWvrfDAZZvL3By4Koc4TgnKwJtU9Bn3A+K8KX8SNbo9fpO/Vh78Bh04SGo3XsUTWcLkfHIXchdshym2gbEXD0Nhcu/Q9aT96D+yGmU/7AdAx+8BdXb9oOIRfof72ILob33Poex77yIk699iKRb5uHskuXMIkykozm/GP7pySxSbs2OQ8h86l7U7c9B1fYD0MWEI/6GK3Dq9aUIHDoIwVmp8BuYiMLlaxF//ewuTdYXluLUIsc+CCGTRqLpRB5MNfXd6hKvqDAYK2ocHmmEUokh2z6C1WgLqCS0IHYhCKfqlfh4bzFTTk9eGg8flestAXcK1NPW9IQgUMPqWq3w0SrhpexMbKQI6+4QBH15FfbNe5ABP3zp3+GfnoSmE2ehL6tGwNBB0IYF2ZSzmCA0NqP6pwNoOHgcXuEhSLpnPhRWwFBTh9aic+zoSvCoLDt8huo6ZN/3IiLnTIdPQgz5maJ68x6ETx0LTaA/OzlBWxUKtZo5QdIJCiIvMJnhnxzH6qCvqgXlQ39TZKtDj/4T6Y/eCb/EAWwS1x/PhXdUGBv4fFIWfb0eRcvWsolDpCd80hjsvuMxjHn7RWYFobyUKhVay6vQVl6NkKyBUHhpoK+kwQgYm5rhQ9spVisa84rQbjJB4+fHyiF23nS6kIWc1gT4ORwqF5ogCIWsfczIBMHtNJYtCM4h+kUTBCjgpfViTok2zW07RsutCPTb2aknjigfW4QjzUl2/E7g90TbE2Tgo/DCbPvC0s6cGinfmgM5jCDQibGaXYcRNmkkSr7+AemP3IH8z1Zj4N3z0VpcjvyPvmFO4XR3gFUBBGakIpiOqAOo3nUI/ukpaCsth19yHCq37UNLfglLQ4sy2p5ryDmDiCljQPqgctt+xM+/AvmfroKXvx9MLa2MQCQtnNNtghBxxRS2EDSWV8MnOQ4Rl1+CttIKVK7fjriFc+A9IBIF732BATdcCUtrG0qWrUHU3BkoW/Ejwmdfgvib5qDok5WoWLu160AlgrDlA5A1XKwDuxCE7UV6rDleCT8vNR6bHguNwr0FockAHCtqhKkdSI/xQ2SgBtRpvDCrVYGCagMKK1sRGeiFlGgfaJTnty2ow6uaLDhW1MCCMWXE+iHY1zYIjJSN1Ra9UW9qhwJWGM3t0Gm9kFPYiKY2M9Jj/RBBZVos0ButIAu/WmlbwdW3WnG0qIE5/lG+YX62fJv17fDWKqESHDel+lPQKW8vBdpMwP4zddBolBidEgS1oL5CYWgoq8K+ax5kbR2z5v+Y/0HTyTz4pyWxcMp2wIUreADmllbGamu3H7QTBCGJaThyGgFZKfbtivLvtqFy/Q4M+9cTtn0iqxXHn3sT4VPHMKIRMX0cqjbvRWtpBbvrQV9eCb+0JGZlGPHWM/BPjsWZf38GU0MzC/sc96vZOPrEK4iZNwMpd92A7Cdetdc98+l7ETpqMPNq3bf4BaTccyPCxw5lxxnNzW3YdNntCB45GPqySgyYMw2xV0/HyTc/YdslRE7Gvvsits65F4GD09B8thiJt8xlZKB6VzaUWjWrQ9Zff4cDv34SwWOGoenYGQz71+Pwjo5wqYikrpgdZeJqS0L4nfD/UqwOwrL4CRGxYHOrXd0kcNZuqXgI03ELDxewJKyFvgc9rWtvvC+FFHraN1Lr1VNl7snY626dpODTF+1w1zY+tnjZfLVP8p35C5gtjBwILYvcuujMiumorcIxzN8jp0aK/kdhhslqSsSDHBor92Yzy2f1jkPstyYkEBU/bEfqfTejZPUmJC64mi3Izn23DSl3/Iod9aMj6DX7jiJ09BB2yowWdzkvvoVBD92Gs0u+QOo9NyH/428RmJnKLLe0EKPFUVBWKvTl1ShZuQHJd1yPvP9+xawLpAu0IYHQn6t0QxDO4dSiJxwOCztBKKvCwKfuxZm/voOMP/8OxZ+sZNF6Y+bPRktuEdMnRCCsVgsiLp2As699hNhfX4OgrIE48tu/Msf3Lk8HQSD5zR/7Vk9hYWEnB4OD5SYs218Cf60Gj18aBy+Va/+DbTk1eG9DPgYOCIRarcCpkgZMTgvBHbOSmGI3WFR47OMjsJqtSIj0RVWDAY2tBjxzQyaigjV04zSW7yjFun3nMDgpGHQU83RJPRZMjscVo6Ox4XAVqhv1MJjbsTmnCndOT8DybQVotijgbS1EqF8zcsoTcf+Vg3DpkDAs35KH1Bh/jEmPwJq9lfh8RyHS44NBuvp0cQMuHx6Jm6cl4PfvHMLvr89AXJhtP4uercfqcKK4ETdMGoA/LDmI8RkRqG42orVRj+cXDYFWI1D4He8YK2uxd94DdDYMo1a8Ae+YCObkQavqToqigyBQvGw+qFvOFKL48++gjeiwIAjuchBPjKJla9CaW4zM5+6355vzzOuMIFRt2oPImRNRuXEXwqePZTEUDj/wZ0xa/TaOPP4Koq6YgvAJw1H2/XYYa+pwbs0WjHnnRRx86M+Y8OkrMLfqsfnSRUi99ybU7D3CBn3qnb9i4Z933/0URr76BHwiw2z7hy1t2Dr3Xkxa/jrbeqjYuAuZT9yDsu9/YlsfxMRnbvsUm2bficmr3kbJqo1s0pASIiuBNjoMdXuPIn7hHBxa/CJib7oSZas2Ie2ROxAxdcwFIQidCQEJLKmi2nU6Lrh6J7fOuTgTlFLKEr4rPs3CVlwO7lyQkq+zND1V3o7aKlZ4PS3DWd37QrH2RZ7u+udibDcI28mvF6bPSFHT31QnUuS2I4t6Zk0gpW4mxcTi+9jM2+JHCkHmlgUiI9ySYDGbkffFWkRNHYf6whJmXaWVtqG6Fn4JA6CvqGHymuScRa9Hw/FcBKQns5U5CYWgYTYLAj11h08geHgGDDX1aMothG9CDDthpgkORLvRxBZTGn9ftBuMoJg4zQUl8BkQxWLZ1B06zsr2H5jItmXbzlXCOzq8SzvbCkqd+iAQQTBUVLML/6LmTEf5txsw6LkHcPThvyHpvgXMkuDVYa3WRUegdm82Un57G/Lf/gyhM8bDPykOZ156nx2p7/J4QhBqzTo8vyYH3holnrs8GT6OT9mxMsrqDHjgzR146TfjkRxtc9xoamvH40t247pJiZgxMgZ/ePcA0hNDcceMRCjJhq5QYvWeUqzcWYB3HpqI7LO1+OfXR/CfByYhwEfFwkYWVbXg2Q/34+mFI3GmrBGvrz6BoYkheGL+cAT7aXDlC+txTeYpPDVrLbQK4EBZFO5YOh/fPDcbn6w/iqyEUESGB+HRd3fi9fsnITbERgJqms144r09uH/eYLz01RH89fbRSIjwseP1/cFyHC6ow6Bof5TXtOC+OelsQG/cfw7jB4fDR2tT+sIBS/v4e6++j13ENPg/zyGowywlXrXxLQZOEGhQtRaVoXjZWqj8fJB8z3yofc7v6YsnBZnH8t78FCOXvAhVR6yE4y+81YkgVG3Zi9gbZjNFfPjBP+GSlW8j59nXETF9PBqOnmERHslH4tTfl2DU/z1nIwgfv8QG99bLf42R//c8i8OgjQyFT1Q4Y9KH//gSgkdmIenmq23mQUp7/QOY+s2/UbM/B+fWbGYWEFN1HWKumoaDv/8bZmz9FFuvuQdT1yxB0Tc/oLXwHELGDcXpl/+LkHHDEHfzVYz1Hnv6daQ9fheziPglxNjCUbt4pK6YHWUhFDxC4dmbwvvnSBC4J7g7hePJ9z1V3jJB8ARtx2kvBEHge9VMpvErhCmqn1Jh9xPgx501ag3zP2CLI7qHxmJmWwX0w48uElGg64alEgRhOj73yJFRrdbY/K4s7Wg4lYegrDS0trZKuiyuO2O3N2QI4UBOiscpUJKDxysiBP5ZqexkXGP2KYROG8Pu+om7ZS4aj5xGxOzJyP+/z9hWs5kIysl8+KYlMtJA2x4kn/0yUlG/54hnBEF83bPZqsID3xyDwWLFP+dkIEx3ntGJJ+7Lyw5idEY0pg2PthdKYNFWwlPvbsO7j1+JRX/+Hp8/O6uTid4KJZ797z4suDwd/1mxHxT7IjyIK0dbzIWzZU3IigvG0LRIvLfuKL585gqoVeSYosY1T36L5X80IdnyHqD0gkVpwX2fzMacyxdg//ECZCaE4vv9pZg9NgkTsiI7AWK2Ktm2xeJXvsef7pyE+PDzHqnrD5TicF41Zo6Iwz8+2Ymnbp2A9IQQZjnoovA7ciUnw0O3PYnWMwVIfOgWxJIiFZEI9q7AgkBsuelUPmq3H0L5qs2IWzSPbUfEXDPDXlcx1hRP4fTfl6C1sBy6yBAEjshEa1EpQscPR82OgwibMprtsQ2YOx1qfz8cffJVjPvwHzj50hKETRyJtuJylK3fwfb+yQ9h2D8eAVkgNGHBGPT723Dy70sY89VGhiH+htkIGW5jz/U5p3HkydfgmxzLlHrW0/fh8KP/wIT//g212adQ9uN2+MZGofzHnfCOjULDkZOY9M2/seu2xzD+43+idN1Wtu2gjQ5HwbtfIHB4BnTRYUj69fU4cPcz0A2IYNgM/O2t8ImNcikcekIQhAKzr4SnJIIguspbLOSkqAaOg1Q8nFkQ+Iqtt/HojpCV0u4LkaY3hL24nn2RpzsshJfIOUsrXqvbzfX2mAS2N/nndkLQ8T2Z8WnlTlsJ/ISCUPbxdnOveGapomBc5MDbEeeAxzcQnmJwhZdU8khWBFYOC9TX2fmU8hfecCh1HjnFUYIJ0m6yFziEc3lB+NGPoagMh371kLuu7fS9/+BUBAxNZ86UJZ+t8ehde2KRD0InmSQmCKSs/7qxAEV1rbhjfALGxZ5fYYuBvPGFVXhl8QzECpQsZW4wW3H7cyvwwn2X4estp/H4wtFdjkp+viUXXiollv2QjWdvuwQadYdJ3hbYjR2s9NFpcCivBiXldXjgulG2DlepcfNjy/H+c7OQYv0LlMbTsCgs+P1X0zFx7I04kVeCjKQovLfmCP65eAZCA85vIfCGE9td9Py3+PN9MxAnJAj7inAwtxxPLpyAnw4V4d8r9jG2++B1ozFpRII9wpQYh8ofd+L0M2/ALz0ZQ995HkqtzcvWXp7YSVGpRMWPO1G1fjvqdmcj8b4FjIHH33yVoM+6hiElMqKvqWPOgV4hQczRkMJkkvcpxWCg/TO1jgKRqNhWAJm8aPtArfWCUq2CvrLWvqdGVghzWxtz3vGOCoVKpUZbRTXz1dCFBdtjM1BnWFr1MNQ1sOuoyeGHrCZeAX4gE57VYILKWwtDVS3UAX6sDmQR0VN6X29Y9EYQucl56jUk3X0DlDotshe/iIlr/mOrU3UtVF5e8ArtcOYUDXEp5kVX/gU8O2d+Bt2bUY7fkkIQnJlRhcLMXZ2cEQRn/hNCDIXBsYTHmbqjxKSU15183bVf6veutiWk5NFXde+rfKW0SZiGSAQnCfzYMgUpIuVKipyUOI0d+s1OH3QE0WGnESwWtiqnz3x8fGwnFAQBjOhz+9YVbR90xDjgPgcdWpuV78kWl1SCwEkBpae6kaMkWTH4YzAY7Mck+4ogOCPKHBtOrPicbMkvxqHrPSMInva5w/SeEASq/KFzrfi/HYUYEKjDs7NSoOxgfWIgn3zjO/xq1giMHNR55VdZ14L7//QV/vbIdXj+vc1Y+sxc5lx4/lHg5eUHMHloLJZ+sRWvPTUfXmp+8QS/MMZ2CcXKn06gpq4Zd849TxAWPPw+3v3LLQj2VcLXehoKhRHPfVqNMVmpyDlbjqyEcHy1MTgi69oAACAASURBVBt3zBuHIamd60bBOJRqDR576Wvcdu0lyEw+f9/Bik3HcK62GQ/Mn2i/fbKuUY8b/rgUbzx+HbKSbGnFOJj1BhyY+wBbgQ9Z8gLzbHVJEBQKVG7eC1NtPTTBAcxEFL9oHlPM/HF06oIIAjliKikEpuh2LjaRO9iyWFHR50QUaM9MwYmYiFU7jYsgusXR2WQSMnUeatnunWy1Ivc/n6N+/zFmLQgYmsZORUiZmM7SOFNOwgnQV1sJzialTBBsyPQXC4JMEFyrDyFBoJSksEjZcxLLxzOLZcBuDjwvYyh9S0sLU+6+vr72WAa8ROGxWStdHd4RIpnnzcmGK8LsqPaeEgSeB7WNTlLwo5H0OVktqA09fZwRPmFdSSbaLmAkwqWw33VAvhnsVIZSgbb8Uhy8/rc9rY7n70shCMJcKRjFfV8dRV2rEU/OTEdGmGNHhFNFtXjmX9/g/b8sgr+3F8vCYrHib++tR8KAUEwfPxiX//FTvP/wbEwYwi8uUiC3tAF/fOVbfP7SbfjpwBms3XAALz0+Hyq6UU6hYLdHPvj0R7hjwXSU1Dairq4Vd147juVPFoQFD/wb7/zjTvh2+ATQ4Pv3F9swOisZR04XYWhqNHRaHf7z2Wa88fRN0GltkQop32dfW4FLhqcgNSUaj//rG3zytzvg76tFbUMbfvPMh3j1yYX4bOU2XDppKMYNTmDv/f2d7xAbF4FbryJLSOeHD4Ly1ZuR+5d3ETAiA4NfexxKnQ0PVucOxS086khHY9pbDTA3NEFLxwrp/m2B1UGssMlT9uijL6H5VB4CRw5mXv9CR0hKzye0WFHR33vuehoD778ZISMy7fWSoqA7xUh3cqe4sI184rNjRmYLszI4fARtdTWieR27s+rqbdO5u5nHcHeWqKO9F9uCIBxXQguCu7Y5+l4KSetOvr31zs+aIIjN1hLniyfYdbIgKBRsm4AtJsgy2GEBYFYBJndVbF9frVLb5VRbWxtTutx6wGOeUB06WRA6rASO5rKnBEHYPk9kA19AcYLAf5OzZE/lhCvZROXa2gh2+RE5ZVJ5fIuDFsF0aRURBWNxucdbDJ70t9O0SiUGb/kv2o1dZbXT2xxPVJnwpx+PI9xXi39enQGtk9MMn6/bh/eWb8Xt109GcIA3PlqxHRlxEXj299ejrLYF//58B8qKKxAXH4EZY9Ow92QJftx+DG88eQMyEsKY/8Hf3l6NXTkFuOeGKWjVG7Hki6246cqxuHv+NHz940FU1jThvpumsPYplCrcdNfLePeNB+DXofgpyt3by7ciISYERefqMSQ1EpNGD8J/l23B1xuzcfv1l8BLo8J7X/+EaSNS8djiuWwlvvy7fXjrgx/g769DW7MBL/zhBkwdPwi5RdVY9Lu38Md756JNb8RL73+HzZ88hSB/m9LvYh2gCWGx4PijL6Nu50EkPnALBtx8dadVPhPMLia5+BpoMVkoXv4dO2ub9sc7mYmfvGBpb//cNz8iYEgaIqePR332Sah9dKjaug/+qQmImTWJOSCWb9zF6hI6Zgi7TKroq+/Zmdekm+fAYjKi4KNV8I6PQsJ1l9usE67q6eKkhXAA0qQg1mwiD18HR2ukRnL0RAhQ+T2d7L0y4RxkIrSwOBMonmIihVjx8cpJo3AF52lbpZK0C2FBkEJuu1NfjonUdz3FUJzeWTnCcSy0Dkp93+N6Wa3QeusYASBHQdoS4A6GwrzYBT4dJ7GcBdoStkkYQllq3aViL8WaICYUHEvuIMkDKznrd0/lj1gG0t+EE9+Gofw6+13QvTW2O2va6xpx+Or7LvhtjrQVPGjVW1A4OkHi6C4G3sjl2VVYnl2KiYmheHR6MqyWrh6mlGdReR32HT0Lg9GMoWnxyEyNglqpQlFlE5au2oVHFl2K3UcLUFhej0A/HaaMTEWw/3nfALK8HD9TioMnS6BRqTBmSAJS4iKYPm1us3m2BvvbnBgJ7KLSGsTFhNpjLdDndU166DQqGC0UM0EFb62KWXTOFlZh39F8WBUKDB8Ui4yUaLsvAb3X0KxHfXMbQgN8EeBnC+ZB7xWdq8H2A2fgpVZjypg0RIT62/teODGEg5QUd87D/0TLyTwkP7wIUdfOsN/G6I4gMEEuGF1iEkJOjUd/9zfE3HA54hbMYU6Ne6/9LZJ/twjFH69E8m9uZOd728qqWIyDwo9XYuySP6Fq1yFGLOoPHUP6I3chb8mXCB6ZyQIphY0dypwJk++8Aee+24LomZcgcf6VneaxIzIkRfgIVyB8Qgjf81QZShUaMkGwoSzuN5kgOB+1nioaKeNfahqn41oorJ1cTMRklQQHOal1YRYEhRImy3mCwOcxz8OZlZLXg6+YKb0wgqqjeems7lLb1J1+4/UnPwumrMnK2RGzxxGePSUIdCrP28eHbd/whRLJPv5/HiOCLApUlrm4ApVrNtv1ELl00g9t09gegdeI/Q7Fjs8EDtA2DNmehv0dslacbw85jFphVSoROH0cvGJI33a1fzq1INiqosTSA2X4IrsEU1PD8fDkxPOBkzq7FHQZg2RsLapoxEcrt+Opu2e7XJXazOO2FXa7xfm10rwQbsamd3hAJkeTQMoqg9KQgx6DUzBQeH6mditsVOO84HWlNE0NTch/bSlqNu9B5LwZSKDji34+dtbtcrIKtxhEK3Vqc0tBKUo/X4eW0/kY+MQ9OHTn0wgeMxTG2nok3DoX1dv2IfKyiYi6bCLOLvmSFUUBlob/4xEWHnng4oU4+eoHuOSzV1iEr9biMmy56jcImzIWpvpGREwfi7S75ncSOnxCcaUjnjCOJrNwlcoZMx1lEqZlBIEGsXBQcmHHT3x0bJvwiWsXMuL3bAlYe4V3JvQnE3hvWhCEY8jZGHdGEDo5iUnVHFw0SVRGsgVBOrDuzNPucpKqTN3lQ+OTfAnoIWXFST2zBAosgLR/TnNWKBc4GRBaFrgPgpAkSK2r1HTu2uTse37ygn6T/jBT8B0nY5wTHq5z3JXJ0/E2+Pn5sS0Y2n7hESB5cDIhmeLf2fSRyh4Nkm/b0G/+EOlg0k4Q4ZUTOTF2wrnoyE+My1Rn7XNJEFjHQ4FNubVYsqcQkX46PDApGYPCvTspcofMAwoUltfhw6+34enFc5hjhrPHYFHiaFkrhsQHQ2ulKydtzhwUM6FVb4CPVs2cXNqM7fDXqdCkN6HF2A6FWoMAjZXFbCDLAaXRqOkqURt30hst7N1Wg5n5K7RbKYKiCQHeGrQa26HT2PaMN5yqQ1ZsMEJ1tpUXRW00mC0oqjPhaHENpg4KQ5gvnUzo2gJHbadYAdVb9qH0o29ZG6J/NRNhM8az+AR0WkH4UPQq+owsAsLvhHhRGc15xVD7+rAY4tmLX8DoL17DwVsew+BX/8hOD2hDgnDmlQ8QN382QoZloKWwFAfueZ6ZCqd99y52LXoUgx66Hade+xCDHr4d/im2cMvbb3oYo994BrqIEGj8fFg+YvMmb6NQKHASIEZEvOLg+5P8UhUapOffpaiXNv+QTle/dpylJpZPzJsLIC60xKsR4SSmvO0Tgby0OYl2N7P7+PuLSRCcnVwQNrmvhXIfw9uj7J2RrAuNCZNGDmSMK6Hfkz4UE2jyJ6D5xsg8rLbIhx1XtwvLEZMD+o5/JpyLwjlt02fSIpJJTdeTTicfNYq6aKTARmYTO7nBFTNZFGzk4XzURypLOIfd4U5p6VIpHiBKSECEWAllK1lvCHeOFZXPQ1JzksYVOa+fkIC5wkNMDlhMm472uXrPLUHgnV/RbMbXR8rwY241MiIDcHV6OJJDdAj300LDhLgV9a1GmKxKZur3VVrIswWNLa12B0ZnFWk2AdmlLUgO0aJFb0SzWYmmNhNC/L1R29TCYh8UVjUhNdwPEcE+OFvRhPhwP9Q26hEVpEV8sA5rj5Qzc0qgnzcCvTWsLg2tesSH+YECIGZF+WBPQSPzPUiKCkZlfQtqWgyYkhqI1UeqMGlQNFr0BhwraUBcqB+81QpsOVWBiABvhPtrER6gQ1q4gyOTLoiPpbkV9ftzWLwDimClCQpgF3hQ9C1NWCA0/n7Q0t0HUWHsmKIrglD+/U8oX7mJTbLwGRMw4FeXo+TzdajZfgAaP18kP3AzqrfuZ9EIA1IT2HHDo8++wS5zSvjVbOT89W0k3ngVCyua/+lqRlaGPn0fag4cQ8GytdAGB2DQg7cgcFByF4LA+00qQRBbCvhA558zr2i+j6mi60XPr1JsCxSlPea6cCuCr2bEe6NCqwZn4Hzc2lYyFrRbbD4RUqxKPRE8zt6VCUJfoNo7efYbgtBDR0RPFWsnggAFNFoNtBqt/Uij0JLgiCCICQaf03wBID6+yFe97nrN03a4y8/R90QI6IdIkNFkZMqcCAKvuz08tODGSGcEgdpps4LbLCs8rgH95g6fPC4DX8AIrQdcVgkJAl8U8bsq+AKL3ueE35nVgL3bEUKdtf38LoP9/84WeGKsJBEEO/sB0GpW4Fh5M7JL66E3GOGv84K3RoXoIB9GFhJCvOGjcn9/g7AiTUbgXKMFQd5KFFY3o81khZcSiAnxRXObCdWtJpTXt+KSgeGobDbDZDIja0AA2owmHClpxNS0EKw6XIGh8UHw8dKgoKYZTS0mDAj2RlKUP7YeL8dVw6Lw0+kaRPir4efrh9hgLT7bfhbzR0djXU41pmRE43hpA4wmMyKDfJAZ7YtvD55jhOX6MXE4VNSACUkBXcaaFBMv6zC6KctsYbc3ksMgnVoQkwJXBIGZkzpiZdN79j6hz5QKqGhPjVbPzNvYdiKCBUvpMFmx8M80iGkF3/GO2svmdEl1Y169FFxE4dzRTypBEAsTrtj55zToKS/hpLGTBn58k+0+dD5WRe8Lj1Dy/IRWCZo8/N54oaCh/PnZ5+4IlJ6+0x8Igti6I2zThRDKPcWwr96XCYJtdU/zkawIhAddeGQw2mIFCLcYGhoamIUhLCwMhw4dwsiRI206SLjt0GH6Fq5QTc0tKPthB2KumAKVrutCi/dt3tJvMWDOdBZSOCAjxWmXs0i0pRXwS7KdjqPyv/vuO8ye3fWWxAMHDmDgwIEICDgvv7mc4HOC5iet9rkpn2QIt1TSZyQ7hIqZV6ysrAzR0dE2a4HWi5muyQpA1iAu94Rl8brSb0cEyy7XrVZUVVUhKCgIx48fR1JSUqfjp1zm2YNQUYwKge8RvzWT50f45OfnIzY2lslHqfNdkZ+fL83u46CrbNYwGz3p5JLgKRNWqnCuzoAQPy80tBnh761lYZl1KqCswYiIQG9sOVWLQZE6xAXrUFjThqhALSMSdCmTn5cCTUYr2zaoa2tHfLAWWrUSJbUtTNk3tuoR6e+FNlM76lrNiAnyhlKlQEOrGb5qK+r07TCZrfDR2YDz1aqhUVhR1WKGr04DnbIdFIFRfEOksLPF8IiFjpSVq0uC4AB/R86STNEL9u6FStSdaVA4mBzNTPGAdqZgxOxU+DcnAtwb2uaLcH4ECcvg5jThpBGuToSf25xAbZ+olKrzjL7DbMsJgjCCWl8pHEf5OiMInbbePJ03ooKEY0xouhTjdyHbLaUssbASWoSkvC9lbknJ52KnkdIOqYJdaluE+dGVzBRMiB/WJYJA4Y/5BUtcmX700UeYOnUqBgwYgMLCQlRWViIrKwukLOl3Xl4eQkNDUVxczJRuSkpKh9XSB8EjMtFw4iy7CZGIAt1TQLcoUqC06t2HUblhJwY9cie740UbFozwSaPYzbCNJ/MROXUMWssq0XgiD2HjhzGHbArCFjwsnZ2+evvttzF06FBWHinWgwcPsjqePXsWQ4YMYb+J3IwYMYIpy6amZkyZMpkpzH379mH8+PE4ceIEIiMjcezYMcTHxyMuLg7nzp1DTk4OJk2axEgRtWn48OFMxpSUlNhxKC0tRUhICJqbm1naPXv2MGIxccJE9h5pydGjR2Pnzp0sXUtLM8aMGcvwiomJYXWgsglDeu/111/HLbfcwtITccvIyGD66dSp0xg4MBUREREsHZVDip8IEJEJajMRlvLycuZPMmrUKBw+fJi1k4jSyZMn2fBITExk6alMIiCOnh4RBGeDUMpAlzqAuVJrV6ihaO96iqJzPgo0mQB/Tbc5j9NqCZWxMJFUC4IUTKQQBGE+jurUGwTBWVud+SYICQAXOGz1QG6utK/WsffIBQy3HjALgWDfjXB1Zvrin7PfHfk6Su+q/XwlIHT4kToOe5rOKUEQ+aT0pBwxQRCafF1h25Mye+NdmSDYULyYlgwqmxQfM5GTX5ACTJlyJznh/CsoyMeaNWtx//3344svvsCNN96IlStXsjZcc8012Lp1K1JTU3E27ywumXgJ+7xy+wH4p8ajZNUmxFw9FdU7D9GmPlP0Z99eDmjVyHr8HmQ//jLSH70LjcfPImRUFiq27EbYhJEw1Nazn8IPV2D02y+wO2HOvPM5omZegsCMFFbvd999F3feeSf+8pe/MMU+a9YsVq+0tDQMzhqMHTt34Kqrr8ayzz4DxXC49tprmWImxfnBBx/grrvuwrp165CQkGBXpjRv6fuKigqcOnWKtausvAzBQcFMwW7btg3Dhg5DTW0NIyWUfsuWLZh52Uzs2bsHkydPZnWoq6vD/YvvxzvvvoNFixZh9erVjICQUj9z5gxT6MOGDcPGjRuxcOFCZr346quvMHfOXGz7aRvGjRuHFStWsLpMnDgRS5cuxe9+9zs0NjYygjEwbSC++fobXHbZZYwMhIWGYcjQIYy8kbXnww8/ZJYOIkdUl8GDB2PDho0YNnQoNmzcgJtuuunnSxB6Qwj1NA+ZIHTeenC23dBlX0xhi7vOhR9zAOrwMfCEIPD+48pE6HgnFF5inwX+Hk9PjLo3gqN4Op4uNkEQkjRP697X6WWC4IYgtNtIMX+kLDa602fc8kjHHcl0zR3khOSSFBcpJVoRT5kyhSkqUi6bNm1iq9krrrgC33//PcaMGcMUEa16hQShdO0WJHYc0y7btANRUyewluUu+Rwpd87H0adfQ8YT96Bufw67+K4u+wTqDxxHwq3z0FpajoIPV2Dkv55iHvyNp/PRnFuEuOtnMflCdSHl+sILLzBLwsyZM5nipRV4VmYWNm3eiCuuuBLr16/H3LlzWTt8fH0Q4B+Ajz/+GDfffDNT3AsWLGDk6JVXXsHTTz/NlHJubi4jCeHh4cxSQituWrVTu4cPG862PtUaNbO+EEGaNm0aNm/ezJT57t27maImArJs2TJcceUVWLVyFebNm8cIASluCltNJIBHfCT8P/n0E/zq+l8xrEmxE2GgeAozZsxgflvsJkzaAjJbsGbNamYtmDNnDsMi90wuMjIzWB+uXbsWl156KSMzZMEgqwfhs2vXLowdO5b1D1koHD3MguDKbNXTwdjT94WV7s28ujOB+DuOTPvi/JxtMbDPO0zJzoIjUX8Iy3BGTsTYcKUt/C1UTOItBuGemiPztLhNzsYJIwUdTjH0f6FvAd8moPydbVEIy3Y1Fvm+m0NsO04rCPc9hc6Q1BZ+ooKvjFhZLi5P6skYoXcd9pujI5o9LUiwByweE84sMr1QpKQsetskLqnQHiTqLzJG2ARnBMrV/OxOO2i+0NwlgkDKhuaJozJMRiMaGhsRHBzMFNCxnGPIGpzF5jeZ5mllTYqZviOFRg/d+UJB3Mh/iq6U90kcwLYQ6g4cY1cuU+C3mj3Z8I6NhC4iHIaaOhjrGhGYlYrW4nPM/4pOWGkC/VGz+zCCRmYxXypLWxu780Wl06G8rBxRUZEoKChAYlISThw/zlb1Wq0OOp2WKfPk5GRkZmaiqKiIhVkmcz491F6yEMTHxcPbR4fTp88w0zz3ZyI/BrJE0Hu0PRAVFcXkSW1tLQIDA9mKn8sX8tOgz7Zs3oLYuFhGkmj7gUz/9NBWAlkiCGciG/Q5vUvY0VFT2iKhSLR5Z/MYfiRH/P39mU8Cbd3wbQQ/fz8WiC47O5u1ifKj76h+lA+9S+OAtoHIKlJTY7Ny0G+yoNBntN1AVgyypMgEoQeCQ/hqXxMEKsvdVoIjQiImCI58EYT5ClfhPD+xIncGmdjkz9J1LHL40USehpcpFHRSSI+4bGfviAWocJtDSIr4BKaVDgm/7ghRT4ZQd9roSf7iceKI5MkEwTNE+3pMeFYbz1I7I+BSc5FKEMjhWRhvhPIXHz3mZboiiL1FHm3bjg4eFuLY9g2Rlf379zM/A3fylcYAyQrhdqW4ffykAm87P8nAyutw9D6SfQTDRww/H9uoo4qUhp1uIFKhVtvjI/CFIZVLBIH8P4Thq3kL6XthnApHWPfUKmfXB7IFQer0OZ+uvxAERwpBbD1wZsmg1vSEIPDb3cjUZZ9wHdsJYsUoJBMcRUdlu+sJqb4RUggCrRj6+pEJgvSz733dF1LzlwmCewvCz5EguOp/cWwa7jjMiEJHED8xBeEEgvLl8R6USgWLxUPv01FtK4uBaDv6KFbYdPSaQiwT0aB4DORYTQ9f1JF84ls84ngFXJ6KSYuwjF4jCHl5eb3u0edskvXm5OvNvKQKDyGDszMsF3cT8DqKTfvuthjEDNdZWx0RFTFpcGRFsGn083ey8/J4PcXBN3iewrz4GWeelr1Lxy2VnS+d6mRp6GDzYksHZ+F8UAvxktLP4jQ8H769IWwffUZ15ueKhRNcPA74++IJzpm+sL7id53Vm73jJGCMWFBJGZeOSKLwvd5apVGeUvMS1knqO1LaeiHSSBlvF6Ie3elDV7g7suIJy+BzjhQWOStyHwRhLANKw5WS2DIlxYLQV2OhkwVBYDVwhaErmepqUSXGzJki7pyOB43lESjJ4mKzblBZPEgTlytcHnLrgTBIEvuOb412yLLeGo+O+kchEwTP4XVmQXAmrJ0qaRdbCe4EP2eb4gHraNI7XckKoraR4yBXpM4IgnDVz5WmkN3SZ+K2Cr8XEwAulLjSFvoMeEISxI6JDge6IJ49F3o84BIPZsInJm+Dw3zYsUma2HQ6w7ZC4MqzCxF0MLTEglWYpDsWB3fjpDeFstS8ZILguUxx9UZv4O6MINDn/Jw+DWWVwnbjID18BctP/bgiBf8rBKGnBNHdHBbPDU4QuH+VcBxwy4RdHrPrAGwxhrjM7M2R5lDebX321V61IDgPqMzUT6+0R6EQxfDvlVylZ9KpFUILQqcszodNZYNC8NL5/3a+HtjZ4HQ6aB1drtGJITADV+daOTtrT5/bQp3Z43x3BP205SG6MIZn4+hWWmGZzP+a3xvCdwq5kyaDxXY3Oiu5I8KirazzVzW4uETZRmoEbXSyG9kpFU9D5dpXSIJ9TEZ0yCzIkev4zkYAOpdoE5rn4zi4G+G2pjqect0STk7Hn63yvTq5XdRdNMjO/ykxvK702dfHKXsYi6JPaicVQ0f3mrDhKhiVokugaJwrO+KG8AuBbJf62OYfM4WTUnKwz8+VFVdYjtounI+9OhaFhQkydkqmxGO3Yx47qrOjOSy17u6ue+8kjjsyZb4OfBuiU1fxsMsd8oXJUbF87qUR52RuK5YNvFRq23upJnI2MgIyAjICMgIyAjIC/R0BmSD09x6S6ycjICMgIyAjICNwERCQCcJFAF0uUkZARkBGQEZARqC/IyAThP7eQ3L9ZARkBGQEZARkBC4CAjJBuAigy0XKCMgIyAjICMgI9HcEZILQ33tIrp+MgIyAjICMgIzARUCgfxMEwfGyi4BN94tkR4k6H23sfma/kDc7jgtSsKVefVhcIisL4iQ/MgIyAjICMgLSEXBIEIY/tRjZf30bSq0XgjJSUXPomPQcHaVUKJC5eCGgUuL4G0sl5xUydBA7w1ubbbu/ustjBdLvuxntFjOUChVOvPNZp/j6wUPTUXfEybvCzKxgl4W0lVe5rVvGPTfj9McrYGltc5o24bpZKN+8m91TXr5lj8N0uuhwGCprETZ6CKr2HHZbrqMEQ/5wJ469uRQDZkxE9aFjaCuv7lY+3XpJoYB3JGFW6fR1igyYcss8+MVGoe7kWRR8vd7h/QdEp2JnToIuMhS5S1fA04iCSo0GEZeMZFin3not8patQrvZwuql8fdF4rWX48zSFfZ6UnjozAdvhcVgwOklX8A3fgCS5l8BQ10Dzvz3q27BwV/yiYlEa2mFw5AfGfcswPH/+5SRlfCJI1G161CPypJflhGQEZAR6EsEHBKE6Z+8ih0PvgC1ToegjGS0G03wS4mDqb4J9SfzEDoyE4EpCajPLYDG2xu5n61G6i1zYbVYcOaDb7oIR21YCEJHZKJ0/U9Q6bww8LbrYDEakbt0JVJvuwY+EWE48tISDFx0LRrOFrK/NYF+aDiVj8hJo2Gsq8fp977sGurVCmT+dhGOv/ERQkcNhqmpFYHpyfCOCEHRyg0Y/eff4+hrH8AnJgKBg5JQsOJHJN94Jdqqa5H/yWqk/eZGaHy8UbphB1IWzEHx99sQMDABzUXnUL5pdxfcSXGlLroW5tY2lG3ejZSFc2FqakHeF+sw7NHfoO7EGRhqG6ELDULJ+p8wYMYENOQWImRYOorXbUXcFVNAWBSs+AGpC+Yw3ILTkmCob4R/WiIsLW2o2HWIvUeEhchUysJ5aKusRvHqTV3q4xUUgKDMVAQPTkP+l9+xtlFf5X/1HeLnzED+l98jZuZE+McPgKmlBYUrfmQ3pA178j5UZ59Ae5sevvHRqNx9GP6JcfCODEFAcgIK12yCsaEJGl8ftJRUIPHamSyIUe7Sb5G+eAFrf2tpJUJHZKF63xF2GxtdvVq1J7srh2u3IuXmOchbtgbh44YiYFASLK0GFK3ehNRb57Eyjv/nM8RdPhmBaUloqaiEwqpA0ZrNSFlwFTR+Psh5fSkiJo6ELiQI5zbvgqmhqVM5RGSp7YUrN2LoH+7CoRffQNKCOVBpvVibk2+4AsaWVrTTY+AttwAAIABJREFU7XKhwch5YymyHryVkc/jby5F9LTxMOsNqNx5ELrwEOira9m7utAQxF01jYWdbTyZx8auz4BI6EKCcfzfHyP93gUUrxq5H32L+HkzYGxuQeiQdJT/tM8hMRz7z8ew5w9/ZVEYE66dCW1IIE5/+A2IkFftPQJteDBqD51A/fEzfTnn5bxlBGQEZAQkIeCUIBR8+yNUXhq2KvVJjMHp979E2h2/Qn3OGVTuOYLMhxfhzLtfYOLrzyLv2x+gCw6ENjgQpz78Cubm1i6FR00dh4hxw1B3IhfeoSFsFXX287WInjYWPrFRyP3wG4SNHYryrXvZqjNv2WqEjcyC2t8XTWeLYayth0m8aucE4c2l8EuIgf/ARGi0WujrG6Avr0Hi9ZfjyD+WIHLKWPgnxkBfU4+ApFg05RWj9tgZhA5Lh8+AKKZQoyaORm3OKURNHo3yHQfQlFvYpQ3J869iits7KgzH3/oY0dPHo2jVRqTeeg2S5s3Eustvw5i/PYqaIydR+sN2DLrtOhbJ7ugr70OhViHuiqnQBPnj3I87ETwkDRXbDyD1pqug8PLCyXeXIesPd6Dw2w1oLSlnJKy1uALRRDJOnEXV3q7Klyo4/pUnkfPmR4icMBLF67YgcFAKrFYLBsy4BDmvf4DkhfOY0tr76N/RbjSya1OHPnIXI06XfvoqW1kHD89AzOQxWD/3N5jw2tMoWLWBkShtgD9MrXoMXDgX5zbuQmNBMWKmj2fErf5ELiMVtAoPSEtC2ZY9aCvrak2g1TojCJ+txtDH78GRf76LEc8+iMp92SjbtBtBWQNhamxGcHoK/JPjkPPaBzZl29iCiq17GN7mFgPS7ryekZL8L9d16RciCKOeexDVB44h4epLsZ8IwnWz0VZRjaaSMoSkp0BFROPl9zDi+d8i/6vvET1pNCMF+qpahlvsrMmMXOZ9vhYtpRXQ+HrDJzIcEVNGI/ejFcj63W1oK6uyEZ1LRqHxTD7aDSZGdMOGZSJ4+CBGYuPnXYbCb390aCkREgSyfLWUlKPm4HEEDUnF8Ed+g8N//w984mkunLd2SJrFciIZARkBGYE+QMAxQfj0VWy59RGovHWIGDccvgnRbIVDQrRi2z5U7DyErEd+jdNLvsQlbz6H7JeXIGTIINSfOIu6nNNdqkmrMu/IUAyYOQkVuw8jMDUR1QePor3NCJ/YSISOHoKTb32CgNRE1B07hfTFC1G+bR80fr6wtluYYDbWNcDUIjLrW4GhT9yDku9/QtQlI3H28zUY+uhdbCWpr6xlFomcf33AFHhrWRXMej2aC0oRMiIT+Z+vZcqupawCdUdPIf2um1D8/VaofbxBRODQn97s3A4rkLH4ZmbSj718MgsPPGD6eGYZgFqJ0c/+Frt+/2fEXTkNLcUVKGEE4Vq01TegavdhpgRJGfrFx7DVc+yVU1G8ejMSrpqOdlgZAaByafuitfAcQkdlofVcFTT+PoidPRU5r7zv0Gw97NG7cWLJcmZJ8Ar0hy40mFlEhj12D3I/XcnaGjJ4EPY8/CeQsiaCkPXgIpx4+1MMe+JeFK7cAGNTC0Y8eR+OvfUxIw85r3/ELCneYSEo+XE7Bt1+PXKXrULDiXwEpCdh0G3X48R7yxnhq9xxkCnflBuuxIHn/uXCgrAaaXfPR+XOQ0i9ZR5Ovf8ltCHBiBg/lFlgIsYMQ3BWKorWbWUkjQgJWUj8k+NRtPJHZN6/EO0mC068swyWNn0XC0L83Bko+PI7jHj6fuS8/iGSb7walbsPobWyBsnXzYImJBCFK37AkN/ejvxVPzLlHpw1ED7RETj2xkdsNR81dSzylq1l9WD30+/PQcqt1zCFT/PAotej9ugZRmpPvL2MWXosegOaqb/GZCF/+TokXj8bVfuy0VJU1gWLcS8/jtMffMO2MuLnXMrGwaA7b8DBF97E5Hf/gmNvfQR9TYNDotUHc1/OUkZARkBGwCUCDgmCLjwU+qoatgpSarVs5elPK+/8ErYSthiM8KLVZXMLtKHBMNBqMzQYal9vtBSe66LI6B1S/rQyZu8EB0Id6I+WghIEDExEc0EJU1y0l9xuMkHp5QWfmHBGDFise0u77ZIKBzHJiXwoVCroK6pZWhL4pqZmmNv0UPv6sDyVGjUzvZNi0UWGMRO5vrIG2pAgaPz90FxUyoiKuakV3pFhaMovZumFD+Wt9vGBpa2NlReYlshW3tW7s1n6WWuWsG2ZluJyZoq2tOoZwaH2+iXForngHPyTY9FSdI7tj+vCg2FuNVCwc1Yf/5R4NJ4pgEKlhtVshlLnBavZAr/kOBgqamBs7GxW53UjUkDbHISR94AIWFr0MDY0QhPoD423DqbmVuZLYqips71iBTQBfgwj2jLxT01AS0EpWwmTMs5avBC7Hv4L/JJjYaxvhrm5mbWX6keWjICUBOhr62GorYd/UhwjbmRRaTxd4Pi2Pyug9vOBuaXVlk9SHBrPFrK+JKuPvrqefaf20bG6eYUEwlBTzxQv7ecTfuZWvS2cPLsxUsm+Ez9E7AhHIhW0PUJ9T/UiaxFZA9LuvhGFX69Ha1klG79UDyqHjSkF2NYB9RGRAOovGnvtRjPir70MNQeOobmwFAlzZzDrkqXNwOpMY16hUjAyyssnrGkM0pgWP5Se9Qnb7rCwPqDxRpYOIm9BmSloKSyDuc25f4ssz2QEZARkBC4UAv37FMOFQqEb5XgFB8I/JY6tMukZ/LtfI+e1/3a+GKUb+V7sV5JvvApnl635n/P6j7l8Ms798JNH8BIpJCfSmgO2PiY/GtrGkE9EeASjnFhGQEbgZ4qATBB+ph0nV1tGQEZARkBGQEagLxGQCUJfoivnLSMgIyAjICMgI/AzRUAmCD/TjpOrLSMgIyAjICMgI9CXCMgEoS/RlfOWEZARkBGQEZAR+JkiIBOEn2nHydWWEZARkBGQEZAR6EsEFJ8mTqFYPvIjIyAjICMgIyAjICMgI2BHQGGls1xuHpPJhHaKQ9CPHi8vL4fR6vpRFeWqyAjICLhBoK2tDd7e3jJOMgIyAv0QAbcEoaWlBSqVEkqlql9VnwRLQECATBL6Va/IlZER8AyB3NxcpKamevaSnFpGQEbggiAgiSD4+vpekMp4UojBYGDkgCwJ8iMjICPw80RAJgg/z36Ta/3LQEAmCL+MfpZbKSPQLxGQCUK/7Ba5UjICDIFOBKG5uRl+fn6doKEtBtmCII8WGQEZgb5AQCYIfYGqnKeMQO8gYCcI5IS4YcMGRhAmTpxoz10mCL0DtJyLjICMQFcEZIIgjwoZgf6LQCcLgtlsxsaNGxEcHIyxY8eyWntKEOhQBPkG9PXjzgfBWN/Ibi2k2/8kP3RzJLs0sPfqT7f00eU+7DZKuo2wF/MWtovyZ3krbGV51G7JAElPyA7H8LHgps0cI+m5O0nJzuP0fh/2uF6/oAyo3x9//HE8++yzkiyPMkH4BQ0Ouak/OwS6+CBYLBas+24dkhKTMHjwYIcEgYRAXl4ekpOT0djYCDpRoNPqoPHSoKSkBPHx8TAajez40s6dO5lVQqlUYuTIkdDr9Vi+fDluvvlm1NTUICIigh2hpPdCQ0Oxfv16zJkzB2VlZUhISHCqUF0RhEMPvIiIyyai9Iu1GPnOn2Goa2BXTFO96epquppXoVaj6UwBArMGsqui6SrihiMn2VXAoeOGsyuA6cbGnj6HfvsnjHjjGRy892lkPv8Q1P6+7NprXVQ4Sr9aD/+MZAQNz4C+rAq+iQPYVcWm+ib40lXIFTXQRYdLIhUthaXIe/szeMdGIXj0EKgD/BCYmYrW4jJ4D4hk1xO3myywmky2K69bWmGormPXItPV1pogf3Y1Nl2DTcSKrpyma5qNtQ3wCg1Cc24RAtKTJcNxbvUm6M9Vou1cJcImjULQyEyotFr2PuVtbtGj6Uw+u+6a9Hrg4DS0G4zQBAfAWFUHX7oi+2wx+00Ei660Nje1QOVNeShgtVigCfRD05lCVq+fZtyG0R/9HVarAsWfr0Ha725DW3k1fBMGSK6znLDnCDz00EN4//33cezYMTZ/3T0yQXCHkPy9jMDFQ6ATQSAFmpOTg3PnzmHatGnQarUOCcIXX3yB0aNHM3JA2xKxsbGIjIxEQUEBIwVEEOh0wapVq9DU1IS5c+dCrVazFQVZJ9asWYNRo0axck6ePMkIxpgxYzB61Ghs2LiBpVWpVJg0aRLi4uIcouOMIJDi2DD4asw8vg5kRajdewT68io0ny6AX0o8tBGhyHt7GaztFkTOnoKYeTNwbuUGGKvr4ZsaD7Nej/r9x9lKdPSSv/S4Z/bd/hh8U+JRs30/sv70MHThITjxt7cRcdklaCutQEDWQJSt3IDIyyfB2NKK8pWbkP7UfTBU1qBm9yFkPn2/5DqcefUDRnZ0sZEIGT0EZ99YiqZT+Zjy0zKUr9qI8h+3I+PJ+1h9jjz8N0TMnICa3YfReCwXqQ/eCrRbUfXTPjSfykfgkHTE3XQFTv71HSi81PBPT4FvShxirpouqT5EECq+28bqk/HMYpR++T2CRg2G0kuD5rxilC5fh9Tf/5pZOirWb4NSpUHYpWNRs20/VL4+iLh0POpzTqNsxY+YsvkTlK78Ee1tetTuzoZ3TCS8YyPRkHMG0VdNQ/XOgyj67zeYtPEDNObkoj77BAxVNVBpdQibOgZRl0+SVGc5UfcQqK+vx+zZs3H77bdj/vz5CAoKYgsCKY9MEKSgJKeREbg4CNgJApGDEydOoLi4GJdeeik0Gg2rkaMthq+++grp6elMse/fvx9ZWVnMErBv3z72Hq0cyFJA5GHo0KFMyZMDJL1DwuPDDz/EiBEjUFVVxSwNZBqn35MnT2YWhLS0NGZdoLzmzZvnEUEgs/ahB15A6IQRKFu9CfG3X4eW3CK0FpcjMCMZkVdNxb6FjyB8+jhYzGZEz5qCyk272Ko1cFQGzK0G1O44iIDBAzHokbt63CtCC0LinTcyglC+YTvK12xBzDWXsVV65aY9CJ04AiofHVPoGU/ci13XLcagJ+5DyJghkutQsWEn9GWVbLXtn5qAok9Xsban/uHXsBpMaMovRuaT9zHT/6EHX0TY5NFoPHkWFeu2IerqaQifOhaVG3ZC5ePNrCxKnRdqdxyCyt8HQSMyETxuKIIGD5JUHyIIuqgw6MurmYWibNVG+MRGI2TiCCi1Xsj7zzJkPLUYtfuyUX/wBJRqFatn0QffQBMWjMAhaag/cgrG6joMfvEhlKz8EcaKGtQfPsmsCgm3XYczr32AsClj0HK2CPlvfYopOz5D/YHjqMs+3mGRiWVELDBLPmcvqdO6mYjm9r333oshQ4bgpptukmQ54EXJBKGboMuvyQhcAAQ6OSmSWTAzM5Ot3vnjiCDQlgBN7JSUFFRWVsLHx4cpc7IW0Mrh7NmziIqKREhIKAtmRH8TaSDLAD3lFeUIDAhkFoQBAwbYtxgoYAptNZCVgbYYaAuDvyPGwp0PQt2BY/BLjYcm0J8pXU1QALMK0LYBbS34xMeg6VQegkdkoqWojCkojb8v2783t7SxrQi/FPcmUnd91Hy2iFkumnILoIsMh0rrxeqjDQtmZv22skpWp7bSSvgPSmQKVRMciH0LHsbY5a9D7aNzV4T9e7KYkDL2CgpAw9FTCBqZBVN9I8zNbVDpvGDRG+ATF83SG2rr0ZB9EnUHjzGrgCY0iLW/tbCUYab290NrUSmUXl5si6LxeC6CR2ZJr0tNPRRaDSN/VL6psYm1Xe3ny7ZvqJ20NVCffZKRJCiV8I6JYJYT2v7xjgpDXfYJ+A9KZmSldOUGqHRaBA1NZ1tF2vBgWE0WNHb0Yf3BYwgYksbKMje3sjzbSsvZ1oX8XDgE3njjDeZ/cODAASYf3D0yQXCHkPy9jMDFQ6BP4iAQgSDF0FcOeUzB/Q8HSmKOntTIPnJo5MONyrFa2hk56u9Pu8UChULJ/BHkp/8iQGPqgw8+xMJbbobWy+Zz4uqRCYI7hOTvZQQuHgJ9QhAuRHP+lwnChcBPLkNGoD8gIBOE/tALch1kBBwjIBMEeWTICMgIXDQEZIJw0aCXC5YRcIuATBDcQiQnkBGQEegrBGSC0FfIyvnKCPQcAbcEobmlGX6+ncMv97zYnudgMBqggHxZU8+RlHOQEbh4CMgE4eJhL5csI+AOAbcEgRwO++vTn+vWXzGT6yUjcDERIMdl4SkpmSBczN6Qy5YRcI2AW4JQV1fHAib15YkEV1U0mUws6JJOJ/24n9zp/7sI7P7tC2g9esZ2yqMPHjo/En7dDAx58HZ2/La+oR7eOm/JJVFskJCQEHZc9uD7n6Gtpk7yu54mNJRVQ3HkrEssKEpl5HUzkfXgbWgxteCfB16GyWr2tCi36Y1mA7zU7k8tXJM0F2OjxtjzkwmCW2jlBDICFw0BSQSB4hJcrIeOTVVXVyM8PPxiVUEutx8hsCZ9FrQKaVH6ulvt+pYm3FC0nQX7ImJMBFnq09DQgMDAQJhaWrHtz69Jfa1b6dpKKuC13z1ZUg9KwPRv/4P8hgK8fPhVKPsAv1ZTG3w07olUjE80nhj9mEwQutXj8ksyAhcWAZkgXFi85dJ6iMCa9MuhVfRt3Ia65kbML97RLYJA4ccpOFh/JQivHH6tT6yBUglCtE80npQJQg9ngfy6jMCFQUAmCBcGZ7mUXkLAY4JAt0p6GHBKJgied5ZMEDzHTH5DRqC/I+AxQaAV0pkzZ+ztolDMEyZMAPkKUEhliscu9aEY7nS5k9BpSfyuvMUgFc1fRjoxQaDbHyPnXQpY21G59id2dwM9dJtl9HUzoVCrUPr5OliaWmwA0XXY4ivJ2R3f5/FzRRBovB89epQlpm0vcThhKRYEL39fmFrabFeAA9D4eCNmzHCYjUaU7j7IbrjsQmocEJ3ubDE4siDQBdnDQ4chu+aIHYSs4ExEeNNNokpsLt3ScYm27WtKTyeIhI9MEH4Z809u5S8LAY8JAglHuup57dq17FKn0tJS3HrrrWyfli5ruuyyyxiB2Lp1K6677jqm/OkCJrqbIT+/ANOnT2d3MNDVzpQPEYurr76a/Z8ubKL0JHT5bXAyQfhlDUh3rRUTBLqdM/yKSQgYmMReLfr4WzSfKkDib25E4YffQKlRQzcgApFXTWdkoXrrHoRPG4fWwnNoN5lQ+9MB+KUns9/8cUUQ6HKy6OhoNlbp8rHy8nJ2dwh/XBEEqkvClAmImzAGzZVVOPjux+y1oCTbjaXEUwx1jYidOAYNhcW267frGtgNo5HDslB2ILuT06OYIGijw+AVSHeOgN1eygmI0AdBTBCIBPw643b4anxhtpjw5tH/Q52hDuMixuBsYx4ygzPRamrF0bocZAZlINQ7FEFeQfi+eD2aTc32dosJQrh3OLRKL5itZpS3VtjTyVsM7ka4/L2MQP9BoFsEgTyPi4qKmFL38/MD3QEvJAjZ2dlslTVx4kSsXLmSXQ1NpICugt20cRPMFjO7HppudoyKimInFOhyprvvvhsPP/wwZsyYYUdIJgj9Z7D0h5o4IggxN85G/lufseuqfVJi0ZpXgqR7b0LhB9+wGzLDZoxH46FTMLe1IWDIQDQeOoHYm+egJb+EXZpV+OEKwGKRRBA2btyIWbNmsUvGaA7QuCbCIIUgDFlwLYIHJmHnS28j7erLoAsKxMEln8AnPAwt5ZVIvWoGas/kIzAhFhaLBcaGJvw/e9cBHlWVtt9k+iST3ntPSEISQui9gwoqCgoiirr2uv5219W1s5ZVxA6iCCJdEOm9JYE0SO+99+k1/3NOSEiAJBOSkZCc71keszPnnvKeO/e896tcPg9CO1taL4P4NRQePd0+1lUEwdkB4/d8h/I/jyLr7a/a23VHEDjg4NWRL+ODhI/w+shX8WHiShha9JQgFEqLMddrDvKb8nG+5jxinGJonwXSAog5YmQ3XdYkXkkQgm2C8I+wh7EtdzvOVsUxgjAQfjxsDgyBXiLQa4JQUFBAa78Tb20LCwt6uBPNgU6nwzPPPAOBgI+77rqbVnMjD1FfX19qdiClpHfs2IGXXnoJ69evp1UalyxZgp9//pl+RoQ8FK80NzCC0MsdHeTNryQIHAsRvB5aeBVBMOPxELn6LaoluPDMuxj+xRvg8Hko+W03fB+5h5b4Lv5pB3yfWIKCrzd2Qq07DcKRI0ewfPlypKenw8HBAUVFRUYThMDbZsFzXAzKEi7AfWQElA1NOPvf1eAIBIh86F5KAMrjEuE5cSzk1bWoycgGV8Cnf4fcPhcZO/ZCVX85bPKaJgZSzMpAdBGXpTuC4GHhjmcin4aQI4BGr8F/kz5DtbIakfYR1OTgZeEJuU6BJcGLkVaXQbUJxbJiiDgi5EsLutQgkC+IGYKYIzoK0yAM8h8oW96gQqDXBKHtIF+zZg0tx0xMCl0JIQ2bN2+mROB68ygwgjCo7rc+L+ZaToqOcyfCedZE2nfel79AWVTe5TiWw/ygKquGrlkG93tvQd2pBKhKL6vAyYXdEQRyTxNyTIgsIbQk50HHe7tbHwQzgMPltfs7kEqapErl9Up/+SCQg3ycy1jEVsXB0HJ9idGYD8L17iK7jiEwcBG4LoLwdy6HEYS/E+2BP1avoxiuY0ksiqH3oDGC0HvM2BUMgYGOACMIA32H2Pw6IfC3JEpSyLCo6OR15UHolCjp3c87RUf091ZejwbhxidKcsNrMS+3Q8EyKfb3XcH6Ywj0HwI9EgQSikg8tq/XRNDXqRINgpXEClwet69dsesHAQLpX/+K2jMk4sA0yZbJfe674i54TB9PwyFJqvHe3Psk+oZkUiTXEofC+px8k6GurmmALrOwRyx871sAz3lTqY/Br5kbUaOq6fc56QwGcM27z3BpBnPcG7QIXhIvRhD6fQdYhwyB/kegR4KgUChoTnomDAGGAEOgrwgQ3w2S+6RNmAahr4iy6xkCpkOgR4JA8hSQt6G+CnkL4/F4fe2GXc8QYAgMIgQYQRhEm8mWMugQYARh0G0pWxBD4OZB4GYgCESDKpUpYSURw3DpZYlzyZyi1elhTkJLAZibmUGn10OvN9Bw7zYjmE6nh1KlhsRSbJKNkStUsBBfu9ptk1QOIZ8PgaDzy1luUQX8PJ3bE9JdObGMnGIMC7xsCjLJxG/STsn9QF6ZyT1A9pbLba0NQ/ZdqVbDUiyiL9VqjZZ+LuDzqJlSpdaAz+O13y9ty1coVRDw+eBwWk105B7ici7Xm5HKFZBYtN47ZAwFuZcsRLR/0rcphREEU6LL+mYIMAS6RWCgE4SSihqs+mkXAnxcIVOoED08APGJmXj5icV0XW9//itmToyCTm9AeKAXtuw9DY1Wi8KSKrz5zBJotDr8uGkfQvw9sOjWyZ2wIAdNW8ZY8sWVKcCv/P5KIA2GFnrYpGUXITTQq5OvDCEyhKCcTkiHt5sjPN2cOvX/wrvf44OXHoCQEJlLtUraxif/XfbCSmz43+Wqm21a5Gv547RyppZO/ZBPSNuOa7isiTajmcSvSnkOIDO3BCEBlzKLXpESveP8Os7jKtxaWihZa5O2OXRcQ3VtAxztbbss09KG7bVu3nVbDuKOOeNQVFqNb3/bi2/efYoShdc+/gnDAj0Q4u8FOxsJ1vy+H072Nnh06TyUVdbhz8NxKCqrwv/+/QR4l0jFHwfOorquERXVDXjz2SUor6zDayvX4edPX6R7+96q32BjZQkvdwfMmTwSH67eDFtrS0wbF4mi8mpMGxsBS4ueq6he72OozwSBZE0MCAigSZO6E2ZiuN4tYtcxBAYvAgOdIHy+ZgdeePjO9g04EX8Ruw7G4V/PLgHH3Az/W7sT08ZGQm8w0EN6z9E4PHDXbJoj4/zFHOw4cBavPLYIfD4XFqLWt3zyFvjGf9ehpkmKD19cjsz8UsQnZSMtrwTPPnAbWlrMkJFThOPxqXj8vnkIDfRGcXktgnzd6KHz8D1z8J8vN6Kiqh5vPL0YTVJlJ4Lw4de/o6a+CWqtDkvmT6EEgdCFf//vV9hZWeKjV1fg5Y9+goVQAKlciXdfvB81dY346NutsLWyxMevruhEECqq6/H+6k0Qi4R4ctmtSErLw51zxuPfn6/HK48vxhuf/EzJyLsvLsfe4+eRmVeCKaOHo6C4ErEpWbj/jmkYGRGE/3yxgR6U08ZFYMaEKLy7ahPcne0plkQOn0rCt5v2Yfmd0+Hl6oDV6/dg7IhgLL51Msia6hplmDE+EifPpYLH5WLl6w/j560HkZJRAHtbCf71zFLkFJbj0++3IyrUF48vuxV/HY3HjgOxWPnqCvzni9+oBois9+FXvoCTnQ3eeu5eyBRqBHi70r7unDuBErryqnq8/cJ9eOmDtTQ3yJf/fpy+rROSsXYz2YO5aJYpsH77ITy1fAF9mz90MhETR4cjNjED1hILqlkgeycWCbD6l914avl8qkWQyZVwsLPu9KPevu8MbpkaQ4nGlr9O4oG7Z1GCdSw2hZKB7zb8hfBgb1iIRIgM9cWK//scP378HL5evxvPrrjDZA+IPhMEEuVAQJNIJIwgmGybWMcMgcGJwEAnCB98tQmvP31vJ4IQ4u+JkvIaJKfnw8/LGXwur50gbN9/CnKFGnFJ2Viz8nk895/v8OLDd2LfiQQ8cNdM+mZJRK3WoLiiBmlZhbCWWMLdxR5Bfh5Y+/s+RAzzh1qjweioENz7zEf49fP/Q1FZDdVCkAPhyfvnQ6FU02vPXczFlDHh7QSBvC2fPp+GCaPC8fPWQwj0daMEYc3vB/D2C8voG338hSxs2HkC7//f/eDzuNj4xzGsWDQLNXVN9EAlh1NHDQKN5mmSYvfhONw2fQw+/WE7/vXsUry3aiMCvN0QHuJD635U1jQhp7AU/3xkIT3ciPmluKwS//psAx5aPAuBPu6oqm2gY55JyKCal6xCn7yIAAAgAElEQVS8UkSHB8DdxYHi8ueR1jH+t3YHbpk2CodOJVGC8MkP2/DRKw9h8j0v4+jGj7DhjyOYNTEaOw+cwRPLbqNkTMDj4JMfduCNp+/B4VPJWHrHNGzedRz/uO8W2nezTI64pCwIeFxU1zfh7lsmoa6hGXUNUgT5ueO7jX/h3vlTsHbzAUoKdx+KQ7C/B01m1iRTYExUCKpqG3E2MQN3zB5H+1z98y489cACegYSbVJBaRUlWMRkkF9cgWOxFzBnykjs3H+WYqbV6ZCdVwpPN0fweFyIhAI0SxWUdDx/iYiS8R+8exZteyG9AKOigvDVz0SL5UYx9Pd2xeOvf4mv338G9z7zMX5f9UqvIq168yRhBKE3aLG2DAGGQL8iMNAJwqp1u/DMgws6EYThwb70ACOHSoifJ1QqTTtB+PNoHJbdPoNm2iRa7n9/tp4ezPHJWdRPIDzYB7lF5VAq1fSBv+/YeapC9vV0gY+nM9b+vh/DQ3xhIRJQwnDPsx/ht/+9jLyiCuoT8PnaHRg1PJDawN2c7bH/eGIngkAm+vmPOzA6Kgijo4IRl5xFCcKPm/bjnX/e367Z+HXncbz/4v3U7r15zwk6n+V3z8Kug2exZMHUTgTh42+24NGlc3H4TAqmjo1AVn4pHGys4OvpjA07j2LmxBGU+PD5PKzbcgD/WDIPROtA1Of33TENj73+FTZ88RJ+3X4EI4b7IyzQG99t2IP772rNwisS8NtNLW0E4etfduOBRbPo9wa9AZ+u2Ym3n1uK6fe9joPr38NvfxzFjAkjsG3fKTy9fAHiU7IhFvLx2Y/bseo/T9LKZ+TNfef+07hz7kT8uvMIJowMRX2TFDKZkmpYCEEgxIcc+oT0kUP4/oUzsGP/GXpA7zoUSzUdRAQ8HtUIVNc1UQJGNCgdCUJtfSOEAgEsxCJ8/M3vePXJe+j3hIBs33ea7ufSO6ajoVlG50ZMIIQgEE3TrzuO4LH7bmnHoI0gEBMDIUgEX4LX2OhhkCtVGBURhKfe+hrfvv8Mlj73MX77YgATBJJalrBFpkHo1+cm64whMCQQGOgEobFZhs/X7qRvmbMnRcHRzoa+rZ9JSIeHqyN9I1eptfQtM9jPAwdOJeLe+VPb9660shaEZBANwVP3z6cHckOTDK//dx1CAz0R6O0OS7EQXh5O8HJzogcuVUsLefD3ccM/XluFn1Y+j1dX/gQhnwdXJzvcMWsc3lv9O4J93SASCejBR8Ymz2HyJvv6ynW0T3s7CUaEBcLDxZ4SmM9+3AkHWwleeXwRPli9GZYWQnpgEhPI0bPJOB6fhsmjwnD77HF48s3V+Ob9p+k69h8/j7+OJ9DxyNrIGp595zv8/Mk/odFo8dG3W1DbKMULK27HyXNpWL5wBtWQvPrxOthYWaC8ph7vvXg/vljzB7WrTx4bgWH+Hvhy3S7oW1rwyWsPt+NF5j42OgS+Hi74aetB2FpL8MJDt+ObDXvx0qMLcecT72Pb6tfooTtpVDhVxxNtgLWlBf75yJ3IKyrHV7/8SQ/fD156EAeOn8etM8YgJT0PP/y+H6H+nogK9YO7qyM+W7OTmh7e+WIDdeQkON196yT8deQc7l0wBTKFEoQcNcoUeP/F5bCybHVSXbNpHyVBRNb8vo+aG4hj4btfbkSjVIFH7pmDZqkcm/achJujHZ59cAF1Uv3w6y1wdrDC/z26qN1RkdwHxHRCyMej985G5DB/bNx5jI5PsCLrPHk+HQ/cOR0Rw/yopiGroByvPn43dZolWqJH7p1rsmdFnzUIxs6M+SAYixRrxxAYOggMdILQthPXcqgzdpeudS3RAJgi1dfZhHR6cAR4u9PD68nl89unSZwJO/juXTX97tbY87Xd9/3yB2vw1vNLqabiwKkk3Hf7tB7h62lM0sG6rQfp274xcuX6jN3TK9v9eTgW40aGwt6mtbR6R+nY1tj+jZn7tcb460g8pk+Ioo6mphJGEEyFLOuXIcAQ6BGBm4Ug9LiQAdQgNimTvtkPD/Ghb+ADQUgo5vmL2dQ2PyLMv9/C84id38/rcrn1gbDWwTQHRhAG026ytTAEbjIEGEG4yTaMTXdIIdBnglBfVw+hSAixuPskIG0mBqJ2KT6WDu9pYdcFtE6lAVd4tUolPT0doaGh1AanVCp7nE91dTWcnJy6nAPp5+TJkxg7diz4fNOpcK4LBHYRQ2CQIMAIwiDZSLaMQYlAnwgCzQ6lUoH8yMPCuj/w2whCbXoppGX1cBsdgOLj6TDncSB2tIa0pI565rrG+IGQgJqUYriM9odOqYG6UY7mkjpYutuhJqUIIYvHQWRn2b4hZA5JSUkYN24cCgsLsXPnTixcuBDOzs44f/48rKys4O3tjeTkZOpdHB4ejocffhj/+te/EBERgbi4ONrXyJEjER8fT1NCjx49Gm2Fquzs7OjnVVVVmDt3LksZPSh/CmxRNwIBRhBuBOpsTIaAcQj0iSCQIRobG6HT6eDg0BrH2pV01CAcfWUDJv9nMXYt+wrNhbXgWwkgdJBg3jf/wIm3t0Cn0WD25w9h/5M/YuyrC5D+22nEPH0L1DIFys7kIPD2GAgsO6cWPXToEGbOnAlSO+LIkSOYM2cOvv/+expGkp2djZX/XYnPP/scL7/8MvU8fv755/Hll18iNjaWzr28vBwXLlzAvHnzIJfLqXbB0tKSVrIkBGHlypW03dKlSyEUXjutqXGQs1YMAYZAGwKMILB7gSEwcBHoE0EganjyVk5U8MZqEM58sAO5fyYhcGEMig+nQVkro0k2rHzsoVfoEPXYdFQlF6E+pxyuowKohiFnx3ncueUFCG0tsGnu+7BwscX8dU+2o1pUVIS1a9ciMjISt99+Oz38yZweeOABaiaoqKjAQw89hE8//RT3338/NRssWrSIag8eeeQR/PbbbygrK8MLL7yAVatWwdbWlv69YcMGarJYsmQJPvzwQwgEAtrexcVl4O4omxlD4CZCwBQEgWQqPHAyATsPxsHF3gY1DU3497NL4exoexMhw6bKELjxCPSJIPRm+t2FORKC8I3vs5j03mIMv79zvvLejMHaMgQYAjcXAqYgCCSPPslC17GQDdEkEvMiE4YAQ8B4BAYEQSDTbTFcKvZhiuBg4/FgLRkCDIG/EQFTEISCkkqawS4mIoiuhCTfef+lB0yWjvZvhIsNxRD4WxEYMAThb101G4whwBAYEAiYgiCQIjq/bDuEpx9YQDPf/d97P+Czfz06INbLJsEQuJkQ6DtBaCGppS+X+uxq8e0mBlL4o7Aatr7OJsWJRByQKIbeSmlpKVxdXakjo1argVjcfZXK3vbP2jMEGAKXETAFQSC9Ey3CuZRsWh+A5LInqYeZMAQYAr1DoM8EgeQTaGhoQHBwcLcjtxEEeVUTSs9mw39eFJqKasAT8sGzEEBa3gC9Wgun4d7UMbAmtRjOI3ygbJDDDGZoLKqGS4Q3qlKKaShkRyHtz507B3d3d/ovMzMTTz75JI1mIOGJJArB398fa9asoc6KpAY7iVjw8PCg32VlZdFaEoQYEIfF8ePH0wiG7du307BGLy8v6sRIwilJuGReXh5tLxKJqENjmzQWVkNR0wy3GH/IqppA/r9jiAcENpdzRJAoi4SEBBpqWVBQAGtra3h6ejL1Z+/uW9Z6kCBgKoIwSOBhy2AI3FAE+kwQSFKikpISBAW12vt60iDUZZUh8ZuDmPDmQuy4+3Moqpph5esAvUaHkc/MReX5fKiaZPCdFYmiQ6kIvCMGmVtj4TV5GLRyDWovlCDmhVtg7X05rHLPnj1wc3PDH3/8gREjRtCD/6mnnsKvv/6KrVu30oOfhEC+8cabePzxx2Bvbw+FQoETJ04gJiYGTU1NNMxxxowZqK2tpd+Tg//FF1/E8uXLKUEg+RTI58TRiRAKuUKOFQ+uoAd8m5x8bxtqLhRhwhsLkbD6AIT2FohcMR32QZdTgT799NM0EoLkWCAEgThPkdDK69F23NA7hw3OEOgHBExBEI7HXqAzmzI2oh9myLpgCAxdBPpMEIgGoaamxugwx6IjqTj3xV56yMd/vAuyskbAHLAOcIL/7ChoNVo0l9bCaZgnGvIq4Rrjj/wDFzDjk2Xg8Lk49e+tsB/ugdDFreU2iRw9epSaBEg+BrVaTbMovvTSS1RjQBInkSyLb775Jt59911MmjQJfn5+NLkT0TSQ5EpEI0DyOcyaNQv79++n5GDKlCl44403aMKl8PDhOHnyBE24ZGNjQxMrkTDKO++8k5KRNtmyYCVcYnzhPjoI9fmVaMipgNeUUATfMbq9DUnONH36dDoHMleSh4GEZ5J/TBgCQw0BUxAEtUZLq+NxzM17BWdadhGt4DciLACZecXgcXkYFuDZqz5YY4bAYEKgzwSBvAETlT0xIXQn3VZzbGnBxpnvYdaXD8IxrPUHqdfqwOFxr+pSr9WDw7s6XImo7kkGRCLk4CU5CwhpaAtvInMkpggiZC7kO/Jf8o+0IXKtMKiOFbl6CpUiczbnkjrwZjDo9NCrddR8cqWQ5Ett6ZvJPMjcmDAEhiICpiAIUpkCWQWlCPRxh0goQHVtI6pqGzByeGCPEOcUlNGKhw1NckoWpo6N6PHZ1mOnrAFD4CZFoM8Ewdh1s3LPxiLF2jEEhg4CpiAIBD2ZXIk9R+JRXlWPsSNCMDY6pMeDXqXWYM/hOEybEIXisho0SeWYNCoc5uYs9nro3JFspR0RYASB3Q8MAYbADUPAVAThehb01L9WY+aEKIyPCcWp+DSabOneBVOvpyt2DUPgxiFANOU9aPSNnRwjCMYixdoxBBgC/Y6AKQlCXHImLESt4Y3hwT49zp0aIPvv2drjeKwBQ6C/EdA0y2DQ6SC0s+mXrvtMEKRSKcg/EkXQnTATQ7/sF+uEITCoEDAVQaiorkdDkxQ5BeW4kFmAN59Z0qOJYVAByxYzJBGojE2GTZDPwCEIpBAScQ40tprjkNw1tmiGAEPgmgiYiiBotDr8b80OFJVVY/6MMZg7NYbtAENgUCPQkJUPWUkFHKPDBgZBIB7+JPMgiRoICAhgGoRBffuxxTEE+h8BUxGE2vomGpVkaSECj8uKNPX/zrEeBwoCerUG5nweyo7FoUWvHzgEgQBEyAFJ+kOSCDETw0C5Zdg8GAI3BwKmIgjNUjk++HozAn3coDMY8NiSeTcHIGyWDIFeIGDQ61F2NBaWHi6QlVbSKweMBqEX66D2v7Y8Bb25jrVlCDAEBi8CpiIIer0B1XUNrcC1AK7O3b/ADF6E2coGMwKq2gbUJKd3WiIjCIN5x9naGAJDCAFTEQSFUoUDJxKh0+uRmJqLD15eMYRQZUsdKgg0ZOZDVlrBCMJQ2XC2TobAUELAVASBZChtbJbTSrNf/vQH3n5+mcmjGNoytRq7f23ZZ5PT8lBZ24Bx0cNwLjkLdrYSONrZIIdkg/TzAPleKOBj0uhw+t+Sihpk5BbTlNCOdtbILSyn1StJ7Qn+NbLPGjsf1u7mQKBFp0fF2US4TRyF8lPnQHwQOsqA0iCQOgaWEks4O3VfWpmZGG6Om4/NkiHwdyJgKoIgV6hw5nw6zYI4LNALbn+DiaH6/EVopTKj4DPjcOA2ubVGy89bD2Lh3Akgc87KL8X4mDCQlM/+3q74+JvNaJYp8fLji+BgZwVzMzMcOZMCTzcHVNU0YuKoMBw8mYioMH842FqZnAQZtTjWyKQIaOUKVJ5NgvOYSJB7rkVvGJgEgRz6+fn5cHR0pOWRuxNGEEx6z7DOGQI3JQKmIgiFpVXgcjiwsbLAym+34p1/ml6DUBmfDG2z3Kh9IATBY9rY9rZb/zpJa0W4ONrgl22HMXJ4EPKLK7Do1kn00Cfk4WJmIc3p4OJoiyBfN5A1zp06ivZBNCZxyVlUC8FkcCOgrG1AbXI6rPw8IS0oba8x1LbqAaVBIGq1jIwMDBs2rFv2ygjC4L5p2eoYAteDgKkIQnVdI6RSBawkYthaS2h1R1OLvKIGBq3WuGHMzCDxbC0D/7+1O9DUrMBd8ybgz8Nx8HBxwIjwAIQFedOH/yc/bIFCqcU/H1kIiYUIh04lITEtFzPHR+HPo+cxItSXah4ev+9WGtbJZHAjUHchE4rqui4XOaAIQlZWFk2SxMIcB/dNyVbHEDAFAqYiCHKlCq9/vA4iIR9WliK8/vQSU0y/3/vsbRr93rbv9wmzDv9WBFoMBpQeiyMqo5uDIBiLDtMgGIsUa8cQGDoImIogkFTLao0W8cmZyC2qwGtP3tOjff70+TTU1Dfh9lnj8NfRczDoDZg/67IZYOjsClvpQEOA5DjQqdQQOdqh+tyFbqc3oDQIxgLJCIKxSLF2DIGhg4CpCILeYIBKpaE2e71ej4mjwnsElRCK/SfOY/bEaMRfyEZpRS2WzJ8KM1buuUfsWAPTItCQmQdFZQ0EttZQ1tQzgmBauFnvDAGGwEBAwFQEgaRaLquqQ+Qwv14tc9ehs1gwcxyKy6qRkJqDO2dPAMx61UWvG5O6EXUNzXB2sEVjkxQcLoeGM0plCjjYWUOt1UImU8Le1qq9b0JmSIQGj8uFSq1Bk1QBRxLlYG7e6/HZBQMfgdqUjB6JAVkF8VlxjAqlmob+kD5Xc1QoFFCpVLCz635CbRqEkpISuLi4oLy8HE5OTiA+DFFRUUhPTwefz4e/vz/IQ4OkcLa1tYVcLqeLDg4Opus9f/48PDw8aB/GSFFREfWP6CnKwpi+WBuGAEOgfxEwFUFQKNX4aesB2FpZgmRVvH/hDKMmnp5bjNAAL5w+lwZ3Vwf4eHQfvt2x0+o6BbS6rm3DHduS56GbkwX96OtfdmPa+EiIRUIkpuZQUiOTq8DhmOPw6SQa3aDR6BAa5EVJBJF1Ww9i/MhQBPm648iZZLg62dG/Sf0JJoMPgcrYJGhlih4XJisph11YEJxHR/bY1pgGfSYImZmZ9FDvKY1yG0F4+umncffddyMuLg5NTU1YtmwZ4uPjsWfPHjz22GOQy2U4ffoMpk+fjsbGRtqvt7c3YmJisHHjRowaNQopKSm0jzYhoZbkQSMQCDBlypRO6/7mm2+wYsUKCIWtdeGZMAQYAgMHAVMRBEIKDpxMgJuTHZplCkwaPdzki45LqUSzvHPSmq4G5XDMMH2MJ/362NkUqLU6jI8ehoOnkuDn6ULNGmQN5VV1uG3GGGzfexrTJ0TS3AeNzTIa1mhvZ01JQVJaLojPRUxEEJzsbUy+TjbA34uAvLIG9anZPQ6qrKql4Y/ByxfCfnjrC3VfpU8EgaizsrOzoVQqMXx49z/ANoKwc+dO5OTk0GvITf7WW29h3LhxiIiIwA8//IAvvviCag2I9mDp0qW0LQmhLCsroxqGzZs3Uw0C+a5NSJhlamoqJQHz58/vhMkvv/yC5cuX9xUndj1DgCFgAgRMRRAqquvoW3h6TjENCfw7MikmpddApjCOIJhzzDFhRGuYY2VNAzUnyBQquDra0vn6eLggNNCLfr9lzwmqVfB0c4ROp8e5C9nILSiniZNGRgRCYiGmDpmVNfU0uyKTwYGAXqUGRyhA1bkL0DRJOy1KXlwGjlgEocNlzX32z9sgsLdBzFvPQWhn3S8g9IkgkBmQH7hOp0NISEi3EyIEQaPR4Lvvv8Oy+5bh008/pddIJBKqHXj99dcxfvx4qgFYv349IiMjqQaBy+XSg//ChQv0v5MnT0Z9fT2WLDEubIkRhH65T1gnDAGTIGAqgkDevt/+3wb6bJo3LQaT/wYNwvUCRJIgERGLBGholsHa0gJmZmj3J1Co1LTilIDHp2YHIgZDC/2MkAoSyklMKtaSVpMFk8GBQPnJeDiNikRVbDIMOl2nRZUdPAWulSWcx0S13g9aLcoOn4Hn3CmsmmNvtn/lypVU20C0DkwYAgyBgYWAqQgCyQ+QkJqNi+kFuH3ueNhZSwbWwtlsGALdIKBVKFF5JrHLFrkb/4DQwRbusyZBr9Ig49sNCH5oEfjWEkYQ2J3FEGAIDA4ETEUQSAQD0SK4u9jj3S824t/P39djHoTBgShbxWBAoCouBZpu6npc+GwNJD5u4FqIIC0sg99d89rNDSwPwmC4A9gaGAIMAWqiDAjof7u5TK7E6yvXYXx0CJIzCzEqIhDzpo6ianwmDIGBjADNlnjkbNdTNDPDuZc/gtjTFcryGkS/8xzMO1TxHFAEoS3uljgcdid9SZSUUpqHSA//bvsvqa+Gp53Tde87mf+1Yoi7+ryrgSqb6uFi3T8xqNe9GHYhQ+AmQcBUBIHY6Em65Y5iIRbSaogDTbb+dYoEsGPSmHDsO3Ye3u5ONJwxI7cI7q6O8PV0wbmULNw6fQydemJqLvKKKjBu5DBat4E4OB49m0ILN7FyzwNtd3s/H3VjM63S2JUYtDpc+PgbaJrlEHs4I/zZFZ2aDhiCQA79qqoqVFdXIzy8+0xlfSEI35/Yg0cn30rzIRzLSsZ4/zBkVhYj1M0HmRXFCHByx+ncVMwMHXkVpucLs2AtFFMHn3p5M9R6Hcb4dq54ti81Ho5WthjpFdjp+viCTNiLJfB3dm//vE7WjMLaSlgKRfCyc0ZWZRGcrexgKRRDIhThQkkeIjy7JzO9v2XYFQyBwYmAqQhCbX0zSOpkWxsJjZaaOjbC5ACmViVAru7sbd7VoObmHIzymES//mb9n7hr3kTw+VxarGnp7dOQmVdKKzZ+sPp3PHzPHMQmZuCuW1rbEyFhjUWlVRgbPQybdh0Dn8/D/BljwOvwJmnyBbMBTIJAZWwytLKuq4JqmmUo2LYX0twihD63AmIn+4FJENpmVVtbSws2dSd9IQht/ZKD+c+0c/Czc0JWTRm8bZ0gUytxb8xU7LpwFndHT+40hW2JJ+Dj4IrUiiJKEhRaDVwlNpgSGNFJW5BfXYYGleIqgqDQqFDZUAe/DgShvKkOWxNOokElR7CjGyxFFnC1soW/gytsxN2XvDbJ3cQ6ZQjcxAiYiiAQE8O+4+cRFugFA1oQFuhjcpSSK+IgUzcbNQ7HnINxXtNpW/LicyYhHc4ONjRzIqnWGOjrTj8P8fekWRW37T2FeVNjkJSah4hQX9p+zuQYev2Pv+3FQ/fMxb5j8bjlkpbBqEmwRgMOAb1ag/KT57qcF7knVNV1qM/IgX3EMAhtrUFDXjrIgNEgUCZbUQFra2uIxWKTE4QP9v6GCA8/ZFeVINjZE0V1VbAQCDAndBTWxR3EaO9gTA9uDfsgcjLnImrlzRDx+KiRNUPMF8DL1hGeto6dzAC/nz+GBqUcj0+6tdMadl84i2ppEx4YO4vWlieSU12GI1nJkKqVkKtVcJBYw8/eBXNCYzqpL5ubm/HVV1/R8E0mDAGGwLURMBVBqKlrwpnEdPh5uaLF0IKIYb4m34I6RTV0+s7haF0NSl6YnCxb8yAQTUeTVI6wQG8UllaB5Ejw9XCBh+vll664pEyMGdEaSr7/RAJ4HA51wMwtrkB0WAAKiisQGuQDGysW6mjyjTbBAOomKRqzC6gjLTExXEuUNXUoP3QajmOiwBWLIHZxvGa7AUUQjLXR94cGgaDRghaYXUqOrtPrKXkibLxNaqVN7X+3vtG3gMvhdgKyXi6lakciEpEYAi6P/i1TKaHStiY6EfB4kAhbSQ8hAkoNiUXu/Hl39wnJ9kiSQY0dy6rBmeD3xLocJAiYiiCQA3fTruMIC/amOQMmj+65WNMggZQt4yZEoOr8RWi6IAZty6lLSkf54dNwHDcCLhNHUb+Va8mAIgjG7kV/EYTuxiPql7TK4naVi7+9M0S8q72Wc2sqoNJraVdeNg6wukQEKprqUKdstf3YCi3gbtNq26mWNqJa3srqbARieNh2b04xFhPWjiEw1BEwFUEgz4K6Rik4pBJjC6gvgjHS2Cynb+FVtY3gcsw7FUgy5nrWhiHQWwRIlkSSLbE7IVkVq84kQl5eBZ1cgWGPXc4kfOV1jCD0dgdYe4YAQ2BAImAqgtAslWP1+j9p4aX4lCy899KDPRZl3LT7OEiNhEW3TMaJ+ItQKjWYM+Vqx+cBCSSb1E2JgEGnh6K8Cg3ZBV3OX1FVg+w1W2jaZf+lC8Dh8yHoKpWymRkcR4RCaNc/NTn6nGqZMHWiHehJ+qJB0Bn04HYwI/Q0Vl++J+shdosrV0RMG+R/ZB2kDfnHSqv2BWl2LUOgNVW7KfIg1DY003BAQhTOJGbgszcfNQrutnLPq9b9AStLMR64e5ZR1/Wl0YXMAkSEtPpIyBVKWIhFPXZHnDAtLa5uV1hWBR934ytQ9jgQa2AyBPRKFaoSUsG3soCyuv6a45CcCIU79sN1yliaObEnsfL1hMDWauAQhLbSzGFhYd3OvS8EYeX+zXh5zuKesOmX7z/YuxHzwkZjhFfn5C3v7FkPsxbgrdvuR3ljLZJK83Fr+Oh+GZN1whAYqgiYiiAQAq9UqdEsU8LO2pKGARojhCDMHD8CyRn5IDUSZk4cYdQLEOm7pKiYlqk3RsjLhV9Aazj09xv/gqerI6aPj0RFTQN1iL6QmQ8riQWkUgVmTIjCwVOJmDdtNGrrmmhRJoGAD0c7K5xNzMC0cZHYcySehkoePp2MWZOijZkCa3ODEahPy4a8oqbLWajqGpD+1XoQIhHz4Us93ofknnchtRnMzMDvp7ocfdYgJCQk0IJLQUFBJiMISq2GRiJ8cmgr7ogYhw1xh/H4lPk0HwEJd3S0sEJlcwNcJbYIdvUEx8wccQWZWBRzufTz2fwMaHQanCvMxooJcyBTKbA+7ggWRI1HXF4a9IYWTAocTp0eVRo1or07r2dX8hkYzIAYryDqm6A16MG/wvnxBt9vbHiGwE2HgKkIAjkoDS0G+pa99vf9+P7D53p8wBLwVGothAIeLRHNMTcHSa5krKQmX6CVaI0RDoeDmLGtLxif/bgdT95/G5LS8iCVym08qbMAACAASURBVKHR6uHr5ULnQYjDqp9346nltyErrwQkOmPq+Ehs/vMkyNvlotsmQ6VS43RCGiaMGo64xAxGEIzZgAHQpuJ0AnRXJPPqOK2Uj79DxP89Qgs1cQTGZQB1nzoW5tzLTvt9XWafCAJhwbV1taisqERoaKjJCEJbx49v/AKr7nkaScXZiC3IwuzQaOxJT8AE3xDodFo4WtpAJBChrLkOa88ewA9Lnm2f076084jxCkCtrBlutvZIKy/CpvPH8I9Jt6GqoYYe/rZiS4j5Qqi0akR7dSYI353YA7VBi0fGzYVYcPmhIZVK8euvv+KJJ57o616w6xkCQw4BUxGE+kYpiBqeJB+ykVhCKOSbHNucjGwoFQqjxiGhjOFRrcmbvtvwFx5degvikjKoSSTQzwMXswoRGeJLX1g27T6B22aMpoRFKlciJiIIv+06Dp1Whwkxw7D7cBwmxIQhyM8DJBySaRCM2oIb2qipoBjNeSVdzoGENGqlclj5tZb8NkasA7xh5dO/RQn7RBDIpBsaGsDj8WBp2X2SoL6YGNrAISGISSW5CHRyh95gQEFdFWxEYmj0ejhaWkPM58PMzBxZVaVwsbKl+Q7ahIREJpTk0IgFPwdXJJfmQcwTwFIgAp/bGgZpaGlBjaw1TDLas7OJobCuCqSPACe3TnuVmpoKGxsbVi3SmDuYtWEIXIGAqQjCzQQ0CckkpZpVag0tMKXRaqHV6uFgZ4XSilp4uDmioqoO7i4OtA1JnETSKxOzCSFCNlaW1BxibyuBUqVh9SYG+OYbNBqUn0qgGqBrSksLkt5dhcjXnoA5r2vTGM/SgkY0SHw9IS0ogfu0sTAzby0H3l/SZ4Jg7ET6gyAYO1Zbu4SibMg1rfnYSWIlZ6uenTzari2ur0ZhXSX9v0QzMcz12kxOr9eDqAuZMAQYAr1HwFQEoaa+CRqNlh6qTBgCAwUBkkK5Li2Hage6EhLSWH48Fp5zLpvIr9XWNsQP8opqOI+KhLS4HBKvzi+v/bHmQU0Q+gMg1gdDgCFgOgRMRRCUag2+WrcLESGtiZKIgx8ThsCNRICENJYePdujL0xdcjpshgWAI+jeLOY8OgI6tRZiR9MVB7wpCAJxNjI361/VSX/eKMaGevbnmKwvhsBgQMAUBIFELxD/A1LQiAgxHUaFsgJqg+F+uVnXQMwJpMhSd1Ua29aW9dMWBD14d5dEQmBrQ0Mjic+BMSkG+oJZnwlCfn4+tcHb2XXPYvpiYiA1GF6ft6Qv6+z22t/ij8DJyg4zQi7XcejugvWxh2h1yMUjJ6NZpcDhzGTcGTXeZPNjHTMEBisCpiAIJI26Tm+AQqmGVqujKWkdHfonccxg3Qe2LtMioKptQE1S2lWFla4clWgZEv/9OWLe/7+rJkTOUAsPF1i4ObeHMRLy27GEOXlZNbSQ8gM95yYyZsV9IggkiqGqugqlJaUYMWJEt+P1hSCU1lfDw84JKSV5WHVyN9wktpCpVWhSyalz4kPj5uCjg5tp/PAH8x/Eq7vWoV7RjG0Pv9nOsCqb6vH2X79Sx8QoDz/sSYsHh8PF6sVPwlYswdfHduHJqQva16DWafHMptVoUiuwdtk/8dKOH+AiscFtw8fheE4Koj0DMSUogjpLNinlsLMwLpWrMZvC2jAEhgoCpiAIBDsSDfDmp+tpTZWWFgM+efMfQwVSts4BiEBDRi5kZVVdzoykWy7ceQDuMydCVlQK5/FXZ/DkSSxgHxYEroXoUsI+4Fh8KSaOdIO5uRkIJ0jNqYO7syXsrI0Pz+0Orj4RBNIxCfMrKipCeHj3xVD6QhDaFrD4h/ew6ZE3aBbDn2MPgmduDiuxJXhm5pgbPpo+CL45tguPXzroO2Zf3HMxHvPCY2h9i4qmeog4XHB5PKoBINUc7xs1Ha6Xai+Q8cgYv8QexIHMRHy39Dn8eHo/npt2O90YwtpO5F7EKK8gWHQIeWzDg+SFYMIQYAj0jICpCEJlTQPND3A87iKKK2rw5tNLTK6O7Xm1rMWQQeBSRl6yXq1MgcrYZFo48JrSAtScvwihgw0yvvsNoz9+5apCTBJvd1i4O4PXIcsm0ZIRgkDM71yuGVwdLVFY1oSRYU4DgyCQhMRZ2Vnw9fWloY7dMhEzsx7b9HTzKDRqfHviTyyJmUo1AC4SWxq2SCIMNp47inmhMfBxdMXqY7txa3gMgpw927vU6nXYEHsIAU7uNLJhmIsXBDwB5CoFdlyMhb3YEg+Om93enoy1IfYgWszMsGLcHKw6vgvOlja4b8x0EBODRCjCHVETOk05Ly8PaWlpWLDgsiaipzWx7xkCQxkBUxEE8igmdl+S8IiYHOxsrIYyzGztfzMC9ek59DA3F/BRn57bZeVFMq2iXYdoPYbgh+9pTXJ0RemChiYlgudOREGVEu7OFkhMr4GlmIfGZjV9WW0TYlQg/2/AEITeYN4fGoTejEfa7kw5g4ZL1Rkn+YVSctCdnM1PR2Z1GW0SaO+CiYHDezWkTCaDQCDoMxHq1aCsMUPgJkbAVAThJoaETX0QIECcEbVyBSUIOtnVybM0Uhn4ktbcQXm/70ZTZj6i337+KiKh1emRVaOHMCiQ+tUYI4wgGIMSa8MQYAgMeARMRRCIiXDt5gMID/ZCbV0zbp0xZsBjwSY4eBDoLo0y0WyRREjRbz1L3/gLt+2F5y3TwL1Gka6yCimanLxgfolMGIMQIwjGoMTaMAQYAgMeAVMRhMrqetQ0NCG/qBLnL+bgP/+8v0cfhMzcEhSVVWHCqHCcS8lEeWU9lt4xrcfrBjzIbIJ/KwItJN/BsdirxmzIzINNsB9aNFokfbAabjMmQF5aAddJo2Hh6dreXirTwMLZDgKzFmSqLaDlGVeHoa2DG04QiCq9LbUycVIUCoU9qtX7YmI4nZeGCf5hOJuXhlG+Idcs/UyiDuILszApoHtnyTYQL5Tmw9fBBRKh2Kibh2RWJCWfve2c0aiQQaPXwUnSOXTqVG4q/B3d4Gpth9TyQlrMKcjZgxaNOZSZgtnDuo/0MGoirBFDYBAhYCqCoNHqsPWvk6ipa8TwED9aKbEnaZYqcCwuBQtmjqNOynuPnsMt01mCpZ5wY993RkBRXYe6C5mdPtSr1Uj9dA3E3m40UkFZWQudXA7ncdGQyrXUfGBrLYTWjIOsSg3MnZ3h6mGLqvrWTMC9kRtKEIjDT2VlJdzc3CizLikpASEMISEh3a6hLwRhS8JxLBo5BYeyktGkkGJGcOtBeyIvFWN9QiARiHC2IAOHMhPx3oIVOJKVRKszTg0cjjP56TTFMqmjUNFcD31LC2aHRCOtohDfndyDrzsUdCJ9JhTlQGfQI9TVGxfK8qDW6Sg5SSsvxPpzR/DZwkeRWJyDi+WFnZwaybU6vQ7xhZkY7x8OvUGPX2IPYcX4OZRYfH/yLzw26dbe7DNryxAY9AiYiiCQ+gbkWWVrLcGeo/G41chMiqTcMyEIyWl5sLG2hI+H86DfA7bA/kWAOCXKyzuHNKrrG1F5NhHl+08iYPmdkPh6QWhvg7oGBaQyLZplajjYiQFvPzTpzQEu1yjNVXmNAqXVCowOu5xS/IYSBAKlSqWiWgOSB6G+oR4V5RWUIHSX1akvBKFt+45kpyDawx/HspIxzM0HxaTcc10FvG0cMT04Ev/47Us8OfFWRHn445/bvsO0wAg4WNogqTSXfsbhcuAmsaNv9aQ89Ib4w3hp9mK0pZTIqS5DUV0VZGolRvkEo6qpgeY3sLO0goDDw4cHNuG1OfdSIrAl8eRVBIHM82xeKsb5t2ox1p09cM025MFFsGPCEBjqCJiKIJBaDBk5xQgL9sEXa3finReIiaFntOOSszAmKhinz6fRColMGAK9RaCj/4G6oRl8a0soKmtoJsXSv46Ca20FjzvmokEFNDarAHIWkMJN5ubgR0X1mEyp43z2nSlFSm4jXll+WXN+QwkCUb3V1dWBz+fDysoKZWVlUKvV8PPzM5kGoa3j3RdjMck/HHtSYiHTqhHjHYhjeWmIdPOGjdACK4/swKq7HsWpvFRsTjqFF6bfCa1OS6s9EhOEkMeHu4097EQSlDfX4etTe/DdvZdLQstUSnx5/A8o1Cr838y7sSXhBI18GOUThMyKYhzLvYgnJ91G8yjsTT+Hp6Ys6ESKCmorkFySj5nDotGskmN70iksGz0DtlckUVq2bBktEc2EITDUETAVQSC4FpZWIjYxAwvnTQS/hzDsob4PbP19R8Cg1UKn1KAqnuQ8aJWc9TtgGxYIvVYH5zFRyN+2F1WxqbB4cDloZiMeD+YSKxjq62DG54M3vHeRc6s3Z6CgSo4PH48Gj9f60nlDCcL1wtgfGgRjxiYE5s/UeJTUV+PJKfN7vIRoC0g2RCICLg+ZVcU4kpmCf868q8driSlCrr5sI7IWWfR4DTHHlJaW9miS6bEj1oAhMAgQMBVBIGWR3/9qE5qa5RAJ+fj4tYcHAVpsCQMRgRa9nr71lx2NQwvRUrWXcTZD3pbd0NQ20miF0CeWoSSjGLWVTeC4tJquzKysYC6RQF9WBjOxBXjDrm2qJybzjumTNVo9uFxz/N+qBKy4xZ8WJHO0EcDJXoQxES4DI1FSbzbr7yIIvZkTa8sQYAjcWARMRRDKq+qo7098chZy8svw0uOLjLLp3lg02Og3GwIGnQ5lx+IgdLCDqra1OFibkDMv97fd8L1rLhQqHYRiPtKyajuZuogzIsfJCbqcHJjxBeAGBtDLU7LrEeZvAy7HHAXlUmw9UoyXll02eX2/IwuBnlbYebIUnz8Xg3NptaiXqmFjycfTS8IZQbjZbiQ2X4YAQ+BqBExBEOQKFcQiAdUMpmTkQ6vWYezIYQx+hkC/I6BTqFBxJqFTv6RcsxmXA0lQALLW70DwAwuRU1APvb6FRsd0FK6PL8zt7dCiVEHf0ACumytt88R/4zAr2hl3zfTF9mNF4ADwc5cg2NuaOuB/tD4VfK4ZHG2EePTOYNolISEH4ivw7hMjhxZBkKkUsLwUjtjxb7VWQ6sq9qeQlMwcM3PmRNifoLK+GAJdIGAKgpCYmouM3BJILEWwFItoyuUZE1mIMbsJ+x8BdWPzVSWcc37aBqGzHfT+wag5GQ/BhKsr/bZIrKGsroP1iHCczJYhMsAW1mIOmpR6WIi4+GpzJkrrlHjn4Qj8vDcfy+f54estWbC35uOWCZ5Iz2/AX7HlePPB4bC1as2TQKwbn29Kx3+fG4NQf9t+WWyvizURdlNdXQ1n51YbCgl5JDkR2vIidDWrvpgY/ntgM402IGMfz02l4Yvk78zKYgxz9YZcrcSpvDTMCY2hzoi0IhPxKbiCPJCQRa65OTjm5lBq1JQEkEIXJCSR1JUgld/OF2XDw9oeLh0KN/UL0qwThgBD4CoETEEQyLMhr7gCer0BEgsRNTW4O18OA2PbwBDoDwTUjU2ou5gNvVrTqbu0Vb+A6+IIOdeS+hhw3C4nQSINlVqgoMUaZkWFiFw8Hf/bnAlvV0vMG+uO/25MQ5NMgylRTqiqU6G2WYWJkc6IChHBUmCFrYcLERZgC09HMbR6A2wsBVdF59xwJ8W2MEeyWOJ0R36QPVUw7AtBIIc+cSAk4YF3/vge/nj0LXrAf39yD56bsRDp5UX4PekElsVMx960eNTIm8Ez4+CFmXfRokpESLKl1PIC1MqleGLSbdh9IRZFDTWYGTIC8fnptCjT7GHRCHHxovW1uwvZ7I+bi/XBEGAIAKYgCARXkgeBaBKmjGn1Cmdhxexu608EaNiiTAFpYSl0OhK2bkb/kff45LU7oBeKYWhuhmDy5NZX+0uSkduADDMHlEt1GOfQAt+J4UjKqqMJkWaPcUNWYRMaZBpEBNhCbZAjs6wcc0YGoUZeDQ9rL5zLLUB6jhorbgkFx5wYHlqlTlEHe7E9ZGoppkT73zgTQ1uYIylKREgB0SaQz9o0Cl1tQl8IQluf9bJmPLDhM6y663FYCkVYd2Y/Fo+cAgeJDT49tBVTgyJxsTQfQoEQFhwupg2Lbs92eCQrGZWNdTQJ0h0jJmJPylmsTziGN+cuQYO0CQYzM1oZckpQRPsSampqUF5ejsjInrOw9efNx/piCAwVBExFEBRKNXYdjqNvVwZ9C5YsmDJUIGXrNCUCLS1oLipDc2EpOFwudCo1qmrlqEtIg4OrDWqFdlAkJoMfefkc6TidvacqMOOR2Xh7zQWM8AXUsMaiGT7Yc7oQgZ62cLDXQSziwcHCHrn1WdDo1BBxxVDqFOCac6Ez6Gh3FnxLiHkWkGtkcLVyQ3FjIdysSH6fciyePBH2Nq0vxn2V6zIxNDQ0UEZuY2ODxsZG+rZtbW3d7Vz6gyCQ/ANlTXUQ8fiwEVmivLkeEoEQIc6eKK6voimYK6WN8LZ1hJm5OXjmHIj5QjovohUg6Y+tRGK4WTvQzIhOEmuaI4H0R2ieoUUPV2v79nVs374d8+fP7zGNdF83gV3PEBiqCJiKIMiVKhw4kQCD3gCZUo0H7po5VCFm6+4nBKrPXYROpbrKpJCeWYnmjVtgbmsDbkQkzAwGpDXzEexvCw7HjIYjtpDEggDePqbEKw8Ho7nJHFuP58LfzRa3jHfH1tMpyC0w4I45fKoZCHEMQ2ZNGjV/9ySEKCi0cjqWTt+CRRPHwcPx8jnW0/Xdfd9rgnC9g/UHQejt2MeyU9CsVNLLRnj6wdPOqbddsPYMAYaACREwFUHoOOUPVm/C60/da8JVsK4HOwI6pQokQ+KVQvIPXEwqhvZCCjijR0G1eRvKwyegXsOBVtcCjV6N0dFuyLa1hZuDI95fm4XnHpTAwcIJmw8VY1ykNawkLWiUqZCVr8OIMB4dwt3KE+XNpdR/hoiF2AxyRecIiI5zIZqyiHABlAoDoj1j4GLLCMJgvyfZ+hgCgx4BUxEEEuq499g56rCcV1yFV55YNOixZAs0HQL16TmQl1e3D1Bbr6CmgKaEFBSfuQD+uPGo4sngJHHHgWMlmDbBHVt25cLdgwulSIQzaieaP2nmOAG8Pbi9nqirCwdVVSQhU6sPvrsbB9XVBvh4c6HTtaC2zoCggFZyEe48EjYiu16Pca0LbgoNglavB4/DoVURSdTBjZIbPf6NWjcblyFgKgRMRRBIBIOhpQWNzTKaD8HFwbiwL1IFks/jQqvT0SgIoaB/w6hNhSPr13QINGTkQVZW2T6AUqVFTkEDOM2N4BQXotQlBPa2fFRKS2CutUZZbR3c3HiorNbDypEPqa09GsxEcLAzh0h47fOLaACuSJEADgcgSRqdnTgQCcxQVauHUGAGvQEI8m8lA22i0baAz2v1hryhBEGv1yM2NhYTJkygoYFx8XFwdHSEr69vtzvUFxPDO3+ux79vux/fHtuFxaOm0QJKvRWNToel6z7CloffuCpC4c3d6xDk5IHlY7q2U6q0asQWZmFq4LWdT3o7H9aeIcAQMF0UQ2lFDXhcLtb8vg9cLgcvPdZzJsVvft0DOxtL3HPbFBw8mUhLRHPIU5rJkEWgxdCCkkOnqE9bm5RWSFHfqIQ6Lh7CMaOxfW8+7Bz08A/g4/RJJcbMtgWnRQ+drRV0xhDTFsDNjYPyis7+BlHD+TSFMqmxQAhAZZUeYrEZJBZmEHZBNG44QSAT6BjmSCIYsrOzERzcms2pK+kLQVBo1BDzBahtbkBsQRbUei3C3HwQV5ABAV8AL1tHWqZ5R/o5rFvyDM4XZiO2MBMf3/lIJzJAykNP8g3ttNlkviS3wumCdLw+a3H79Elo5dO/r6a07p3b7oerjT0tGc3j9F49NGR/XWzhDIEeEDCVBoFoAH7afAAP3TMHW/ecwL0Lphm1F6Tc8+yJI/Hlz39QrcP9C2ewkGejkBucjbRyJS3TTIScdeQcI9oDpUIN6V+70TAuCnGxSugM5jDo9HB25cJnfgAt19xCSAWJomlp9UUQci85zJsDImGrTwGfbwa5IAdRXgFITQUc7M1ha22O7DwdRkV3znFANAzGVCS9oRqEKwlCeno6AgMDe/T07wtBaLv1CEH4PeEEFsdMwa6LsZgWGImD2cnwsLLDrcPHoKKpDvtSz2GkdyAIqRjtG9LJJNEVQTianYLk0jy8MH1h+11eI21CRnkhFFoVxviFwVZs2f5dfX09MjIyqBaFCUOAIXD9CJiKIJAZaXV6rN28H48tvcXoCRKCMH/GWJxJSIdKraVaBJYTxWj4BlXDFr0BZSfiQP5LyEF6RRpCXEJpPYXmnHSknKsFQtwgEpnBdpQ7WnIqwOWYQRvpD3AuaxyqFVWIq4jFAv/b4efHhaXYHDyeGbTaFkhlLdhS/CHGuM6AvTYG1vZK7C3cgEVBj9Mq0ElVZxDmEI2k6rMItAmHncixR4xvKEEgQJHQRqJ6I3kQyGFJfkB2dt07RfQHQSDllD1sHZFeUUwTIDUqZDQkxMfeGdlVpRDxBQh0ckdqWQElBlGe/u0/bmKHJCTAWmiBACe3TiBfLCugGgp/x8ufE+/R9PJipJTk4paIsbDpUKlx06ZNCAoKQnR0dI+bxRowBBgCXSNgKoJAfAmI5BWVY1iAl9FbQHwWbKwsUVHd+lxzcTTOd8HoAVjDmwYBrUKJkhPxUMj1aDofj2QdMCIyHOWVchRsPYBClwBooEFMtDWUob4wV6phrlJTs8LF2gsIsg2GgCNALTcJheVy/GPmdBqKqDfokN2QimH2UVDplNiZsw6NmlpY8qwwzesO/JrxJV4e9QklJduy12C442gkVJ6Eq6UXpnst6BG/G0oQepxdFw36gyD0duzYggzINa3lmENdvNpzHMTmp0OuVdPPI9x84SixoX9nVpagrKmW/u1iZUfzKlRLGzDRP7zTWwQhSCQHBBOGAEOgbwiYiiA0S+U4dyEbU8a2JjkjVfGYMASMQaC5oAQSbw+cfusTFFvbACo91Pl5yMvXwsVCBwtVE5q4ElR4uKOem4iRATNQ6M6Di7g1pTJxWzlWvQ3+wtHg8logszyLIOsYBDp7wYJnia+T34YF1xp3BT2MClkJdC1aJFSewESPuThcvAMB1sMx2Wse8hsyYMG3oloE8sIr5IpQo6zEwsAHUSkrRZO6AcMcouiYW7N+xN3Bj9C/GUEwZpdZG4YAQ2DAI2AqgkAyKe49dp7af0mK9ntumzzgsWATvLEIkKJeyup61KVmgysW4uijr0F2zzzw03JRbu0Op5J8NEqBQmdvwDEbnnY+KBEq4BIcg735f2KOzzyIuCJkyc/B31eHoioZODw1lkYtQb2qlh7007zn40D+Nox2m4rU2nOQapowyWMuJPzWF05y6BMNQ1LNGRAHydGuU5DTmAaeOQ8RjmNQq6jE0ZI/ITAXokSWiyei/gWtQYeV8S/g2ej3YC2wYwThxt5GbHSGAEOgvxAwFUFQa7TYuf8MFCo1fdASZ0UmDIHuECgpSIcmqwJ8rpCmUk76eRsUs8fDctdRHLAZjZl1cdCMi0CJWIlyvhIGrjl8gsbifF0ivB0c0SA8A3mNB6Z4T0RooBUaVXUQcsWwFthC36LHmosr4WHph4nus2ElsEVC5SlUK8owz++eq6a1O3cD8psy8HjUmxBwWp0b26SkOR/xlccQbBMBf7tQnCrdB3Nw4G87DD7WQTeWIFAfhKZG2Nq02uYaGuphbs4xaarln88cwAPjZ3d7dycW5yDaK/C6fgHp5YXUzNBmaiCdkJwHsQWZNIZ6on9YJxPDyZyLtMZDsIvnVeMlFedihFfAdc2DXcQQGGoImIoglFfV0aij5LQ8XMgswJvPLB1q0LL19gIB8rzf/stPEDVpEeLug4rETGRXlkPv4YSWzcdRMWsUHC8mQhETihpNPVxHTYeWC/AEYlTrszA3JhxfJ70NZ0EAJjncBxenq8NjydmpbyEVhTvnMLjWNDV6Df5z9jH8Z8KPMDe7dqit1qDB3vzfEe08AW6WPjhc9Af1U5gXsAjeNv69WH3XTa8rUVLHMEeSFyEvL4867XUnffFBiC/IwEjvYHx2aCskAhGNbxZy+RDyBPC2d6KOiduSTuKh8XM7TUGuUmJL0gnqezDKOxg7kk7R773tnJBQkgsuh4PHJ92GqqY6NKgUGNmBYBDVpEylwGeHt+GV2fdQB8g2qZU20fLS8yPGYO2Z/XCxskW4mw98HVxR3dwAJyvm2NQvdyfrZNAjYCqCQMgBcTjcvu8MNFotnl7es3PXoAebLbAdAeKErtTIIeZbQq/RIDe/BPHP/wdmMiU9X1QiCaQhXrDKzEGWOQ+8MCtaHCmvLhPhXqOhHxZC+yKJi8JDW5Np1SmqwecKIOFfXZeInH+EIHQnhAiQekDuVj60rz15v2GG9+2dLiG5h9rSL5O236a8jyci34SZmTnOlh+Cq4UXbgtacmMzKXYkCMS+d/HixR4rHvaFILQh9OLW71GrkCLMxZMe2I9PuhVbkk5hacxUHMtKxtTgVoeNNll1bBfyqsug0mnwr3n34fnt3yPKzQcPjp0NIYcLLo+HZpUCWq3mKoJA+sirLqfhksM9OieBIgSBlI++PWo8UsryEenud819l8vlsLCwYD9LhgBDoAsETEUQSBbE91dvwqiIAJRX1uPhezu/PLANGdoIqHQqxBeewFivKcjY8BcycgpQn1WIDI477IQ6SDgaVOosUdegRORwS3B97MGrrsdxy3ismLQEJU1ccDmAny8Pl8olXANQM+pcSAoFRruPx7mSk7QNOeDJQU++I6YHcjbyOUIEO4YjvSoJY72mQUPmV3qStmtNr9xKLmxFDrR6dL2y1Zn+WnJDnRS1Wi3NpEjKPY8ePRqnT5+Gm5ubSTMpEhDIG8G01a9jvFcQ7EWWUOq0aFBIMcEvDJ52jnhn329wt7bHj0ufa8dMplbhhS3fQiISYWnMNHx+dAc8bR3hLrHDlIBwWIjEaFLK8d2pvZBqki5nJAAAIABJREFUlNj44Cvt1zYrFZi8+nVatfLU0x/SMMg2WbH+M5RJG/D5HQ/j5d3rIOLysGnFqzTqoU0KCgrw1Vdf4dNPPx3av0S2eoZANwiYiiCUVdbBYNAjMTWPRjO8++Jyls+A3YntCJQ2FeKPTfvhmN4A1cnzUCm0uGDjD+8pjkhP02DsaCtk16ZBrpIi2mMsFKF+8G0ogu30IIiFElhz3JBengVnBwGcLN1gL3bGxcrz9PhvEw9rX/jY+tNPyEGv0ilQLatEcWMuAu3D4Sxxw/nSU7ATO8LZ0p2WcE6vTkGoU2vkzZmiwxjhNhZCnggXKxJgZ+EE8xYzSITWSKmIbyUNlD+0pliW8K0g1TTfWB+E673H+kOD0HHsL47+AU8beywcMbH9Y2JH+unMgUtwAfMjxsFR0n0Z6o59nslNQ2ZVCf0owNENk4Na0yonFmUjuTSf/u3n4Iqpwa0b2J1UVFTA0tKS5opgwhBgCFwbAVMRBPLwPHQqEWcTM/HQ4tnwcO05wQzbo8GPALkviGr+8K6fsHPvUUxqcEChbTCc4nYga5QPdAI9PbAbVfUQR4+Fg5YPXl0z9CEBCDaUQDTCGwEOYRDxxChrLoZWr0ak6yhKAZRaBX3z53L5UKilcLRsDXvsKDqDFgqNAlbC1nOpUVlHtQj24qsrDVfLKuB0qY+OdYDUOhUyqy/QipBivgSE7DSp6jHCbRzSqhIR5BB+Y00M13Mb9TdB6GoOxOTRJiR/diu3Mk7IzdOmyiHzbcug1tXnxvXKWjEEGAJdIWAqgkBMDN//thfUWVGnx4evrGCbMMQRqG9SoyL1BKQ2Zig5nobkE+WoLgECJlhAwGmBGY9HQwyFru7g+1lCpmo1DxP7/kjvSAhEGdCLuYhwHUXNA82qBnqwc8z/3vT75DwiPgoOFs5UY6Ez6JFZnYJwl5FILo+Dj20gIwhD/F5ny2cIDAoETEUQSCZElVoDz0uaA1KwicnQRYBo43ftOwP1m+9Beus0yAwG2Cek47ynOXQcNYa7jqIvhGoPZ4g8rBDox0PSBQ1V398xdhzEQhFkLSXwsvFrJwRttRkGAqqk1gOfI0BObRq8bPwhuFT3oa9zu64oBmmzFBKry6rzjk6LXU2oLxqEw5lJmBEy4qquz+SlYbx/mNEYEH+D1PJCTPAPQ0l9NY02EHB7DjkxegDWkCHAEOgVAqYiCM1SBT79YRuC/TxoqDIpusRk6CJQ+P/snQd4lFXWx/8pM5PMJJPee4UUeggtIVSp0uyIIBYsa9tVdNVd17buupbPta8FxAqKqPTeW0gICem99zppk2RSvudcTCAqITNkIOVcHx6H5H1v+d2Xuf/33HvOSc/Frm27YXosGurqciTaDsek0kzUz56MZqkhTDQdkHs4QupnAScLZ5hZqlGQZwQ3NwOMdgkZMOA6D0D2VYe1Fghkwi8rK4Ojo6PoQ15enjiw6OBA5o7Ll6sRCD/HnsCiUZOw5dwJKE3kIqNVqOdw7EmMFomb8qvKRaKm3JpyLB05GdviTyPIyUPkVvjp/EnIJTJE+I7Ax8d24KGpCyCXmqCopgLWCiVMJJzvva8eJq6HCWhLQF8CQdt+0PWUvyE9uwBB/p44fOo8zM1MMW6EbrFVdGmf79EPAXrT/+m/n6EmMh7xNS0IVLShMa8JNjePRp2hHFZ+ljCrNsWYxeNQUJeFULep3baXh3KyLq0FAk3hpRaD3NwcyogMT09PvQmEzoqf+OEjFDeoEGTnir/NW45vow5ixYRZ4tzAoz98hHduWoOvTx/AnRNn4aUdX8FJaYVbx0XgXGEmXC1s8W3UIeHj+o/5K7r19dJzB/p5RLlWJsAE/oiAvgWCNmbgqPOpKCypwJIbpmDnoShMCQmEhTm7KQ+0J1fTooFEKkHi+QRIZTK0q9U4/vzbKKnSQD3WB9UlCnh4STBmnAyZcl9MHWUHd3N3mFhZQiXOFfCB1s4511og0D84siCQ1YASFqmb1KisqISrq6teBQK1+9SPn8DQyAieVnZYOGICtp4/jXlB40Vmx89P7sVD4QuQW1UqTIpbzp/E0pGTUF5XgyaNBrMDxuKbqEMi7sHa2bd06+u7776L4OBgzJgxY6D9W+D+MoEBTUBfAoHOH3ywYRv8PJ2RU1iKx1Yv6RUnSve8aNYkVNbUYt+xGNy2MILdI3tF7vpepFarRYZhiUSCuLPnMGLMKGxc/xV8hvujOD0Pheu2INl5JEYFmwmPA4nEECMne6FBPgpTQ34fEff6jqb/tK61QNC161ezxaBrm729780338RTTz3V28v5OibABPqIgL4EQkl5NUorqpGeXYS4pCy8LOIgXLnTe45GY9aUsYhJSEdeUTmWzZ3CAuHK2K7rFRVl5eKltbmpGR5eHshITYetgx1eefpvWHjTEiT+sh/GxvaQu9vC2d4eZpa2sJAAk26djpYOI5jI+ADr5SaQBcJ1fbS5cSYwtAnoSyCQxTEhLUdYAR68cyFkUgmMOOXzoHvYmtRNiD17rkv80Rk5ckGMjzsvzsVt/eFH3LhsCfLiMyFRmMJv+hIE+dnAwUY+6FjoY0AsEPRBletkAkygVwT0JRDIgvD+hl9w24IIbDsYiRpVA15duwpSybX1We8VBL5IZwL5efkoyi8QKb0pXsE3n61DSWEJbll1p7AmkFA0MjTA2b1HETQ7AGGTF/XKkqRzhwbZjQNCIKga62Ehp72j/l+aNS2QsWdE/58o7mG/IKAvgVBcWgmF3AQbfzmMjPwSPPPQLSJgkoMtJ1LrFxPfB52gxT82OgbbNv8EB0dHREeeQcTsGfDx9xMh8jvL8KAANKpUsHd1gZERC0Rt0GstEGhSKioqYGdnJ/bmSkpKoFQqYWpq2mO7V3MG4a19P+DJXw8W1qgbYCqRCmVI4SfJTbG9/cLnplYNjAwMu2JUm8m696mhpQkSI2ORH16taaYQWbA0VeDz47swN2g8XKxsu40hOicVtgolPO0uhsxsa2/D15EHcPPYcChkpqA6ZUYSkZCDHsqo7BSM97qQ6YsLE2ACPRPQl0CgSIrxKVmwUJpBo2nDwVPncO9t8yDhgEkD6pGk7+qsjEwRd8fesbsrfXJCEhJi46CqrsGIsaOhaWmBRHrRbZ3WJBNTU/gO8xO/k5mYDKix94fOai0QqNOXujkWFRWBshb6+fXsL3w1AkHT1ioW9he2bcBNY8JxJicZCqmpcGMsUFWJtMt//XkdHp66EMczElHZUAupoSEemrZYxE2gcjQjXoiHnKpSBDm4o6qhDoZGhvB3cMUHR7bBx9bxd+miG1uaUFJdCW8Hl25zRWmn7ZRWIovk1vORcLW0ETEXrBXmoDTRJBa4MAEmcGUC+hII5MXw8Tc7RQekxsZ4eOXCK3eGr+hXBPJyctHS0oLK8gohEAJHBIv+pSalQCIxRnlZOXb9vA2zFswV3gvkWSc3V6C6okq8JI4LDekSDNq4u/YrCNe5M1oLhE43RxMTE2E5qKurE8GSyE2wp3I1AqGz3pd3fIUlIyejWt2AvKoyhPkGYWfCGdwydirePrgFz8y+FV9F7oeZqQJyI2NMDxgDB/MLJsXjGQlobm1BQ0sL3CxtYacwh0wqE9kcT2QlIqeq7HfxEcgaUFFXjRuCJ8DoV5MVZZX86Og2+Dm4YoyLN45nJsLPzhkjXL27nXZubGzEJ598gieeeOI6TzE3zwT6LwF9CQTKwaBpbUNsYgYS0/Pw7MO3sTdC/30M/rBnCXHn0VDfgIa6etg62GPkmAtJ8iKPn4Ja3YjD+w7Cy9cHtIXg5eMNpYUFpDKpEBQmpiYwVyoH2Ij7X3d1EggkCmjBp0yFNTU1ImuhsXHPezt9IRAIX1xhNgIc3FBaVwMzmYmwFliamqG0vgauShsU1VbB2cJKHFihVE0yyYVQyrTAZ1WUwFpuhsaWFvF/A0MDcbhF1aSGsaEhbBRKsVVBhU7CppUVCouAv71z18xRjIVCVSVo+4LuKamtEYdeqE+XRtyKiYkRWzE33HBD/5t17hET6CcE9CUQKCpifb0ah06fh0bTitsXRfSTEQ/tbtTV1v7hwi28D359CaPPFM4/NSkZVRWV+OX7H7F89UqEz5yGOlUtXnr6eagbG3HzXcshV8jFfWNDQ0QcBC59S0BrgaBr830lELRp/0RGIuqb1eKWYBdPuFh2P2Pw27qSinKRX10ufuxsYYMRrl7ic0ZZITLLi8VnRwsrjHL10aYbfC0TYAKXIaAvgVBWWYOKKhUC/TyYfT8hUFhQgOLCYmH673yZam9rg7qpCUlxCbCysRaWgabGJvGi1tjQiJTERDg4OqG0pETENIg8dlJYB0aOHQ1TuRyZ6RmwtbWB7zD/fjLKwdWNQS0QBtdU8WiYwOAjoC+B0NDYhDc/2QwbSyVoW/CJe5cOPnjXYUS/3cvv/PuV9vgpiNH5c7HCYjti9EjIFQpxTiApPkFYC9paW2H8q7WXhkXBj3746jt4+/mIMwabv/oOt666E++//jYeXvsEQidPFFbrtrY2YUEYyvkS9PkY9IlAuNLDQQO4HhYEfYLjupkAE7h6AvoSCLQ1GB2XChMTGTra2zEqkK1+v50tWlx7a5YnUz+94RcVFMHFzQWqGhXMzM2QkZIGbz9fJMbFI3BUMKRSKVpbW1FdWQU7B/uuJpMSElFboxLrgIeXJxydncQ2wbmoGFAGws/++wGmzZ2N4UGB4p7tm39C8OhROHH4KF7/8B3889kXMGfRAhzYuQe33HUngkb1fObt6p9MrkGs2x2dmYouw0Oj0VxwG/y10EMVFRWFiRMnip9kZ2eDrvH379nE0ykQqqqqsHPnTqxY0T1hEk8HE2ACQ4+AvgQCHVJsaWlFXHIW4lOz8dyfbu/mGz/0SHcfMX2npyYmY3hwoHgL7xIK9F3/Gy8s+n6PORMNL19vFBcUibf60qISWNpYi9gDlJOHvt9tbG3EocG8nByRnydkQig6EyedPR2F7T/9jEnhYXB2dUHgyGAhMp5+6DEsvv0WKMwU2PDRZ7jnkQdAPmB0/aSIMFSUlmPBskX45vMNsHW0g6ZZgzGh4+Byhdw/Q31++2r8WgsEarjTzZEeiri4ODg5OcLO7qJa/KPOXWpBWLduHe65556+GgPXwwSYwAAloC+BQIvec//5AhXVtbhzyXTMmDz6qgj99nBdS3OzyBSor0L9b23VQCbTzXc/OSFR7MvT4q6qVsHJxenXaIMGYjFPSUiCSqWCrb0d6lV1GBUyBjVV1cjLzUVAUKBwDywvLYXS0hLff/UtjAyNMGrcGOHSbmlljYb6OrFlYAAD2NjZwNb+wvc/xR74/IP/4Y7Vd8FvmD8y0tIRPGokHr37fhGkaNb8OfD09RZuiS0tzdi3YzfKikpx5/13IzsjE/t37EZbaxv+/LdnEBAchPy8PPj4+SI/P18kX3ri2bVC0JAXHRf9E7hqgUAn9YuLi7Vyc1y/fj1Wr16t/9FxC0yACfRrAvoSCFU1dXh/wzY8uWYZFKa9W0w2bTsCY4kRbpobBjrkuGX3CTx45wLBLyH2vHhDptC+o0PGIjMtXSxg+iqNDQ2oKK+Au+fFQ5YFeQWorKjAqLHdxQ4tmGTSp8WeClkHzkWdhZOzM5qam6FubBDRBePPxmLvrt2YOff3nlXWNjaorroQP0Bk6rWyQmNjgzgfsHfbTvHz2QvmidgxtOdPZwk+fvs9rHn8T/jl+80IGBEstiDoHMHBXXsRNHoERo8bK+IY0PXRpyLFWEqKSxA8eqQQA2RB8A8YhvUffoJPN36FxPPx4uXT1d0NDk6Ooh+d1o0mtRrZmdkICL6wBcHl2hDQWiDQg1JfXy8mXaFQoLa2VnwmV8eeyqUWBBYI12ZyuRUm0N8J6Esg0LgpWFJqVgHe37Adn/77sSuioIis2w+eFumej56JR21dAyLGB6G5qUmclu8stE+ekpgEv+HDYG1j/bt6KysrITWWwMzcnDILXzyxf4kr35U6k52RBXWjGoEjL4iQ0uIS5GbniM9kuqeFWkSTJTdtlQqZqekImRgq2qKfRZ2K7DrE17lFvOuX7WLvnxZZijBIha6n39MfekMfO2E8zpw4heX3rBIu3hvXfwkvP284ubiI/mSmpmHxbTcjNysHGalpmDnvBhHJ8ODuvXB0dhZWjxX3rcb//fPfuOnOO0S9dF9VRRWc3Zyx/cefIJXKkJWWAUdXZyy9/RbR30nhU4S1Iz42DiNGjewWEbGTVW/Oul2JK/9eOwJaCwTtqr94dadAIIWYnJyMMWPG6FoV38cEmMAgIaAvgVBb34gdByPh5eaE0YHeMJFdDMHbE7qt+09hXLAf4lNykJCWi9vnT0Zh7oWFmQ7Vtbe1w8LKUhzEo++03Kxs3Hjz0m4m7/hzcVCr1eIQn62dnQgRTItbSmJyr96AydSfmkzRAiXCv58OCJKpvnOhHzdhvFj8qY2s9EzQ2zX1x8bOFr7+fuJNvL6uvmuYnaLho7f+izvvvRvGEmPhRVBeWobjh44gcESQWNxjzkShIC8fpqZyWFlbCoEQPn0aFEozYfannAf0Mhg0agRKCovw0JOPo6KsDGTZ6MyiSGzIKrDz522IPh2JKdMisPuX7cJFkWIW7Nu+Cx7eXjBVyJGakCQ8FGQmMmFtoMIioH/9w77mAqF/DZ97wwSYwPUkoC+BQMGRvvrpICiwmcJUhuWLp/dqmIUlFXBxvBAvhQ46mhgbID0lVSzCtEDS/+9ac6/4PZn1KdQvmdnJLF5VWSnao0h+nYX28v2G+YHCBtOiTXv0cjOF+GxlbSVO9Bfm5cPZzbXL0pCTlS0sBlToYGBOZrZYOFMTk5Acn4TnX3tRWCeovfSUtK6FlT64uLmiqKCwq/246BjkZGbBydUFrZpWhE6ZhOqqapw8chR29vYIDZuEI3v3o6VZg7AZEaLvSitLccZgzPgQtDQ1Q2FuJqwE/gHDxdYFeRY88vSfxRYAFbKuUMRDElC0jeDk4oy05FQR6IjEwS13LcfY0HGiXRqXhaWFuK+mukb839PbS2wpcOl/BFgg9L854R4xgSFDQF8CgRb35hYNUjLzEJ+ai7VrbtEpzW9VZZUQCHFnzyFgRBDWv/8/3Pf4w+LUP5nYj+w9gPseexh0ZqCosBDevr6/88mnxZzOLHQugrQvTyGBKRHRxCmTcT42VoQKNjYyFgmFYs/GCHM7lbKSUpw6eky8iR8/eBjDggIxOSJcvKVT++QtQOLhu3VfYvrc2WILgSwG9IfaJNM+nfrfuulHLL79ZvFz2mrwG+4vtkio0P0Up4AsHmQBIJFA/SHLB50BoEIWArJo0CHFkqJicXDw0tLa1orC3Hy4ergLNnSeIel8Ik4cOoLVf1ojxAiVooICMUbanqacCiQmfpuEacg8/ANgoFoLBHqYyFXRxsZGPGxlZWXC7ER/76lwHIQB8DRwF5nANSagL4HQ0qJBRU0tft59Ei2tbXjiniU6jYwOCtJC/N36r7D8npU4uv8Qxk0MBb2Z00JaX1cnovrRW7uZ0kwstOS/TyZ8MqnToULKEbDu/Y9x0523i62Inzd9Dw9vX4TNmCoC/sTFxF44C9DeLqIE1qpq0dzcLIIFkUme6qNth4jZ00WCIqlEgoCRwcIT4ezpM5gUEY6UhERRR8ikCcJSQAcHFQozzF26EOgATOWmaFI3CTFAVgvKbkhtUH9p0bewtISnjxepBZSVlsHNw10nXp030ZbHueizwvthzPhxHMjoqmhev5u1FgjUVdr7IlMZubhQSMzc3Fx4enqyQLh+88gtM4EBSUBfAqGvYNB+/rr3/wdrOxvMW7JILKA/frMJYTOmiVTD5Off2tqC5159USz02ZmZiD1zFmUlZcJ174cN30JqIhWZCOlwt6qqBvOWLMSHb76Dh556AuMnhiI6Mgr5OXnIz82Fg5MT0pKSRYCnurp6jAkNEdsXnYW2FehNnURD1KnTcPfyxOE9+3Hb6hU4uGufCGJEZyBoK4FCEdMbOr3R0yJN2yONDWpY2144WElWARINtDVA5xf6utDhTolEKg5UchmYBHQSCJeme6aHrKZGBWvrC1kTL1fYgjAwHxDuNRPQJwF9CAQ6f9CgburWbUtlz15WlxsjbTGQSx6Z18lSQGX7T7/ghvnzxEHCU0eOwcTEFCsfuEe85dPPqNAWwLuvv43gkSPg4OwEiVSCk0eOY8bc2QgMDsQ7/3pT1PvW/97HWy//C/ZODuL8AH2fKszNRQwCTx9v4Z5IYoPOBFxIYlSL9ORUVJVXoh0duGHhPNEeWQa2fLtJvLHfsnK52KKg8wC05UC/60yEpM+55LoHHwGtBQLtSaWmpooDKj4+PiKSorOzc9eBFRYIg+8h4RExAX0R0IdAqKmtR3b+hUN+VMh9cdwIP52GIM4LSC/vAVGrUol9eivrC2/l9Nacl50Ln2F+wkuADuSRaCDPAHqbJ4urhYWF8Dogr4JZ8+di01ffYN7iG4UYaG9vE0LAzMxcHC6kmAGdhfqSl52Nz979CG5eHpi3aBHKy8vEr6n+1194CS+9/Tq8fX3ENoWllaVOY+abmEAnAa0FQqdapf93+tD2JlEGWxD4oWMCTOC3BPQhEKgNioHwl1c/QWtrO2wszfGvZ65fYLbLue798PV3IiARWR5uuvO2rsOF1H8SEOQZ0Hniv5MbiZEn7n0IL/znn7C1sxUhkKmQ62NWeoYIddyb72N+EplAbwjoJBB6U/Fvr2GBoAs1vocJDG4C+hIIxaWV0LS1i4RN6TlFePpB8mKgKP/9pyTFJ2LHlp9FYCGyLvS2kBskuQZSIYtFc3MLlBbK3t7O1zGBXhNggdBrVHwhE2ACfU1AXwKB4hE0N2twLjEDmtZWTJs4qq+7ftX10VbCM396HK9/8F+tzghwMKGrRs8V9JLAVQsEMoXRKdkrqXO2IPRyRvgyJjCECOhLILRoWvHFD3vhaGcFI2MjLJge2i+p0vcnRUXkwgT6IwGtBQKp14KCAri5uQk3x9y8HNTXNyAwsOckGp0C4e2330ZQUJDIztXY2IglS5aIfA579+4Vhx7p8OPZs2cxfvx4lJaWir9bW1ujqKgIs2fPxl//+lf87W9/w/bt2zFv3jx8+eWXiIiIEL68hYWFIu00XU/5HqgOcsG0t7dHeHg4kpKSUFhYgL/85cmuuaDTvtXV1eLvdN+l/1iPHDkCb29vMVYuTIAJ9D0BfQmEkvJqER7YxckWL73zDf7xxJ1933mukQkMcgJaCwTicambIy26ZEEYNuxCVK7LlU6B8OGHH0Iul+OWW24RC/P999+PXbt24bvvvhN5xWnBTkxMFHEW1qxZg8jISBGYidx0li5dihUrVuDrr7/GF198IQQEReQiIRAVFYW7774blChly5YtiImJwfPPP48DBw5g0aJF4qTxtm3b4OHhjkWLFnd1k8QOiQkqDzzwgBATnWXHjh2YO3fuxVzpg/xh4OExgWtNQB8CobC4AidjkpCZWwxPNwfU1atx/x0X3AG5MAEm0HsCWgsE2jejhZlcf2xtbYUlgCwAAQEBPW4zdAqEV155BVOnTsWpU6fE9QsWLBCBl3bu3ImZM2ciLCwMTz75JBYvXoyEhAQhAOh6WvRJHKxcuRIff/yxEAm0oH/++efCIkGFkkCRNYH6Remkjx07Juq69957hXXByMgQmZlZQpRcWmhMVH7rK8wCofcPEl/JBHQhoA+BQP3o6ADiU7JQWVOPkcM9YWN15UN89D1QVFoFZwcbJGfmwVQmhbe7ky7D4nuYwKAgoLVAuHQhpX9Q9Kcz9ndPRC53BkGXAze9vefS62ivj/5OAU96W/bt24dx48aJrQcuTIAJ9D0BfQmEssoa5BWWIWSkP5759zq8/td7rtj5/cdiUNvYiGVzwtDU1IKDp+Iwf/r4K97HFzCBwUpAJ4GgCww+pKgLNb6HCQxuAvoSCKq6Buw5chZTxgfh029348U/9+4MAqV7XjRrEk5EJ4pgSyuWzhzcE8CjYwI9EGCBwI8HE2AC142APgQCWQrbaY/hkmJk2Lt8ANsOnEZE6AhUVNciMjYVt98YcUUPresGjxtmAnomwAJBz4C5eibABC5PQB8CoaJKhaT03K5GKdTytEm9i4Pw1ic/4vF7lmD/yVjEJmbi0VU34r0N26CQm+DBOxfgnc9/ws3zw+Dl5qjXaa1vVGP99/vwyKob8fanW2Bva4k7Fk3D+19uw5ypY9HUrMHJs0l4aMVCGBrqNwAUtWNvYwErpRk+3bQbt8yfiuSMPMQlZ+HJ+2/C1z8dhNJMjlsXTtUrk5yCUuw8HIVb509FQmo2ohPS8cQ9S7Fp2xHIpBLMmToOH3y1HSuXzYCzQ98nn7p0cD/vOQnylHngzvl494tfYGtpjjuXzsTL//0Gi2ZPRGNTM07HpOCxuxfD2NhIr1z0WbnWAoG8ATIzM4U7Ibk5ZmVnCYWtz2yOb+7bjKdm34ztCWcw3W8EFDJTweR8fiZGuvl049Pa3oaYvHSEeg7vkVtFvQpKEzmkxpc/k3C+IAvu1vawlJsJL4jI3FRM9u7ZnVOfk8V1M4HBRkAfAoEY0RmEzzftweJZE8VZgtq6Rqx94GZIJD3HHNi09TCWzQvDz3tPwUqpQNAwD2zafgzLF01Dbb0aXm4O+PvbG/DaWv2GblY3teDtz7bgqTU3QVVbj7TsIsSnZuPum2fjSGS8WBDHBvsi8lwKbpg6Tq+PRWZuERoam1FRrcL0SaOx/oc9qK9XY07EOPh7uyEzrwilZdUI9PeAlYVuSbF6M4DOM2WnY5JRXF6F+dNDsf/YOdjZWsDQwADGRoYYFeiDF97+Cq88ubI3Vep8DZ29i0nIhJVSDrnCFLkFpXCytUJheRXGj/DH0ch4TBwbgONRCZgTEaJzO9f7Rq0FAnW4082RhAGVUgxJAAAgAElEQVQJBMofPmHChB7HcjVnEOqb1TCTmeJgWhwkhoYiMtoknyBsOLkXD0YsxLGMBCgkUsQX5mCSdwB+jj+NpSMmobiuGm3tbUgpzcfy8TPw7z0bsWTUZIz3HIYjaefF/5s0LaLe9NICPBKxCKcyE5FaVojHZy4DtUttWSnMxdhaWlsh5aAm1/uZ5fYHEQF9CYSi0kqxiH639TByC8vx9IM3o6O9Q7yJ91S27DqOG2dNxIET5+DkYIP6BjWCh3mKA48ymQQ+7s7463/W441n79X7LLz6/kY8/6fbkJSeh/MpWULkrLp5Ng6ejIOpTCIOYB49E48FM3r+7r3ajpaUVaGsUgVvD0cUFJVj3/FzuPe2uVA3NaOuQS0SUJWVV8Pf2xXWllf2FtG1PxQdc92mPVh9yw3YeegM5k0fj52HouHicOEQOW0jjQn2xTP/WofXn73yoVRd+0H3lZZXIykjD8O8XSGRGCG3oAwjhnuJ6J37j5+DpYUCk8YGiLlaMKN/Bunqzfh1EgjklkgBjMgtkIIdUSwBsij0VK5GIHTWeyAtFqHu/tibeBbLxobhq8j9WBE6E4nFucirLse+5Bi8sex+bI0/jbEuXjiQdh4LgkOxLf40Vk6Yha8iD+C+KXOFxaOwqgwKEznK6qrR0NwEYyMjkSr1bG4acqvK8fy8O1DfpEZLqwY25hbdhpaXl4fo6GgsW7asN4z5GibABC5DQF8CobW1DceiEmCuMIW6WYPc/BLcsnCqEA09lVNnkzB+9DDExGeADjr6eTojI6cIUqlEfOEfPh0HRztrsRjou3y/4yhumR+Ow6fiIJebYLi3G07HpsDD2R4GhgbirTV8fDBMTWV67Uq1qg6q2gZYWZojJiED/l4uIAFWW9+AKSHBworR3KLB7PCxej2vcS4hA6UVNXC0tYS6RYMaVR3CQoMRfT4dUqkxAn09EBWXAid7G73Pz8Zth2GlNMeI4Z6IS8oU4x4Z4I3k9Fy4uzigUd0srBz0zFiYK/Q6P/qsXGuBQKaViooKIQ4o3gB9trKyumIwob4QCOfyM+Bv74r4omw4Ka2RXVkKK7kZnJRWSC7Nh5ulLbztnHE6OxlSI2OMcvVBZHYy7M0tYWGqQGJxHpwtrOFp44DT2RfytpPF4WxeBkyMJQh28cTR9HjYm1nA3cYBsfmZ4pqJXsO7bUVs3LhRuD/6+emWQlafE8p1M4GBREBfAmEgMeC+MoH+SkBrgaDrQPpCIOjadl/fR+cRKHokFybABK6OAAuEq+PHdzMBfRJggaBPulw3E2ACPRJggcAPCBPovwQGhECgbY3fhkHWF9LeRmnUV/tcLxMYSgRYIAyl2eaxDjQCWgsEMq+npaXBwcFBhCDOzs6G0kIJG2ubHsd+NVsML2z7Ei/f2Du3FQqQ8t7Bn7EmfD5MpRcP75C3wucndmOMmw8m+1zI3dBZUkvycTwjAfeGzcPprGQ4mFvCy45jsA+0h5n7O/AIsEAYeHPGPR46BLQWCISG3rIpFfKMGTNQVV2FosKiXqd71gVtsaoSThY2iMpJxa6ESAQ6ecJSYY7DqeegVChhKzdDckkeLE3NhffBV2cOYvGICVCadj89Sv1+6qfP8Nay7sma1p3YhVkB40TMg4ZmtRAWhga9i7ymy3j4HibABC4QYIHATwIT6L8EdBIIsbGxGDlyJIyNjUUq5qIi/QqETnxVDbX49swh4ZEwO2Asfo49gZaONgQ5eWK6/yicTI9HmP/IywqET4/txF0TZ8FEIu02Iz/FnURccS5enHtHt5/T1kZDQwPMzS/EQeDCBJhA3xJggdC3PLk2JtCXBLQWCM3NzaA4AJQVkaInUgwEMzMzWFr2HIDkarYYOgd8LO080suLMG3YKBTUVCC7rBjjPPxR0VgLqaERZBIJRrv64KOjO+Bn54Q5QRczsRXVVOLbs4fhYmGDO0KmdWO4LylaxECYMXxM95/v24fRo0fDzs6uL5lzXUyACfxKgAUCPwpMoP8S0Fog6DqUvhAIl2s7KjdNRDyc7NM9DPKBlFjUNTWK28a6+4otBCr7k2NQ39wkPk/wGg4niz9O51xYWAhnZ2e9Bv/QlSffxwQGAwEWCINhFnkMg5XAoBAIg3VyeFxMYLATYIEw2GeYxzeQCbBAGMizx31nAgOcAAuEAT6BWnS/rY3c1Q3YIqsFs+t9qdYCgQ7ulZaWQqlUQqFQoLy8XJw/oDMJPZWr2WLYmXAG84N7l/Cita0NxzITMMrFG9a/Jlnq7FdVQ53YcvCwcejW1Z1J0bA3UyLE3R85lSVQyuSwNtNf0pHrPencPhPoLwRYIPSXmdBfPzSaVpHoLjuvBN7uTpCbytAZ24ZEg5HRBY8xSsut79TV+hvl4KxZa4HQ2toqFGCnm2N9fb1we7zSSf+rEQh7EqMxJygE5O4YnZsGPzsX4YqYUJgtEilJDI3RpGmGxFiCkS5ekBgZ47NjO/FAxMJus/ZL7Ek0tjThjtAZ3X7+c+xJkZPBQWmF3MpS2JlZQC4zGZwzzqNiAv2IAAuEfjQZeurKzgORqKlrhJGRAWaHj8N7G7bCwdYSZnIT1Dc04f475uGddT/BztoCcyNCrphxU0/d5Gr/gIDWAoHqKC8rh4WlBaRSKa6FQOjs997EaKSUFWJ2wBiklBagoKoMU7yDUKmuR4TfCBxOicXsoHH4KeY4wv1GwM78omcFpXNOKy1AdlUpHpm2uBuKuiY13j70E/4xb3m3n5PKpdTWcrmcHx4mwAT0QIAFgh6g9rMqKRW0scQYJ6ISMCU0GEcjEzA60BsV1bUwkUnhZGclUmh7ONnjpvlhCPB162cjGLrd0VogkCBITU1FS0sLJk2ahJSUFBEG+Vqke/7g8FZYmMphbiJHZlUplBIZTCUyOFrZ4lRGAqrVDXg4YiG+Ob0fJkYSPD2ve1wDipj4TfQhvLzwYlRG2pL44tReYYF4ZPqSbk/C2bNnRayHUaNGDd0nhEfOBPRIgAWCHuH2k6ob1U2ITcpEZVUtwkJH4ERMMkb6e6BKVSdeMr1d7bH2X+vw0IoFcHe2hZmCX8j6ydRBa4Gga8evZovhSm2+sX8z6pvUeGnhXd0uLa2phKa9VfzMSqGEQmYqPpfUVKL1159bm1lCfklI5ksrOHnypBBB1HcuTIAJ9D0BFgh9z5RrZAJ9RWBQCITLwVBrWtDR0S5+LTWWwNjwQormS38uM5bCyJDDKvfVA8X1MAFtCLBA0IYWX8sEri2BQS0Qri1Kbo0JMAFtCbBA0JYYX88Erh0BnQQCeTLQ3jwV+mxkZHRFM/zVbDGcyU5BqNfwXlOhjI6Gf7At0NjSDBNjye9SR9P1dLkBDFCqqoKpVAqlqVmv2+MLmQAT0I0ACwTduPFdTOBaENBaIGg0GtTU1IiUz1OmTEFFRQXKysr0ms1xw6m9WDXpBrS0ahCZlQx/B1eYm8pxNjf9Qvjkjg60dXRAaSqHQmqCI+nnMc7dr5sXQ0F1OXYlRqGmsR5rb7i1G9v1J3ZjgncAAp08kFScCyelNax+E0PhWkwGt8EEhhoBFghDbcZ5vAOJgNYCgQZXV1cnshw6OjoKN8fa2lqRs6CncjUWhM56dyWcQWFtNYIcXJGvqkRtUyMczCxgZCyBvcIcZ3JScX/YfOxLjgElZ7ovbF5Xl2qbGvDvPd/DTGaC536TtfGXuJNILSvE2lk3X9ESMpAml/vKBPo7ARYI/X2GuH9DmYDWAoGyOZL7HwkCdw93REdFw8XFGS4urnoXCL/EnhARDrMrSmEhV0ApM0VWeTHcbB3R0daGjPJCrJw0G+fyMpFckosHwi8GSsqvLsfepGhQzIMnZi7r6mt7RzuOpsfjTF46np51c7cx5Obmoqy8DONDLmaFHMoPC4+dCfQ1ARYIfU2U62MCfUdAa4FATVPcA4qeSH/oMxUKKqRvCwK1R+3QmYfONqn9PUnR8LZ1gp+9i/h5s0YjUj+X1dVA0/arm6PcvOv8QWltNVrb28S1Ngql8G4gT4bfujP+8ssvWLhwYVd7fYeda2ICTIAIsEDg54AJ9F8COgkEXYbTF1sM2rarUjeg7VchQDEQZMYX8kWo1PVo+1XQmMlMhQskFybABK49ARYI1545t8gEektgUAuE3kLg65gAE7g+BFggXB/u3CoT6A0BFgi9ocTXMAEmoBcCLBD0gpUrZQJ9QkBrgaBWq0WKZzq8FzIuBEVFRcKLYfjwnuMUdG4x0L1vvvkmXn/99T4ZAFfCBJjAwCXAAmHgzh33fPAT0FogEJK2tjakp6cLUUAujxQHwcfHp0dal55BWL9+PVavXj346fIImQAT6JEACwR+QJhA/yWgtUCgQEmZmZlwcHCAlZWVyOpIGR1HjhzJAqH/zjP3jAn0SwIsEPrltHCnmIAgoLVAoNDKFEmR3Autra1FJEW5XC7+9FQ6LQgkMD788EM8/vjjPAVMgAkMcQIsEIb4A8DD79cEtBYIuo6mUyCQxaGgoADe3t66VsX3MQEmMEgIsEAYJBPJwxiUBK65QBiUFHlQTIAJ6ESABYJO2PgmJnBNCLBAuCaYuREmwAT+iAALBH4umED/JaC1QKAzCHRIkQ4o2tvbg3Iz1NXXwdbGtsdRXo9Iiv0XO/eMCTABIsACgZ8DJtB/CWgtEGgolBPh+PHjCA8PR1Z2FpTmStjaskDov9PMPWMC/ZMAC4T+OS/cKyZABLQWCCQOKJvjuHHjROKko0ePQiKRICwsjC0I/EwxASagFQEWCFrh4ouZwDUloLVA6PRCIFHg5uaGxsZGVFdXw8XlQibFyxXeYrim88qNMYEBQYAFwoCYJu7kECWgtUDQlRMLBF3J8X1MYPASYIEweOeWRzbwCbBAGPhzyCNgAgOWAAuEATt13PEhQIAFwhCYZB4iE+ivBFgg9NeZ4X4xAR0PKVZVVcHS0hJGRkbi/IFUKoVCoeiRJ28x8OPGBJjAbwmwQOBnggn0XwJaWxDokCLFPiBPhunTpyM7O1u4OJqZmbFA6L/zzD1jAv2SAAuEfjkt3CkmIAhoLRDoJrIaUKFgSVWVVSgsKsSIESNYIPBDxQSYgFYEWCBohYsvZgLXlIDWAkGtViMtLU1YDLy8vIRYKCsrQ0BAAAuEazp13BgTGPgEWCAM/DnkEQxeAloLBF1R8BkEXcnxfUxg8BJggTB455ZHNvAJsEAY+HPII2ACA5YAC4QBO3Xc8SFAgAXCEJhkHiIT6K8EWCD015nhfjEBHQ8pUj4G2jLoLL/9+x+B7dpi6AA0jY2QKOR9x7+DEki1w8DQUNTZXFMLmYU5cEkfe2qstbkZhoaGMJRI+q5PXBMTYAJXJMAC4YqI+AImcN0IaG1BIDdHlUqF3NxchISEiNTPlPbZ3Ny8x0F0CoT8AyfRWt8Aj/nTxQKuLquAibUVmuvqxSJtYmPZrZ721lY0FpXBzN0ZTdUqtLdoxDWaxiZ0aDSQmpuhtaUF0S+9i8lvPCvuzfh+J7wWz4KRTAp1RZUQDjIrCzQWl0FqoYShxBinnv43wt75u7i+NDoeZs72UDg7oKW2jpw7IDGTo6W+AW2NTZA72onrTp8+jYkTJyIuLg52dnZwdna+bhPHDTOBwUCABcJgmEUew2AloLVAIBCdCZt8fHyQkpICmYkMnh6evRII2b/sQ3V6NkY+sgpx76yDy9RQIQ40NXXoaGuH+/xpkFkqu+oqjTqPzB93wczNCXUZebAdE4iSEzEwtbOGib016vOKMPnN53D+3fUY+dhqdLS14cCqtQh/7x8oj0lERWwSWmrqEHDfbUj46CtRx8Q3nsWB5U8g+M93w+/WhYh981M4TBorrA5p3/wMI6kMfstvxNE1z0Pu6oipH72C49FnhBAKDg4WcSD++eo/8fIrLw/W54LHxQSuCQEWCNcEMzfCBHQioLVAIHEQGxsLV1dXkcExPz9fuDr2Ng5Czo5DMDQ2gnPEBMS9/Rm8ls4R2w30xl6VlAETawtYB/rhjTfewNq1axH16nuQ29ug7HQsHKeECKtDxblEWA7zRltTM9QV1Rjx8F2Iee1DeC6dDYcJo3Hs0RfhsWA6JOZmqMvOh4mNFaRKMxQdi4IqJROzN72HrdOXC9Hgc8t8nP/vFxf6NG0CcncchKFMBu+b5uHk4y9D6eeBcX97BLtPHsPo0aNBooi2VJ5++mnRRy5MgAnoToAFgu7s+E4moG8CWguE9vZ2UCwE2g4wNTUVnynkMoVb7ql0bjG0NqpRcvocXKdPQrumFfX5xVD6uItb63ILoXCyh6FUAgrnbG1tDU1DI5qrVWKb4Px/18MpPBQe8yJw5h/vwGZUALyXzhHbDk2V1WLrwMTWCo3F5TAwMhRbBvWFpTA2lQmBQG3JrC0hU5qhWVWHthaNsEQ0FpaK9uXO9miqrAHQARMrSzSWVsDA0AAmttZobG5CdHQ0pk2bhsTERJSXl4vPXJgAE9CdAAsE3dnxnUxA3wS0Fgi6dqgv4iDQeQQDA0Ox+F/6Wdc+aXtf52HM3hzK1LZuvp4JDEUCLBCG4qzzmAcKgQElEAYKVO4nE2ACvSPAAqF3nPgqJnA9CFwXgUAHCQ2MjK7HeLva7Gi/6BYpLAL0myu4RXa0d4gtB3R0iHMInW6V13Ug3DgTGMAEWCAM4Mnjrg96AloLBDrBT4cU6UQ/Hdg7fvy4WCynTJnSI6zOLYbcXYfRpm6G15LZ3RbYltp6cT+dFehNaapSoSY1C46TxvR4ecGh03CdPrHbNa3qZuy68X7M2fw+pJZK5B84ATMXR1gN97lsXbU5BTj11L8Q8uJjMJLJRNueC2f0pqu/u2bPnj2YM2cONBoN4uPjMXbsWJ3q4ZuYwEAnwAJhoM8g938wE9BaIJAYoD90YC80NFSwKS4uhpOTU68EQs7Ow6iMT8Hox1cj8dONUHq6orm+Hi2qeuGiSG6HdHCws6R+9RMaysrRUqESBxaDHlqBosOnoS4pR/GRSIx6eg0aSypQlZiGptJKuC+aCdeZkxH1j3fgMmMS4t9eB9/lixD88Ipu/SPXSdeZU4RLZdTL78J9bgSMZBKkf70VMDJEwH234tw/P4KxwgShr/wFp5/9D1qbmhH+3kvI+nkPOlpa4XfHjThw119gYm8r2kj74kdYBfnC7YZw5PyyH81VKhG/oVlVK2IpWAf5wWlKCL777jvccccdoj8bNmzAqlWrBvMzxmNjApclwAKBHw4m0H8JaC0QyIshISEBgYGBMDY2Fl4M9CasVF6MXfBHw+20IOTsPCSEgNusMJx99X2x+JJ3gYHEWERnNLWxhqHUGEeOHEFERAROrH0NoS88hu2z70bQ4yvhEh6K9O93CAtE8ZEouMyajOrEdLRrWpD27VZMeOVJ0fzZf36AGev/g3NvfgLfWxfAzM1ZvK17e3vDTKFA2sZtwpNC7mCL7B0HITE1FYIi5t8fQVPXIFwn4979At43zYXVMG8UHTkDU3sbYbGojEtGwYGT8LtzEU48+jKcbwiD96JZOP7Ii3AMD4HjlHGoTsqAxTAf2I0ajt2L12D8v9aiqaJaiJcTJ04gLCxM9HP9+vVYvXp1/31CuGdMQI8EWCDoES5XzQSukoDWAoHEALkgUnFwcEBNTY0QB+T22FPpFAh1eUWoTs2C26wpIshRfUExbEcHQSI3QUlkrHBzNPdwwaFDhzB9+nThakgxEGzGBMLE2hKFh09DIjcVcRTy9hyF3NEWdTkFIh6C89RQWPh6IpdiLRgawm3eVJScOCssHnQ9CQRPT0/IJVIU7DkG0DVzwlGwl7ZJ2uE2Z6qItmhkIhNioPhYFJpr6uA+byqKj5wRcRfc5kag8MBJ8dl5xkSURcej7Mx5BD5wB1SpWdA0qGHh7Yba7AKQS6f7gumozc5HVXwqHCaOEYLkf//7Hx544AGBa926dbjnnnuuchr5diYwMAmwQBiY88a9HhoEtBYIumLpCzfHy7Wdv+co6ACh+7wIXbun830FB0+hTd0E93nTLhxg7EWhOApBQUEga0xhYSHc3Nx6cRdfwgQGHwEWCINvTnlEg4fAoBAIg2c6eCRMYGgRYIEwtOabRzuwCLBAGFjzxb1lAoOKAAuEQTWdPJhBRkBrgdDW1oaysjIoFApx9qC0tFSEWbaysuoRzaVbDEk/nIJtgAvsgy+EWO4sSd+fgIWXPVzG+2mFuamqBkVHI+G9ZI64L3fvUbhOnSDOElyu0FkIc/cL2RhrMnJE5kdzt56zM9J5C0tLy16fu9BqEHwxExiCBFggDMFJ5yEPGAJaCwQ68EeFDhHOnDkTZeVlqCivQEBAQK8EQtr2aOQeSoLrFH+YWiiQujUaU1+6BcVRWYj9/ABmvL4Clh4X0itTofgDSZ9uxKgn7kH8+19AZm0Fl2kTUXIqRiRVsg7wgePEMSg4fBqu0yaivbUNUf/4P4S88Jjwloh9+zMYy00R9MByxL71GawCfOEUPh6nnnwNPrcthNeimTj/3gZ4L5sDub0tEj/bCENjY/jeMg/J6zajuaoaoS/9GWUVFUhKShIHJ/Py8nDs2DHceeedqKurEx4XCxcuHDCTzh1lAv2FAAuE/jIT3A8m8HsCWgsEqiIrMwueXp4iSRNZEyhxEbk99lQ6LQj7n9iAgDsmozqrGEee+R42w5zhEu6HsL/fjKj3dyH00fndqiFPBVV2HoxMpJCYKuC9eBZi3vhEeC8E3nsbKH00JWzqFAh0M7k7ei+ZjeR1PyDoweWUe0nUkb5xGzTVdZj81nOI/Mc7mPjyn0X0xOqULOHFQB4TdqMDReInyveQ8f0uuM6eAksfD3y/9WeEh4fDw8ND9O+ZZ57B66+/Lg4aNjU1QS6X8/PFBJiAlgRYIGgJjC9nAteQgNYCobGxEXFxcTAxMcGYMWNEZkMzM7OuhfNyfe8UCGQlKE8sgLWfE6x9HXB+wxFMemYJSmJzkHc0EZOeWixEQ2cpPh4tXBvR1gaL4b5QZeXCJWLCBZdCtRpWw31h5uqElPWbYepgA99bF+L8O+sgUZph5OOrRQZIimPgMGmMSOus9PFA0P23I+XLH1FfUCICNp176zNhbRj5xD1I++ZnGBoZwX/FEsS++SnMvd1ExMTE3GwhiCjqYUNDA95++238/e9/R2VlpQh89Mgjj1zDaeOmmMDgIMACYXDMI49icBLQWiDoiqEv3BzjP/4aln5ecJs5BembtsPU0Q6uERN07ZLW96Wnp8PPzw+ZmZlwdnYW6a65MAEmoDsBFgi6s+M7mYC+CQwogaBvGFw/E2AC15YAC4Rry5tbYwLaEGCBoA0tvpYJMIE+JcACoU9xcmVMoE8JaC0QyIuBDiVaW1uLXAy0B09nEGSyy7sUUo913WKoaqhDblUpRjh7wdjICKWqKnFGwM7MAgdT4+Br5wR3a/s+hcKVMQEmcG0IsEC4Npy5FSagCwGtBQLlYmhpaUFUVJRw+SspLRFujhQ6uKeiq0CorK9FZkUxxrn7wsjQCJX1KrR1dMDe3BIHUs7B08YBPnY9xy/QBQzfwwSYgP4JsEDQP2NugQnoSkBrgUANVVRUQCKRwMLCQhzYKy+vwMSJPR8W1FUg6Dowvo8JMIH+T4AFQv+fI+7h0CWgtUCg9M5paWkikqKvr6/I7Nja2gp7+57N/CwQhu5DxiNnApcjwAKBnw0m0H8JaC0QdB0KCwRdyfF9TGDwEmCBMHjnlkc28AmwQBj4c8gjYAIDlgALhAE7ddzxIUCABcIQmGQeIhPorwRYIPTXmeF+MQFgwAmE4ppKOFna9Dh3mrY2SIyMrnp+qR5yrTT4tabGlmbIpT27c17aaE1jPSzlZlfdj6upoK29XfTf0NDwaqq5pvdSfovO/nagA61t7X0yn9d0EADaKbFZR4fW7GnODA0MhGvwYC8sEAb7DPP4BjIBrQUCfXmrVCpxUHHChAkoLCwUyYp8fHx65KDrGYSo3DTUNdbjZE4Knp97B3YlnsH84AmobqhFawctHm1QSGViAZEZS0XypX/u+hZrZ98CE4kUeVVlsFEooZCZdOtfQVUZbM0tQQsQjcmA/jMwQGt7GyjWg7mpHHEFWfCwsoeVwhwlNZVoQwdcLG1R29SIOnUDHJTWaG7VoLS2Gt52Tth89giWjAmDsaER6poakVlejNFuPqKPOVWl8LVzRomqCurWFnhaO3RbAHIqS+Bxyc8yyouECyfV1VkamtW03qCyQQUPG0dklhfBzcoeUmNjROakYILncDRrNKhvbhT9IiGVUVIAD1tHSI0lIHEll5mIOps0LWhrb4PSVI4mjUYwsDZTdmO07sRuwdXHxgkfnN6NZ6YthcRYIsZA/btpbDg+P7ELThbWou/2Sks0NDdhjJtv19iIZWltlZgXqZExLEzNkF1ZIliUqqrR1NoMFys7sZCezE7GVN8ROJAaizGu3rCUm4v+PL3lM/xryWrBVGokQUOLGvbmVt3a+OjwVjw8fbG4vkRVCVOpiRBGTa00zg4RN6Otow2atlaYyeSobqiDpr1N/Ly8rgYyiQSmEhlaWltBsTfcbezx7ZmDuGP8dFFnjboehjCAwsQUFXUqWCvMRV1yqQkyK4rgY+vcbT6pjv8d24a7JsyGq5WdmCuaz7omtWBK/3e0sO7Gu7C6XLCIzE4W8zzS1QtGBoZoaGlGY3MTXK3txPNsa6YU7dI80DN+vUXo1XwBskC4Gnp8LxPQLwGtBQJ1hxI2kXvjqFGjUF1djaKiIgwfPrzHNx5dBcL5giyQSBjh7IlxHv5Y8unL2PbAi3ht93dQa1rgaeMoFnBLmRxJJXl4ZNoifHhkG1ZPugFHM+IRm5+JfFUl3rn5ga7FlhbRl3Z+jePZKdi25gVsOLMf1qZmcLOyxf7UOIx29cJUv5EwlUihaW0V9dOCmFtdjnFuPvjuzCHxRT7WzRf7kqJwLj8L/152H6ydVYgAAB2xSURBVF7Y/iVmDBuN6X4jUdesxta4k7h78hy8sO1L3Dl+Oo6mxyO+KAerJs4SCyYt6J1lc8wxIUrGu/vhbzu+xiPhC/BL3Ck8O/f2rmvyq8rw8fGdWDZ6CoprqlBQXYZDmQl4Ye4d2JEUjYXBoXC3ssNftnyCB6bMF/0jdsMcXEWwqa1xp1BSV4NHIxZhe8IZ2JtZYJJ3ID4/tRsyQ2M8PG2RiC9BJakoF0W1VZjqNwI1DXXYePYo6psa8FDEIljJzRBXmIVRLt74/OQeyCVSmEqlSC7OwygXH8wKHCvEAJX2jnZ8cmwnatQNUMhMQXJnxvDReO/wVoxw9cZIJ080aZphIVdgd3IMbh8bIdqVGhhiY8wR/N/ND+LVnd/gmTm3IbE4FwU1FcitKMFDETfC0OCCVaS6sQ6P//AxHgybL+Zq89mjKKtXCbFB80DpPGcNH4tPT+zCFN8g+Ns647NTe9De1oaVE2fjdHYq/O2d4e/giu8iDyCuMBvv3PowXtjxJeYGhiDCdwS+PnMQQU7uYgyVDbUwMjAQ4uzV3d9hooc/zE0VXWKC+pRQlIPvY47isWmL8equb7FmynwcSo3DvOAQ/Bh7AvODxiPI2bNrbhMKsxGTn4Ew32C0aDRIKM5FQ0sTlo0Ow0Ob3sdfpi+FiUSCfckxiC3MxP2T5mF/6jlUNNbh1YUroTRV6PebQk+1s0DQE1iulgn0AQGtBUKrphU1qhqkpqZiypQpyM/PF4Jh2LBhPXZHV4Gw5dxxBDl54N8HNuNfC1dh1Tf/h/8uvQ8/nT8FpcwUlgpzWCuUtBIhvigbj09fghd3fI0lIyeJRamqvhZNrRqsmjy7a0EprKlETnkRnt7+JQ498ho+OLYdZlIZxrn5YnPsCQQ7eWDm8DHIKCsULpyTfYORXJIn3nAXjZiALbEnEOjoLqI7PrN1HRYEhiDEcxjOZKfCwdwS7jYO0LRqsOnsEayaOBsfH9uOW8dGICYvHZG5aXj1xpU4k5uG+cGhXcyyK0qQWV6I5tZWHEyPx6rQGdidGIWn59zWdU1aaT5+OHcCD09dgMisFLS2tQrLxMPTFuOr0/vgbGmDce5+eG7bBjwz62a4WdsjMitZWEXoLTM6J40yX+POCTOw5dwJkEVi2ZgwfB99GBYmCiwcNQkWvy409Mb68bEdGO85THA+nZOCBUHjUV6nEm/bJHQWjpiADw5vxU1jwuFj74yfzh2Hh40DPK3tYW1m8atA6MDnx3cJAdHY0iIEwxSfILFYD3d0w21jI4SQWjmJOO3ASBdv1LWoEeLqh/s3vovv7n4aT/34Ke6fPAdjPPzx1oEfMWvYaIxyvWixIivQg9++i5vHhMNGYY6Y3HQYGRrCQm4mhIqJsTGszJT4IeYYJnkFINjZE7sSzsBarsRkn0AcSosVYs3N2gHP/vK5eA5mDBuDQ6mxIggXvbnvTYoW1g+yRrW3twkhNdrNF09s/hiz/EfDztwCE70vpjxPLs7FprNH8ZeZy/Dyrm+xMnQmjmcmYLr/KBxOO4/l46eL/l1avjtzUFi6rEzNhAXkTE4Kbh8/DU9u+QwvL1iBxpYmJBblCpE30XMYzv46zuUTZgpLwkAsLBAG4qxxn4cKAa0FAoGhdMdyuVxYDJqbm0XIZUqF3FPRVSDQPj69DZJJulHTjPqmJnEugEzX9OVvZGiA3Uln4WZpK96Yae+6vF4l+kaLdbGqCmYmpjCXXcy8SPfmVJfBRm6OZk0LtsSdxG1jp4La+i76MP4UcSPMTeQorasRQ7I3t0BFfZ3YU7ZWmKGlVQM6j0CLBL1NmslMQPvGZPal9hyUlkKckLmafmdiLEWhqhIe1vYoq1PBXGYCTXsrlCbd3/pKaqthq1CK8eVWlcHF0qbbFgOZ2MncbGmquLB9Ul0GOzNLYelQqRsuhLM2Mhaf6fdKEznKuo2hVmw10P3qlmbxmRZSegOn/tv+uqh3ziONkZjQ4kfjUcrkwmRPpnnaNiEze3VjPUyNpWKrghb/nIpSsd3SWURo7oZacY2hoYFgkV9TIUQEsSNhUtPUIMZNZnl6S25v74CBoYHYriBrRWVDnZjXxmY1vok8iOfnL//do0ZbJjQmsiDQmGlstJXS1nFhP5/q3h53EstDZ4prqN8knOgZoOeLriXTPc2PlVwhtl9oy4qeAZpnUb+mWWwPqDUaIbTo+SKxQIKTtp6IZWchywX135pEirGkaz7rm5tEXSTYTIwl3cZBPGguW9vbRX/oWnMTU6iaGsXPLUzk4jmieaXnmcZJ802MBmphgTBQZ477PRQI6CQQdAGjq0DoTVu0CNEfXQ7i0X20sFEY50s/96ZdvubaEriaeaae0qJP88yl/xBggdB/5oJ7wgR+S2BQCASeVibABAYmARYIA3PeuNdDg8CQEghkUr7UK6AvpphM7WS5IDP25QqZ76lcaoLWpW2qR9s66KQ9maEvLcL9jlwf/6DPNB5qo7+52F1p7v5onL1hTCTIg0NbrleqmxhTvbRdxOXyBFgg8NPBBPovAa0FAh3ai4mJEYma6GDi2bNn4e/vD3PzCy5plyv63GLoLd7zhVkIdvLUaSvicm18eWovTGSmuHVs+GW7cTwjAV9GH8Qntz/W7Rpy96O95N/u/V96EZ13yKkogb+jG747exg3jw7vdUwAWjTfOfgzHgib1+2Ue3xhDnIrS7Bw5MTf9fnryAPiDMHkSw7c9ZavPq9b/fVbWL/iyT9sgkQNebX8adoicYjw0nIiIwFTfIN/d9/+5BjMChgrXFY/PLodf73h1j7tfmpJHl7esxHfrHpabG2o1I3izAaX7gRYIPATwQT6LwGtBQINhRI0UdImFxcX1NfXX4gboCeBsD/lHOwU5kgozEFLWyvcbB2wJzEawx3chCdBbGGWcE8j17fY4my8vWyNON1NbmPkp//izm8Q4RuMBcGhWB+5Hw9MmQc6DBhfmI2diVF4ccEKHE6LQ0pJHp6Zc9Gl8NIpo/H999DPUDU1YNmoKahVNwiXyvvD5qO+WY2dSdG4dUw4/vrTZwhw8oCDhTWKqysR7OwhDvTRYrtm47tCIERnp6BKXQ97pRVIODQ0qXFrSAROZ6WIU/17kqLx10tcG7efP41jmQm4Y9w0ET+BfOVji3JxV8g0VKvr8WPscbyxbE1Xd8nffn/yOZzJTcHndz2JqkZyyTMSB/gOp8cjt7oUaybPw6ObP8ZUn0DcPXEOdiRE4kBKLN655UFQ8IBzeRnCe+HSsjshShyQWx46A//c+Q2WjgkTB/8yywrhbeskYjE0tbchuSgHo119oJCaiMOHTkprnM1PF30orauGp5U9fOycsDU+Ev9YsKKrCXLhzKwsEe6kFDegpr5WeI4sCJ6A0noVvos+hG9X/7Xr+sPp54XbKLkqvnjjSmSUFgjPCXJhJa+E/OpyLBs9Ga/v+wFzh4fg5pCpXfeqW5pwz9fvYN7wMVg5eQ6e/elzeNs5Y+XEmXhk04e4a/wMDHN0g4PSqusecots1WiEh8OXUQdw94TZIibEh8d3YFXIdBgYGoE8F8jN9VR2Mm4PmYa1Wz7FG8vux3eRB1GoqsDNY6fC09ax/34bXIeesUC4DtC5SSbQSwJaCwRaLKkcPXoUERERwqOBTKn6EgjkW0+m8C8j9yO7qhRf3/00MsuKsCnmCFZPnCN8xasa6zDaxRuPbv4IK0JmwtPGHutP7cWLC+/C/pQY4QNPhRbIaX4jhL8+LcaHUmLg7+iOstpq7EuLw5+nL0VhTTnq1I0Y6XbRjY7exMn6QKKE3gSpznYDiEXiUoGwK/4MbggKEUF19iZGY6y7nzghH+4bjAc2vYv/3fYY/rb1C9w96Qbh66+UmooYAuQW+e89G3H/lPnCCyLE079r+si17VRWsvCPJ9/6Ua7eeO7n9XC3tsf84PFikaZ2OrcLTmYmCovEL3EnsfaGW4WHAgXbOZaRgOGO7qKOYfbOggXFeqhtrIdUIsH2hEisnX2r8Aw5l5+BEI+LfSDvic3njsPP3lks/ptjjiKjohgvLrgLHx7ZiqWjwtDc2gJDIyN42TiKAEX/2r0Ry8ZMER4INF/hfiOEqyD9feWEWcirLsck74CucX5xai+mDxuNjeeOIcwrAFO8A7H8i//AXWmNVxevxpM//g//vfXhruspvoPMyEi4hVJfs8qLYKVQIi4/E562DkgoyhVuiAeTY7Bi4qzfRSZ8c/+PwgWR3u4pIFKwi5fwGtkedwrzRkwQ7p5ml3i+7Ek6ixsCxgoPlke+/xD/mL9CHG4l11Vywy1SVYoYDSRotsVH4q4JM0WAp/8su094fJC4orgTplIZ9iedxazAcb38Jzq4L2OBMLjnl0c3sAloLRBIDFRWVgo3R0r5TFEVqdCWQ09F1y2GnMpSVDXUCjcy+sImywBFBiQXsTTx1qi84NJmYID0imKEuPsJ60BrRzt8bByRVVkKLxsH4aIXV5QNhUSGES5eOJuXLlzqAh09RDAhckekn687tQe3jpkqXCMvLSQQ6O2UIiOey88Ue8vkWkmuho0ajQhwRFsGtepGUQ+5x1G0RxEcyMAAOTUVGOXkiYKacrHfTW/YFH0wOi8NjuZWwq0yq6JYuBRS8KdLCy3YFOKZzhJQ1MiU8iKEeQWKhVxmLBHtdRba+04vK8CO+DN4fMYSROdliGiRIW5+Ik4EXU9vxhTlkfpBguNEZpJw8aNIfxllRUJ0jXTx6logSRQez0yEnZlSmPBtzCxAkR/JckB9rqhXiUiCmZXFQoyMdffF+cJsER2RxmlnbgmK4ZBWWoi5wePFPVQP3d9ZaHEtqqkUc0JBf+TGUiSU5mOy53ARQIgsMSQaOs+QROWmwgiGQtwEOLqLOaQjFeTqSiKIhA4FIqLIg2S5CHH373augiwMtKiT6COrBY2f+lqkqkJ9S5OwFBCrzhKZkwqJoaGIEklBp2h+6d7OZ4rccIlbiapauPySe2N6eRG8rR2E1SA6Nw1WcnNhPaFnj+JVcAFYIPBTwAT6LwGtBYKuQ9FVIOjanq730dsyLdYDuZC1wElpBV97l34xDIrLQAvsNL+RYiuiLwqJDFrMw3yC+qI6ruM6EWCBcJ3Ac7NMoBcEWCD0AhJfwgSYgH4IsEDQD1eulQn0BQEWCH1BketgAkxAJwIsEHTCxjcxgWtCQGuBQPvRlKDJ1MQUpnJT8Vkmk4kzCT0VXbcY6BBedlUJRjl7i31/ygxISXpoX/tgCsXKdxLx/7kwASYw8AiwQBh4c8Y9HjoEdBIIdFDx9OnTCJsSJpISUeKmoKCe94J1Fwi1Ig4AnUingEQkGChgEB3mO5Z2Hs5WdkIkcGECTGDgEWCBMPDmjHs8dAhoLRAIjUajEQIhPDxcWBDIqmBt3T23/W8R6ioQhs5U8EiZwNAjwAJh6M05j3jgENBaIFCApOTkJEgkUmE1OHbsGKRSKSZNmqSXLYaBg5J7ygSYgLYEWCBoS4yvZwLXjoDWAoG6RhYDbWP1swXh2k0qt8QEBgoBFggDZaa4n0ORgE4CQRdQLBB0ocb3MIHBTYAFwuCeXx7dwCbAAmFgzx/3ngkMaAIsEAb09HHnBzkBnQRCS0sLJBKJ2GagA4vkXUDhZXsqV2NBqKmpQV1dHdzc3HDw4EHMmDFjkE8LD48JDA0CLBCGxjzzKAcmAa0FQltbm8jFkJWVhYkTJ4rP5eXlGD58uF4EQmlpKR555BE8+OCDmDZtGtatW4f7778flHY6NjZWxF8IDAzsapv6U1FZIf7u5+vXldo5bWs0Ck+no66gEvM/WYPSuFyYWptBbm+BuvwKUCB/uyA3lCfmizMW9sHuA3NGuddMYAARYIEwgCaLuzrkCGgtEIgQvc0XFxfD399fpHsuKSmBr6+vXgQCtfXaa6/h2WefhVKpxPz587Fz50588MEHmDt3LrZs2YK1a9d2tX3y5Ens27dP/J3uIQ8LKvknUhDz4V6Yu9lg2NJQqPIqkLLxJCJeux2Rb2yDpqEZ459cKD4bGRth7sf3QWrePWHTkHs6eMBMQM8EWCDoGTBXzwSugoDWAoHe3GnRTktLw4QJE0QcBBIIAQEXU/f+UX903WIg68R//vMfPP300+LNfsWKFXjvvfcQHx8vtjkSExPx3HPPXRFBxs5zKE/KR/auONzw/mpk7T2PwlOpmPrSbUj4+hgaS2oQfHcE0n6Ogn2QGwLvmAIj2cVsfldsgC9gAkxAawIsELRGxjcwgWtGQGuBQD271M2xty6PugqEnkjk5ubi0KFDuPvuu7UGdrl+08+paOvGqXUH+AYmwAQ43TM/A0ygHxPQSSDoMh59CARd+sH3MAEm0H8IsAWh/8wF94QJ/JYACwR+JpgAE7huBFggXDf03DATuCIBFghXRMQXMAEmoC8CLBD0RZbrZQJXT0BrgdDW2oaS0hLh2jh69GhUVVWB4iI4Ojr22Ju+2GKgPBD33XcfvvnmG+E98e2332LNmjV/2O5tt92GTZs2dfvdhi83YNXKVTpT+/LLL7Fy5Urs3r0bHh4eVzyYqXNDfCMTGCIEWCAMkYnmYQ5IAloLBBoleTGQ54Kfnx9KSophbCyBra2tXgRCWVkZvv76a+FSuXDhQly68H/11Ve46667urV7/PhxUKwG8no4deoUvvjiCyEmbr/9dvz973/Hn/70JxE3YcOGDdi1axc2b97cdb9KpRLeEVTIQ4O8JDoL9ePcuXOYM2eO8OA4c+aM8KjgwgSYgO4EWCDozo7vZAL6JqC1QKDFl1wdKd4ABS4qLCxEY2OjWMB7KrpaEEgc2NnZISEhAY8++qgQCCQMaPFev369WKTNzMy6miZBMG/ePCxZsgQvvvii6Bst5hRL4ZVXXsGqVatgbGyMzMxM/H97ZwOT9XWF8QcrIjj8oqLIl3x0rBW/IBBFhSWiWafoFGVpXIzTbDa6uKhbdJ12nbXVZFNjYmjMdGti10HconW4ZQatiB+kKgjpgs4KKtQtgllFwW9YfgdfikyJgCT45t6E8AL//733nHO5z3PPvefcxYsX6/z58y3JlAjZLC4utrq4ytqTQ4GfIRNcaQ1xIAcEBGPNmjXdbR9Xv9OAV2vAEQSvNq8T7gXXQIcJQmNjo8huGBQUZAB69+5d1dfXG3h2B0Fg5c6KnXTOI0aM0IULFzRo0CBrD5Dn+6hRo1qahsAcOnRIgYGBio+P16lTp8y7QZ6Gqqoqy9swZswYS6YUHhGu2JhY9e3b95nMuHPnTtvigCwgf3Jy8jO95x5yGnAaeLIGHEFwI8NpoOdqoMMEobOidNaD8Czt7d27VxAXchjMmTOnxSPwLO925JmrV69q+PDhll4aguCK04DTQNc04AhC1/Tn3nYa6E4NeAVB6E4FubqdBpwGuk8DjiB0n25dzU4DXdWAIwhtNNjTMyk2NTbJp5dPu3Z/1uyWXR087n2nga5qwBGErmrQve800H0a6DBBYI+f+w9CQkLs8GBZWZkGDhyoiIj2bz/syhZD4bt79NXFa8r4cNljaZ5Ry5PAkO0Gzix4/u5RX+v0yW3TRfMMf+dAI4cYExISrG7P75/22bPt0J6J2pKO1m2Xl5dbuuilS5faNgn9JkKEC6gIq2yb8rnwvT9r8i/nNjdH957AFYqKiuymTdoh8gJZWuuCOlv3qfUV2k+Tc8OGDZo3b57i4uIee/cxuZuamrvk44Nh7IZMz/fWMpf89nfy8e2tscsXNj/zqNgzku7dqtetqqsa/FrzwVeuFCeU9ty5cyK9dr9+/exMCVs9/Dxx4kQdPXpUo0ePNv1xyyfXj3M2peRsieK+GWe3jebl5Vl9KSkpFtlCP4nI4VwLz3OmBMDiTMrQoUMtooW20V/jw0YdO35M06ZNe2pILxE06L2goECJiYnWHodq8/Pzrd20tDQ7E0NocPDQYPnIR1xlzgVkyP7xHz9W5IhITZo0SZcuXbIzN95eHEHwdgs7+V5kDXSYICAskzWTKocAASByAnBwsL3SWYLwRV6xDi77vcav+54Gxw7T0V/kKn5Rmh7eua8vT/5LDf+5oTcOrWsB0traWsuT4Jl4iX5goicqYf/+/QYEW7duFYAHuHDwkM+EOK5evVo5OTmaO3euAQdREoA2t0Ju27bNDmMSubBy5UqFhoZalAShl5xLILLCz8/v/1TAoUiiKiAdGRkZVi+3UqamphrgnTlzxoAAMCOigs88B0HgkqrWBOGrymvKW5itHxS8o+Pv79Xlw58rIu1VTVr3iDBIFmGyfv16+yIiA1BHnk2bNtnvIHj0H1mRjc8TJkzQ1KlTTXZCQevq6uxZ9ATgrl271g6jMpmT+wJ9oN8VK1a0RK/cr29QXvoCveTvr+RNP9PnW/+gXn16yy9okAbERupibp7G/PzHJk/J+9ka9u1k1RSVKn7FD3Wn5r8a8EqkTr21Wf1jIhSUMFKVuQf02vKFeiXru5o1a5bd2kn0CPZk/AGqkCr6PXPmTMt5gU0gMNgbwAWksTn2mT59ukW08MXBVsJgo6KibFxAqKKjoxUTE2M23bVrlxhH2IqDrdiuuKRYby55U+TieNpYRy/Yse5GnU6cPGHjh34yRgjH5apyQoN5Pzg42MYi9qLPR44c0ciRI0025NixY4dF3EBWGAdcd8648bbiCIK3WdTJ400a6BRBAFgIc2TlxkTMKpjcAu1dcNRZgtD0sFG7U97WgqJ39UHUcv2ofLP+krlZMz5cqnO5J5WwbJp8HnkLMAw3PeLNAAiysrK0ZcsWm7TxdgB2RF4wKTPxM9kDxoQsLlmyxOxaWlpqQE8UhF9fPzXUN9jzXDEdHh5uq0wiIAAXPjOxkxvBUyAdECZPQVeQCjwNhGMCQoA/hAKwBgToIzokNJPnAbwnEQTqPLHlE6WsnKV7N2/rbt1tFbydoxm7lj42JpGBSA3qB7QAGA5ysnIFZDJmZijnTzktl1yxYmX1CwkAXOkj12lDBsaNG2cr4MzMzBaCwAqZFTv9hCQC3GFhYTqx6j0lb1ilTxet1rcWZck/eLCCRsXp5Fu/UdKvfqrjP3lH9+/cUer2X6tk804FBL+s2Ddm6PJfD6v2szIlbVylpvsPda/upi7/7VO9uuj78v1GgNkGwESHEKrg4CFKSEg0kGd1zyodHRLyCrhCJqKjo6xPu3d/ZP3Ozs428GVc4IE4ePCg2RWbQhCmTJlidsdrA1nEZowZZIXMnS05qz5+fcxOs2fPNqKCjlsXSIp/gL+qq6rt/4MQXerl4CwXiiEDZIDx6e/v30IQ8BjRJ7wW27dv18aNGy0Sh+gb2mBM8Y43XiDmCII3wYmTxds00GGCAOiQ+wAAZSVUXV1tk1t3eRBYNV/8e4mipo6Wb4CfKvPLFJIYo7t1Dar9Z7WiXx+r/mFfRxSwyicMkcyObH0ACrhr2RIhPJPf4WI+cOCAyQAI8pnVGyTH42UA/Jm4AwICDLTJHAm48C5gCrAwgQP6bBHgeuYZtl8ATk+hP/v27WuZ3AGIykuVSp2casCK/iBZAO3p06fNdQ54AMoQG1b3nnLjco0q/lEq/6BADYh8ublfpVcUvyBVvR9dTY3bHQKDbKya+YwOACrq9O3jq7Fjxlo2SLwVuL0hBUzUeDoANuRMT0834MQVj2zoCALBah79UngG0EJ+ZIYgDEtNUmjaeH15+IQe3LqtqMzv6GbFFdWWliskNVkPGm7remm5Gh88UNjUyfp3wWfy7eevIYnxqso/pv4xkRqSEK8vcvMUEDJE4emTNH/+fCNxeKvwXAHk2AtPB1tctE2fIArYDPuwOseDgFdm3Nhx6vVSL5MHnXkygOIZQL6Kigobw9gcWZCR9yFaV65cMS8M4M9qHl3gWWCc4MHwFGy4Z88e+zs6Z6uB9sgVQp2Mo6SkJJOBMcE4hKxCengXMgNpZSsEUgaZIGsnY6GwsNDqa524y1smIkcQvMWSTg5v1ECHCUJnldBZD0Jn22v7HjkTamquafz4rwH3edXtqQdwhjA8aavhebfV0+oD+Cs/ydewiQkKjAh9rt1jmwadArI9oeB5Ari7s1RWVpqXytuLIwjebmEn34usAZ/r1683n8R7SvHkF+iqkBAEz8HBrtbl3ncacBrwDg1wlgVviitOA04DPU8D/wP4KbOulhkVngAAAABJRU5ErkJggg==;" vertex="1" parent="1">
          <mxGeometry x="645" y="50" width="90" height="59.71" as="geometry" />
        </mxCell>
        <mxCell id="-Eoq_LRY8Kr08JRgcB4u-21" value="" style="shape=image;imageAspect=0;aspect=fixed;verticalLabelPosition=bottom;verticalAlign=top;gradientColor=none;fontSize=18;image=data:image/png,iVBORw0KGgoAAAANSUhEUgAAAOwAAABFCAYAAABJwAoyAAAABHNCSVQICAgIfAhkiAAAAAlwSFlzAAAKwwAACsMBNCkkqwAAABx0RVh0U29mdHdhcmUAQWRvYmUgRmlyZXdvcmtzIENTNui8sowAAAAXdEVYdENyZWF0aW9uIFRpbWUANC0wOC0yMDE1LZJhnQAAEHRJREFUeJztnU122swShp/c8w3EyGQFJgsAkxVYXkHICoxnV6OQFRivIGSkoeUVBK8g8gqCYQGRV/DB5MIsd9DVViPUQvwaSL/ncPhrtUo/b1d1VXXp3Z8/f3BwcDgO/APw7t27ne0grDR8wAdqxus802wCDICxvMfAIJgOx9uQwQ1KDqeCd3/+/NkqYcNKowq0gRZwuWF3z0AE9IPpMFm3E0dYh1PB1ggrmrQDfNq4s3w8Ab1gOuyvuqEjrMOpYGPCClG7bKZNY+NzE6gWtH0BOqsQ1xHW4VSwNmHF9O0B1yU3GaOIGaPmqS9FZm5YadRQc13feJl4AtplTGVHWIdTwVqEDSuNFmpueVaieR+IgunwcXXx5vZZRZnbbebJ+zWYDntF2zrCOpwKViZsWGn0gC9Lmo1R2vf7tjy9GRlqwC2KvACPKG2buy9HWIdTQWnCiobrs3yuGqG03taJmiNTDbhHadxnwM/bryOsw6mgFGGFrDFwUdAsAW6C6TDelnBlEVYabeAb8A5F2oH5vyOsw6lgKWFLkrWPIuvOtaoNom1/AB+ApumMcoR1OBX8p0SbPsVk7QTT4ee3JCuAEPQKRdq+DDQODieFQg1bwsF0E0yH0S4E2wRhpXEPfAimQx+chnU4HVgJK6GbHwXbHiRZNYS0L8F02HWEdTgV5BJWzMkEe5z1LpgOu7sSSvbfZD7raYBaEJCs0M9P4Ot///c8WNrYweEI8I/l9x52svZ3RdYy+chhpfGMyimOSnT5WfpzhHU4CSxoWCHNT0v7BPi4bQeTaNQu6XxZpzGaRKuhVgBpjfsCtLIhnJy+m8B4k9U+Dg5vhex0Lo+wMfbkiM/rrJYpQiZsNEZpxEfboCADyj2KwBOUlzpaso/mMmI7OBwiCgm7RLv2g+nw8yo7EzK2UOTSSIBYa7yw0higyBqjBoRS2lucSm35+rGIkDrE89ahJweHVbGMsH3s88cPZc1KSWLoUryS5xFF3i8oZ9LHMn1n9qPDTi+oZAkrIcNKo+bMYodjg5WwooX+tWz3EEyH7TI7kDRB7bQaoHKLTe3no7RuU76PUYPBWtpPPME+O/ZcOzi8BbKENb3E7YLtumU6F7LeozRny5JX/ATchZXGF+l304UCN8BvlPyl5HRwOFaYGjYm39lUylwVM3iAIs9VGRIucwbJAFBDaeGowBGlTfnCuayDw7Ehq2HNXGKbZ/ihZN9d4A8rOI5s5Aorjao4o+5Frm9AIiGaPMTy7vKHHU4a/4FX77ANS8M4Mv+9Ri1YT7YgVw9F/vfBdHgFvEdpbpssmvj+Fvbt4HCw0HNY3/J/UpKAWvNtK0bbwqggEUyH47DSuAN+hJWGX7Dmdq/mcOjV2yiTPQlmo0h+02mVg2A2cmEkQejVa6R+kiiYjZI3E+aIoQlrMzWflnUgc9c22E3cNXAGjMNKo4sqBXPHfGVFG1q6MsamMVcho86sukRVtEhEjkjI2Jb/nlDecEiTQB4oduSdDGSQapPG3KuowTNBnatYfr+VTWL5z2FFaMLa5n6JbcNM1cSEcoRaBdZ950CnMp6j5r33YaWxVphHbr68UjgX8tJxalvht4OZRxvHMghmo86O9mEryHcpr+vQq7/fxb7/RizTsHHej0Y64W9245kdB9NhElYapRrL/q8M+XzgNqw0BsF0aDs2G2LSBfsvpHHkJmrqcEmqTfPgy2urKZxrosXmT1+wIvTqPvNLMB9Q56+K0qhtoB/MRuPQq+9KjL8KmrC2lTk2szICfgXT4c3WJVJ43mRjmePGYaVxH1YavWA6LKVdxAzWZFVF3dJ5aF/aVJfMTfXSxBoypw69ul4mOJCb10eReoy6oRNpVyN9DtEgmI2spJc+avJKgNicFxpmKkBV2gOMg9loboAV+VrydSB9lZlSmFbGjZ7HG+iIHHnyV1HH2hT5+3n7lHNSI/WzLMhn+A3GwWw0kG308kzr8RjXAZEhMf6eO08ZeRF59x5CtC2vA/LnpBJa+bNDsm4NwXR4E1Yav8JKo1pyTmsSu5V3kUvcyD3Sea2f+e1OBgXzYWDfQq9+w/wcD4DQq2cHDUKv3kGF0BYG2dCr3wSzUSQEjI02F6Q54q9yFZj/k9Crd3IIaO6rSTq4PdjaWs5Xm8W01V7o1dvmIBV6dVuq7CT06r5BmCbq+J5Drx6hwoDW9nLcMcWlj8zz1GZxyelt6NWfsNwnu0KZmk5Z+Cgn0LHgjvLhHn0BH3fkxbxFkfVFXhr3pGQ1rYsLFrO3Bqgb5wVlgpoF2u9Fu+h2E/k8Qd2AT8x70k2y6v6Q/s2+8tAyPq9q/muyPhsynrHoFxgb7b6Tnpsz8qclF6RkLeo7krYT6feG+etxhwzeMjDdk5L1wWh7yZ6nPusQdrCHbKKt9R9Mh/0ySwLlwmx9/zn4GsxGtWA2qjFPtmfgQzAbNVFxZ425Obh4XD9KH+1gNmqhbjgNP5iNBsFs5JMexyCYjXx56RvRJyXrd90fquqkRllHVVyyncYLcBXMRs1gNqqSRiPOM9ehg5yTYDbqyLnR58ymHZ9R56eJslo0yU0rQmvtWPqNmB+ABob27hq/f5BzXkMRHeByycC2VWjCllbp+6g7XHbOuWXsw7v7HMxG5khvDiQ9rdXFxLLO43PmTub3WklZfHPfRt+Jse9SDrs1TMKeDDwakfH59ToEs9E4x9JZNph29fkRueKCtq99Zc6pedya3Fmry7x2qzo214aewz6T4038y5ak7WMekhR8z/6XK49ooA5KI5R5tpENvvH59yZe3BKOuCyypEss/bZJY91lke0rT64n6bMVevWe4Qi0yQfwKfTqtmp+TfZkGmvC2k52jb8kwC3eRf11VyPmRqZ2jjNJz0nHZBxWK2BSIFdZebVcW0Po1bukx6RljElDa7ko6bntoWS+AP4V55Hu89ninX/BzgXb71uHJuyAfG9cbV+CrICt3xwGnpHkiDW0xj7QISXraxhF5lCrEjZB3aRnMt9dFbGxzzbbvyZ6WjQBavpahF5de9zXRjAb9UOvHpPe8zqTrY89Iaa/q+STVaDnsLHl/9p+xEgRVhpNS9X+gby+LVmssAki43PfFkN8Q9T0h0wYZdmNlHccsf4gpudKkDmo9pZer9PHEuiBKRtDbeU1XgUi6yeU/O+D2eidOLa6OYO0ns+3DuF++AeUI8mSVeTvUxjJS65Ksn+V9OK0UKPfFfALRazaDkSIUNriAjXqDiQWqC9iE+WFfasLl4hcSLyxjzo3y27iCzExE3glu9YmOoTTRh1/QloVpJNxDmXRIc100n3o9lXpZ7ymBp+IbL4xGLSYj2GvC339zlEDc2z8NybNFQd1ju6lbSL3Q0SazNHa5/1ghnXyEv13ltZmgakpYlLXvS7SBsqdfl6wNnZtyEXySUfVc1TNqFt5fWIzR8+mMM21axRZdC53nlfZbH+LuvHaMHesOlZ5Kf//lLZFSQVIH33mQ0qXpOfqS5k+CqBlPxO57lHn/7t1i/KImD/uW+P1DcOBJIObGZ++Rp2je/m81/vBzHQyg+ivCCuN1rZLmxagGUyHHSFj9mKfoW4w7VTYyagmN3JTRnWfnIqPxveIxZUnRb+Z2+r+7ozPJhb6EcfYFWpgq5IueohIc51jo30/9Oq6mLrZr9lfjXSljcYYWTTAEkhmVSx9+Jm/Y9KbP8F+rAv/BbNRN/TqCWl6ZYKaR/bl96pl+yxi84scb0yafKItKB23vUDFVptGeKgtFk2b+fthQHFe+dZRpghb6QJsm0LK1HRRF+B3TpMr1IX6gSpDE+9DLofTgTitvgBPeaZ66NXHKDLfBbNRd7/SLcJaIkZybR+zGwDXe3x0Yx+1cD1h0fQZCEFbqNU88Z5kcjgt1Gx/yFJBbeIeWoQAWEz+75Ef3umwn4qEfdSyuLaYxr+QImzBdPhdirJdc1y5zA6HBX2PX4opr+PYTdJ7f8KeTd2yyHtUh67za2ISTId70bJGqdQHVKXEWMI4bRRZo2NYKeRwuDDM4jw8oNIbk/1JZEeZZ+v45D+u42swHdqCyluFOJ2+MT9wJKin1m3DS7hchnQN68L60beC4QjrHYpMxwpjDe0rloSw3gRLCQsQVhoRi+sVJygvbrJD+bJyVFFeu5d97VfilWZGkcYji0nre4WRy/ogK2scThxFlf9NdFD2vGkG6zWFG2ealIU4wpYWgtsWlphKn3j7eY1OndxXmM3hwJCrYUHFX5mv16NxU/JhykcFMZF0WOsFleXTN8q2+E6rOewbpUxiDePpcCYmgH9qj8SQ5VV67p5XnyhvmyqLSQd95lPbzPrFus82aU0nfR4XavVKmEHPs3qkCRCxaZpb5BigEg3MdjXpQ/c5ljYRDgeJlQgLdq8xe57P7gNG0PxRKjkUta1irws0V4tJwgeXwGfmS4JOjM9fM4vbkYyec9SSr6Yxh30N6ucsuTNRtp2bEx8oip6tY8NnFlPUzoD+HhMq9oVY3j+FXj3OLGrOIsIoQoY6Tzrn9IL8ZVo/UOduIm27pDnAbbOhEEwnukcFcvRJSfgd+EpadyiSvqpGuwkqjn1D6h/YxWobhx2gsGoivD4m4wplLppu8AtgILnGp2Ied1HWxBlKI/6Uxc3dHNNSB9lN7dQ3qgnaNPR36U9rX1AhrAszf5V5Akd5HYnJrEldlEpntutqTS4rT/412uTux+FwUKoIm3hrr1hMXj9H1f/1tyvW20DI0mT+iX2auF3jN3PgqoZevatfpClttlUc2TWXkfG5bXzWhH8sWEhvylEUIzfb1QxZO6RrWk/NWjpJlK6aGEyHY3mSXPbGOAN+ynNwjh7BbJQY1QPNJI1b0WiwWKTLXJ5VtCRxgXzyXedwt2Alczjbjw2mvOZyQV121eFIsNQkziKYDr+GlcYTKn3QHJVvJRTUPgUTWTy2HTEbtffYZzEG+kD5mj628xKhiK/LfGpv8MRSX2gT2PKwky3vx2EHWJmwoGr9ylK4b8ybcRfAr7DSUPmYJ+BFDmajOPTq2purNVVMWs+ovympJN6r99Em9cpHZfsIvXqtIP81JtX8vQOsVeVQEusUEgdeTeQb8ue218DvsNKIjmV+G3r1dujVO9mi0JklV4m8D0grFnQzxa8JvXp1jeLSkby3KW8OmwNFZO4z9Oq+4eWOjXa9nGOsHUK9IoflWBqHLQsh5hfyvaN6ZX8MxKs8u1XqPOlE/I2f+2rdT35ZzSbzzqMr7S3OtAcVnhmgEiQumY+BxtnfcvbfRNWreu1PqtebbfLisLpvjSdD7qJ2et5cQ1lGV8EBJr//7SibS7wyjCfGVVEatkVq2unaSF8AwkrjmbS8SR70Sooxav74uAfz2uxfh3U0JkDbvKGlhAmkpL1gPolipYFFyrXoXGEobw63mE/gMOUeZ9pFpOGo7LpnZyYfAbamYW0IK41L0tpI5suETtHT7wPgaVfa1AZjyZVv/BwXaR7ZpkV6TAPUs1kSo422EJKidZZh+mhFpI9x5n8t10I/4fwjIxMyj5/M7KNF6jCM8/blcBjITU08JuxycHFwODSsk5ro4OBwIHCEdXA4IjjCOjgcERxhHRyOCI6wDg5HBEdYB4cjgiOsg8MR4f/JOLJ17mZesAAAAABJRU5ErkJggg==;" vertex="1" parent="1">
          <mxGeometry x="632" y="10.240000000000006" width="136" height="39.76" as="geometry" />
        </mxCell>
      </root>
    </mxGraphModel>
  </diagram>
</mxfile>
